<svg width="128" height="128" viewBox="0 0 128 128" fill="none" xmlns="http://www.w3.org/2000/svg">
<path d="M20 104H108V112C108 116.418 104.418 120 100 120H28C23.5817 120 20 116.418 20 112V104Z" fill="url(#paint0_linear)"/>
<path d="M65.3029 12.1662L103.21 43.9021C104.344 44.8521 105 46.256 105 47.7359V108C105 110.761 102.761 113 100 113H28C25.2386 113 23 110.761 23 108V16C23 13.2325 25.2322 11 27.9875 11H62.1041C63.2734 11 64.3998 11.4101 65.3029 12.1662Z" fill="white" stroke="#D36117" stroke-width="6"/>
<path d="M81.0898 15.9142C80.6783 15.5028 80.4964 14.996 80.5 14.5C80.5075 13.4771 80.5 10 80.5 10H101C105.418 10 108 15.5817 108 20V34.1716C108 35.9534 106 36.5 104.586 35.5858L81.0898 15.9142Z" fill="url(#paint1_linear)"/>
<path d="M81.2117 11.5324C79.7809 10.3323 80.6295 8 82.4969 8H100C104.418 8 108 11.5817 108 16V29.7123C108 31.4109 106.016 32.3362 104.715 31.2446L81.2117 11.5324Z" fill="#D36117"/>
<g filter="url(#filter0_i)">
<rect x="54" y="70" width="36" height="6" rx="3" fill="#D36117"/>
<rect x="54" y="54" width="36" height="6" rx="3" fill="#D36117"/>
<rect x="54" y="86" width="36" height="6" rx="3" fill="#D36117"/>
<circle cx="44" cy="57" r="5" fill="#D36117"/>
<circle cx="44" cy="73" r="5" fill="#D36117"/>
<circle cx="44" cy="89" r="5" fill="#D36117"/>
</g>
<defs>
<filter id="filter0_i" x="39" y="52" width="51" height="42" filterUnits="userSpaceOnUse" color-interpolation-filters="sRGB">
<feFlood flood-opacity="0" result="BackgroundImageFix"/>
<feBlend mode="normal" in="SourceGraphic" in2="BackgroundImageFix" result="shape"/>
<feColorMatrix in="SourceAlpha" type="matrix" values="0 0 0 0 0 0 0 0 0 0 0 0 0 0 0 0 0 0 127 0" result="hardAlpha"/>
<feOffset dy="2"/>
<feComposite in2="hardAlpha" operator="arithmetic" k2="-1" k3="1"/>
<feColorMatrix type="matrix" values="0 0 0 0 0 0 0 0 0 0 0 0 0 0 0 0 0 0 0.16 0"/>
<feBlend mode="normal" in2="shape" result="effect1_innerShadow"/>
</filter>
<linearGradient id="paint0_linear" x1="20" y1="110.095" x2="108" y2="110.095" gradientUnits="userSpaceOnUse">
<stop stop-color="#A64C12"/>
<stop offset="0.0415667" stop-color="#E97F39"/>
<stop offset="0.0832333" stop-color="#A64C12"/>
<stop offset="0.916667" stop-color="#A64C12"/>
<stop offset="0.958333" stop-color="#E97F39"/>
<stop offset="1" stop-color="#A64C12"/>
</linearGradient>
<linearGradient id="paint1_linear" x1="80" y1="30.5" x2="108" y2="30.5" gradientUnits="userSpaceOnUse">
<stop stop-color="#A64C12"/>
<stop offset="0.858333" stop-color="#A64C12"/>
<stop offset="0.929927" stop-color="#E97F39"/>
<stop offset="1" stop-color="#A64C12"/>
</linearGradient>
</defs>
</svg>
