<svg width="128" height="128" viewBox="0 0 128 128" fill="none" xmlns="http://www.w3.org/2000/svg">
<path d="M64.4746 7.87097C79.6632 7.87097 94.5353 13.8344 105.294 24.8195C116.052 35.4908 122.065 49.9285 122.065 65.3078C122.065 97.0078 96.1174 123.058 64.1582 123.058C54.6654 123.058 45.1725 120.861 36.629 116.153L5.93549 124V120.5L14.1626 94.1831C9.41619 85.3949 6.56834 75.6652 6.56834 65.6216C6.25191 33.9215 32.199 7.87097 64.4746 7.87097Z" fill="url(#paint0_linear)"/>
<path d="M64.4746 4C79.6632 4 94.5353 9.96338 105.294 20.9486C116.052 31.6199 122.065 46.0575 122.065 61.4368C122.065 93.1369 96.1174 119.187 64.1582 119.187C54.6654 119.187 45.1725 116.99 36.629 112.282L5.93549 120.129L14.1626 90.3121C9.41619 81.524 6.56834 71.7943 6.56834 61.7507C6.25191 30.0506 32.199 4 64.4746 4Z" fill="white"/>
<path d="M64.4746 109.458C55.9311 109.458 47.3875 107.261 40.1097 102.867L38.2111 101.925L19.8583 106.633L24.6047 88.7428L23.339 86.8596C9.41618 64.5754 16.0612 35.0724 38.844 21.2624C61.6268 7.45249 91.0546 14.0436 104.977 36.6417C118.9 59.2398 112.255 88.4289 89.4724 102.239C82.1946 106.947 73.3346 109.458 64.4746 109.458Z" fill="#33D17A"/>
<g filter="url(#filter0_d)">
<path d="M92.3203 74.619L88.8396 73.0497C88.8396 73.0497 83.7767 70.8527 80.6125 69.2834C80.296 69.2834 79.9796 68.9695 79.6632 68.9695C78.7139 68.9695 78.081 69.2834 77.4482 69.5972C77.4482 69.5972 77.1318 69.9111 72.7018 74.9329C72.3853 75.5606 71.7525 75.8745 71.1196 75.8745H70.8032C70.4868 75.8745 69.8539 75.5606 69.5375 75.2467L67.9554 74.619C64.4746 73.0497 61.3104 71.1665 58.7789 68.6556C58.1461 68.0279 57.1968 67.4002 56.564 66.7725C54.349 64.5754 52.134 62.0645 50.5518 59.2398L50.2354 58.612C49.919 58.2982 49.919 57.9843 49.6025 57.3566C49.6025 56.7289 49.6025 56.1011 49.919 55.7873C49.919 55.7873 51.1847 54.218 52.134 53.2764C52.7668 52.6487 53.0832 51.7071 53.7161 51.0793C54.349 50.1378 54.6654 48.8823 54.349 47.9407C54.0325 46.3714 50.2354 37.8971 49.2861 36.014C48.6533 35.0724 48.0204 34.7585 47.0711 34.4446H46.1218C45.489 34.4446 44.5397 34.4446 43.5904 34.4446C42.9576 34.4446 42.3247 34.7585 41.6918 34.7585L41.3754 35.0724C40.7426 35.3862 40.1097 36.014 39.4769 36.3278C38.844 36.9555 38.5276 37.5833 37.8947 38.211C35.6797 41.0358 34.414 44.4882 34.414 47.9407C34.414 50.4516 35.0469 52.9625 35.9961 55.1596L36.3126 56.1011C39.1604 62.0645 42.9576 67.4002 48.0204 72.1081L49.2861 73.3636C50.2354 74.3052 51.1847 74.9329 51.8175 75.8745C58.4625 81.524 66.0568 85.6042 74.6003 87.8012C75.5496 88.1151 76.8153 88.1151 77.7646 88.429C78.7139 88.429 79.9796 88.429 80.9289 88.429C82.511 88.429 84.4096 87.8012 85.6753 87.1735C86.6246 86.5458 87.2575 86.5458 87.8903 85.9181L88.5232 85.2903C89.156 84.6626 89.7889 84.3488 90.4217 83.721C91.0546 83.0933 91.6874 82.4656 92.0039 81.8378C92.6367 80.5824 92.9532 79.0131 93.2696 77.4438C93.2696 76.8161 93.2696 75.8745 93.2696 75.2467C93.2696 75.2467 92.9531 74.9329 92.3203 74.619Z" fill="white"/>
</g>
<defs>
<filter id="filter0_d" x="34.414" y="34.4446" width="58.8556" height="55.9843" filterUnits="userSpaceOnUse" color-interpolation-filters="sRGB">
<feFlood flood-opacity="0" result="BackgroundImageFix"/>
<feColorMatrix in="SourceAlpha" type="matrix" values="0 0 0 0 0 0 0 0 0 0 0 0 0 0 0 0 0 0 127 0"/>
<feOffset dy="2"/>
<feColorMatrix type="matrix" values="0 0 0 0 0 0 0 0 0 0 0 0 0 0 0 0 0 0 0.16 0"/>
<feBlend mode="normal" in2="BackgroundImageFix" result="effect1_dropShadow"/>
<feBlend mode="normal" in="SourceGraphic" in2="effect1_dropShadow" result="shape"/>
</filter>
<linearGradient id="paint0_linear" x1="2.06452" y1="112.387" x2="125.935" y2="112.387" gradientUnits="userSpaceOnUse">
<stop offset="0.0332822" stop-color="#D0D1CC"/>
<stop offset="0.278414" stop-color="#D1D1CD"/>
<stop offset="0.411458" stop-color="#E7E6E4"/>
<stop offset="0.526042" stop-color="#F6F5F4"/>
<stop offset="0.630208" stop-color="#E6E7E4"/>
<stop offset="1" stop-color="#D0D1CC"/>
</linearGradient>
</defs>
</svg>
