<svg width="128" height="128" viewBox="0 0 128 128" fill="none" xmlns="http://www.w3.org/2000/svg">
<circle cx="64" cy="66" r="58" fill="url(#paint0_linear)"/>
<circle cx="64" cy="62" r="58" fill="white"/>
<g filter="url(#filter0_i)">
<path d="M104 64.1036C104 44.386 87.999 24 66.6644 24C58.3306 24 51.6636 30.6839 51.6636 38.7046C51.6636 46.7254 57.4062 51.5317 69.6646 55.0803C85.4989 59.6642 95.3184 72.4421 95.3328 88.5C100.133 82.6181 104 74.7979 104 64.1036Z" fill="#3360CC"/>
<path d="M24 65C24 55.1036 27.4891 44.25 35.7134 35.75C34.4673 52.25 44.9346 64.5 60.3863 69.25C71.5475 72.6811 79.0779 76.5 79.0779 87.25C79.0779 97.5 70.8536 104 62.1308 104C37.9564 104 24 81 24 65Z" fill="#3360CC"/>
</g>
<defs>
<filter id="filter0_i" x="24" y="24" width="80" height="80" filterUnits="userSpaceOnUse" color-interpolation-filters="sRGB">
<feFlood flood-opacity="0" result="BackgroundImageFix"/>
<feBlend mode="normal" in="SourceGraphic" in2="BackgroundImageFix" result="shape"/>
<feColorMatrix in="SourceAlpha" type="matrix" values="0 0 0 0 0 0 0 0 0 0 0 0 0 0 0 0 0 0 127 0" result="hardAlpha"/>
<feOffset dy="2"/>
<feComposite in2="hardAlpha" operator="arithmetic" k2="-1" k3="1"/>
<feColorMatrix type="matrix" values="0 0 0 0 0 0 0 0 0 0 0 0 0 0 0 0 0 0 0.16 0"/>
<feBlend mode="normal" in2="shape" result="effect1_innerShadow"/>
</filter>
<linearGradient id="paint0_linear" x1="122" y1="109.5" x2="5.99999" y2="108.5" gradientUnits="userSpaceOnUse">
<stop stop-color="#E6E6E6"/>
<stop offset="0.498351" stop-color="white"/>
<stop offset="1" stop-color="#E6E6E6"/>
</linearGradient>
</defs>
</svg>
