<svg width="128" height="128" viewBox="0 0 128 128" fill="none" xmlns="http://www.w3.org/2000/svg">
<path fill-rule="evenodd" clip-rule="evenodd" d="M64.5 119.723C62.6915 119.906 60.8567 120 59 120C29.1766 120 5 95.8234 5 66C5 36.1766 29.1766 12 59 12C60.8567 12 62.6915 12.0937 64.5 12.2766C66.3085 12.0937 68.1433 12 70 12C99.8234 12 124 36.1766 124 66C124 95.8234 99.8234 120 70 120C68.1433 120 66.3085 119.906 64.5 119.723Z" fill="url(#paint0_linear)"/>
<mask id="mask0" mask-type="alpha" maskUnits="userSpaceOnUse" x="16" y="8" width="108" height="108">
<circle cx="70" cy="62" r="54" fill="white"/>
</mask>
<g mask="url(#mask0)">
<circle cx="70" cy="62" r="54" fill="#2C2255"/>
<circle cx="70" cy="62" r="35" fill="url(#paint1_linear)"/>
<g filter="url(#filter0_d)">
<rect x="16" y="59" width="108" height="6" fill="white"/>
</g>
<g filter="url(#filter1_d)">
<rect x="16" y="45" width="108" height="6" fill="white"/>
</g>
<g filter="url(#filter2_d)">
<rect x="16" y="73" width="108" height="6" fill="white"/>
</g>
</g>
<path fill-rule="evenodd" clip-rule="evenodd" d="M64.5 8.27665C37.26 11.0322 16 34.0333 16 62C16 89.9667 37.26 112.968 64.5 115.723C62.6915 115.906 60.8567 116 59 116C29.1766 116 5 91.8234 5 62C5 32.1766 29.1766 8 59 8C60.8567 8 62.6915 8.09371 64.5 8.27665Z" fill="#F7941E"/>
<defs>
<filter id="filter0_d" x="16" y="59" width="108" height="8" filterUnits="userSpaceOnUse" color-interpolation-filters="sRGB">
<feFlood flood-opacity="0" result="BackgroundImageFix"/>
<feColorMatrix in="SourceAlpha" type="matrix" values="0 0 0 0 0 0 0 0 0 0 0 0 0 0 0 0 0 0 127 0"/>
<feOffset dy="2"/>
<feColorMatrix type="matrix" values="0 0 0 0 0 0 0 0 0 0 0 0 0 0 0 0 0 0 0.16 0"/>
<feBlend mode="normal" in2="BackgroundImageFix" result="effect1_dropShadow"/>
<feBlend mode="normal" in="SourceGraphic" in2="effect1_dropShadow" result="shape"/>
</filter>
<filter id="filter1_d" x="16" y="45" width="108" height="8" filterUnits="userSpaceOnUse" color-interpolation-filters="sRGB">
<feFlood flood-opacity="0" result="BackgroundImageFix"/>
<feColorMatrix in="SourceAlpha" type="matrix" values="0 0 0 0 0 0 0 0 0 0 0 0 0 0 0 0 0 0 127 0"/>
<feOffset dy="2"/>
<feColorMatrix type="matrix" values="0 0 0 0 0 0 0 0 0 0 0 0 0 0 0 0 0 0 0.16 0"/>
<feBlend mode="normal" in2="BackgroundImageFix" result="effect1_dropShadow"/>
<feBlend mode="normal" in="SourceGraphic" in2="effect1_dropShadow" result="shape"/>
</filter>
<filter id="filter2_d" x="16" y="73" width="108" height="8" filterUnits="userSpaceOnUse" color-interpolation-filters="sRGB">
<feFlood flood-opacity="0" result="BackgroundImageFix"/>
<feColorMatrix in="SourceAlpha" type="matrix" values="0 0 0 0 0 0 0 0 0 0 0 0 0 0 0 0 0 0 127 0"/>
<feOffset dy="2"/>
<feColorMatrix type="matrix" values="0 0 0 0 0 0 0 0 0 0 0 0 0 0 0 0 0 0 0.16 0"/>
<feBlend mode="normal" in2="BackgroundImageFix" result="effect1_dropShadow"/>
<feBlend mode="normal" in="SourceGraphic" in2="effect1_dropShadow" result="shape"/>
</filter>
<linearGradient id="paint0_linear" x1="5" y1="110.5" x2="124" y2="110.5" gradientUnits="userSpaceOnUse">
<stop offset="0.215204" stop-color="#D97908"/>
<stop offset="0.498619" stop-color="#FAB666"/>
<stop offset="0.500158" stop-color="#6E5BBD"/>
<stop offset="0.778899" stop-color="#19132F"/>
</linearGradient>
<linearGradient id="paint1_linear" x1="70" y1="27" x2="70" y2="97" gradientUnits="userSpaceOnUse">
<stop stop-color="#2C2255"/>
<stop offset="1" stop-color="#453787"/>
</linearGradient>
</defs>
</svg>
