<svg width="128" height="128" viewBox="0 0 128 128" fill="none" xmlns="http://www.w3.org/2000/svg">
<rect x="12" y="16" width="104" height="100" rx="8" fill="url(#paint0_linear)"/>
<rect x="12" y="12" width="104" height="100" rx="8" fill="#3D3846"/>
<g filter="url(#filter0_d)">
<path d="M64.3333 26H77C83.9956 26 89.6667 31.6711 89.6667 38.6667C89.6667 45.6623 83.9956 51.3333 77 51.3333H64.3333V26Z" fill="#FC7266"/>
<path d="M39 38.6667C39 31.6711 44.6711 26 51.6667 26H64.3333V51.3333H51.6667C44.6711 51.3333 39 45.6623 39 38.6667Z" fill="#EF502F"/>
<path d="M39 64C39 57.0044 44.6711 51.3333 51.6667 51.3333H64.3333V76.6667H51.6667C44.6711 76.6667 39 70.9956 39 64Z" fill="#A15BFC"/>
<path d="M39 89.3333C39 82.3377 44.6711 76.6667 51.6667 76.6667H64.3333V89.3333C64.3333 96.3289 58.6623 102 51.6667 102C44.6711 102 39 96.3289 39 89.3333Z" fill="#27CD84"/>
<mask id="mask0" mask-type="alpha" maskUnits="userSpaceOnUse" x="64" y="51" width="26" height="26">
<circle cx="77" cy="64" r="12.6667" fill="white"/>
</mask>
<g mask="url(#mask0)">
<circle cx="77" cy="64" r="12.6667" fill="#34BBFB"/>
<path d="M103.864 99.8011C103.863 99.8004 103.862 99.7996 103.862 99.799C103.423 99.3034 103.214 98.3847 102.989 97.406C102.765 96.4279 102.514 95.3732 101.711 94.6896C101.709 94.6881 101.707 94.6867 101.706 94.6852C101.547 94.5463 101.383 94.4292 101.219 94.3315C101.054 94.2338 100.887 94.1542 100.72 94.0913C101.836 90.7811 101.399 87.4846 100.271 84.5063C98.8891 80.8503 96.4751 77.6653 94.6312 75.4864C92.5673 72.8829 90.549 70.4118 90.5888 66.7616C90.6503 61.1907 91.2015 50.8599 81.3981 50.8462C80.9995 50.8454 80.5835 50.8621 80.1502 50.8968C69.1951 51.7786 72.101 63.3529 71.9382 67.2281C71.7379 70.0624 71.1635 72.2962 69.2139 75.0668C66.9244 77.7897 63.6995 82.1973 62.1724 86.7858C61.4519 88.9509 61.109 91.1579 61.4251 93.2471C61.326 93.3361 61.232 93.4295 61.1416 93.525C60.4695 94.2433 59.9726 95.1127 59.4192 95.698C58.902 96.2145 58.1655 96.4106 57.3553 96.7006C56.5451 96.9915 55.6561 97.4196 55.1164 98.4555C55.1164 98.4555 55.1164 98.4563 55.1157 98.4563C55.115 98.4578 55.1143 98.4599 55.1128 98.4613C54.8589 98.9351 54.7764 99.4466 54.7764 99.9653C54.7764 100.445 54.8473 100.931 54.9189 101.399C55.068 102.373 55.2192 103.294 55.0188 103.917C54.3778 105.67 54.2954 106.882 54.7468 107.761C55.1996 108.642 56.1292 109.031 57.1803 109.251C59.2825 109.689 62.129 109.581 64.3723 110.77L64.5654 110.406L64.3744 110.771C66.7761 112.026 69.211 112.472 71.1533 112.029C72.5625 111.708 73.7055 110.868 74.2929 109.578C75.812 109.571 77.4794 108.927 80.1502 108.78C81.9623 108.634 84.2258 109.424 86.8293 109.279C86.8973 109.561 86.9957 109.833 87.1302 110.091C87.1317 110.093 87.1331 110.096 87.1346 110.099C88.1437 112.117 90.0187 113.04 92.0175 112.882C94.0184 112.724 96.1459 111.545 97.8662 109.498L97.5508 109.233L97.8684 109.495C99.5076 107.507 102.228 106.683 104.033 105.596C104.935 105.052 105.667 104.37 105.724 103.38C105.78 102.392 105.199 101.283 103.864 99.8011Z" fill="#1891CA"/>
<path d="M85.6965 67.6065C85.5062 67.2339 85.1177 66.8795 84.4566 66.6082L84.4551 66.6075L84.4529 66.6068C83.0778 66.0179 82.481 65.976 81.7134 65.4768C80.4641 64.6738 79.4319 64.3924 78.5739 64.3961C78.1247 64.3975 77.7232 64.4771 77.3637 64.6015C76.3184 64.961 75.6246 65.7112 75.1899 66.1228L75.1892 66.1235C75.1892 66.1242 75.1884 66.1242 75.1884 66.125C75.1031 66.206 74.9931 66.2798 74.7269 66.4751C74.4585 66.6711 74.0563 66.9663 73.4776 67.4003C72.9633 67.7859 72.7962 68.2879 72.9741 68.876C73.1514 69.4642 73.7185 70.1427 74.7558 70.7294L74.7573 70.7308L74.7595 70.7315C75.4033 71.1099 75.8431 71.6199 76.348 72.0257C76.6005 72.2282 76.866 72.4091 77.1857 72.5458C77.5055 72.6825 77.8787 72.7751 78.3461 72.8026C79.4427 72.8663 80.25 72.5371 80.9626 72.1291C81.6766 71.7219 82.2812 71.2235 82.975 70.9985L82.9765 70.9978L82.978 70.997C84.4001 70.5529 85.4144 69.658 85.7319 68.808C85.8911 68.3827 85.886 67.979 85.6965 67.6065Z" fill="#34BBFB"/>
<path d="M82.0882 69.7058C80.9567 70.2955 79.6351 71.0108 78.2288 71.0108C76.8233 71.0108 75.7129 70.3612 74.9143 69.7282C74.5149 69.4121 74.1909 69.0974 73.9464 68.8688C73.5221 68.5339 73.5729 68.0643 73.7472 68.0781C74.0394 68.1146 74.0836 68.4993 74.2675 68.6713C74.5164 68.9042 74.8282 69.2059 75.2058 69.5054C75.961 70.1036 76.968 70.686 78.2288 70.686C79.4875 70.686 80.9569 69.947 81.8538 69.4439C82.3619 69.1589 83.0085 68.6479 83.5361 68.2606C83.9398 67.9643 83.9251 67.6074 84.2585 67.6463C84.5918 67.6851 84.3452 68.0413 83.8784 68.4486C83.4116 68.856 82.6813 69.3966 82.0882 69.7058Z" fill="#1891CA"/>
<path d="M99.4134 93.8498C99.2565 93.844 99.1017 93.8448 98.9512 93.8483C98.9375 93.849 98.9237 93.849 98.9092 93.849C99.2977 92.6222 98.4383 91.7172 96.148 90.6813C93.7731 89.6368 91.8807 89.7402 91.561 91.8597C91.5408 91.9704 91.5241 92.0839 91.5118 92.1982C91.3339 92.2605 91.1559 92.3386 90.9765 92.4362C89.8618 93.0468 89.2527 94.1536 88.9141 95.5122C88.5763 96.8693 88.4786 98.5092 88.386 100.353C88.386 100.354 88.386 100.354 88.386 100.355C88.3289 101.281 87.9469 102.536 87.5606 103.864C83.6702 106.639 78.2708 107.842 73.6859 104.712C73.3756 104.221 73.019 103.734 72.6522 103.254C72.4178 102.947 72.1769 102.643 71.9382 102.342C72.4084 102.343 72.8085 102.265 73.1318 102.119C73.534 101.936 73.8162 101.644 73.9565 101.268C74.2357 100.516 73.955 99.4554 73.0602 98.2437C72.1654 97.0328 70.6499 95.6663 68.4233 94.3005C68.4233 94.3005 68.4233 94.3005 68.4233 94.2998C66.7869 93.282 65.8726 92.0348 65.4443 90.6806C65.0154 89.3257 65.0754 87.8608 65.406 86.4148C66.0397 83.6391 67.6673 80.9394 68.7061 79.2452C68.9853 79.0398 68.8059 79.6272 67.6543 81.7655C66.6227 83.7202 64.6934 88.2312 67.3346 91.7528C67.4054 89.2469 68.0037 86.6911 69.0085 84.3003C70.4719 80.9835 73.5326 75.2304 73.7756 70.6455C73.9015 70.7367 74.3319 71.0275 74.5236 71.1367C74.5244 71.1374 74.5244 71.1374 74.5251 71.1374C75.0864 71.468 75.5082 71.9512 76.0543 72.3903C76.6019 72.8302 77.2856 73.21 78.3186 73.27C78.4177 73.2758 78.5146 73.2787 78.6094 73.2787C79.6742 73.2787 80.5047 72.9314 81.1962 72.5357C81.9479 72.1061 82.5482 71.6301 83.1176 71.4449C83.1184 71.4441 83.1191 71.4441 83.1198 71.4441C84.3228 71.068 85.2784 70.4025 85.8223 69.627C86.757 73.3105 88.93 78.6311 90.327 81.2273C91.0699 82.6047 92.547 85.5315 93.1851 89.0581C93.5895 89.0457 94.0351 89.1044 94.5118 89.2265C96.1807 84.8999 93.0968 80.2405 91.6862 78.9428C91.1169 78.3901 91.0894 78.1427 91.3723 78.1543C92.9015 79.5077 94.9103 82.2284 95.641 85.3C95.9744 86.7004 96.0454 88.1733 95.688 89.6266C95.8623 89.6989 96.0403 89.7778 96.2204 89.8632C98.8991 91.1674 99.8894 92.3017 99.4134 93.8498Z" fill="#34BBFB"/>
<path d="M85.8223 63.3631C85.8281 64.093 85.7023 64.7144 85.4252 65.3488C85.2675 65.7105 85.086 66.0143 84.8683 66.2776C84.7944 66.2422 84.7178 66.2082 84.6381 66.1756C84.3625 66.0577 84.1187 65.9608 83.9004 65.8783C83.6818 65.7958 83.5113 65.7395 83.3355 65.6787C83.4628 65.5246 83.7138 65.3431 83.8072 65.1152C83.949 64.7716 84.0184 64.4359 84.0314 64.0359C84.0314 64.02 84.0365 64.0062 84.0365 63.9874C84.0445 63.604 83.9938 63.2763 83.8817 62.9407C83.7645 62.5884 83.6154 62.3352 83.3999 62.1247C83.1836 61.9142 82.968 61.8187 82.7091 61.81C82.6968 61.8093 82.6852 61.8093 82.6729 61.8093C82.4298 61.81 82.2186 61.8939 82.0001 62.0762C81.7708 62.2679 81.6008 62.5131 81.459 62.8546C81.318 63.196 81.2485 63.5346 81.2347 63.9368C81.2326 63.9527 81.2326 63.9664 81.2326 63.9824C81.2276 64.2037 81.242 64.4063 81.276 64.603C80.7783 64.3549 80.1416 64.174 79.7018 64.0691C79.6765 63.8788 79.662 63.6828 79.6576 63.4773V63.4216C79.6497 62.6939 79.769 62.0696 80.049 61.4359C80.329 60.8015 80.6755 60.3458 81.163 59.9747C81.6512 59.6043 82.1309 59.4343 82.6987 59.4285H82.7255C83.2811 59.4285 83.7563 59.592 84.2446 59.9457C84.7401 60.306 85.0975 60.7559 85.3854 61.3853C85.6675 61.9987 85.8035 62.5984 85.8173 63.3095C85.8173 63.3283 85.8173 63.3442 85.8223 63.3631Z" fill="#34BBFB"/>
<path d="M77.4252 64.09C77.3521 64.111 77.2812 64.1334 77.211 64.1573C76.8132 64.2948 76.4973 64.4464 76.192 64.6483C76.2217 64.437 76.226 64.2229 76.2029 63.9835C76.2007 63.9705 76.2007 63.9596 76.2007 63.9466C76.1689 63.629 76.1016 63.3628 75.9895 63.0937C75.8701 62.8137 75.7363 62.6163 75.5605 62.4643C75.4013 62.3269 75.2509 62.2632 75.0845 62.2647C75.0679 62.2647 75.0505 62.2654 75.0331 62.2669C74.8465 62.2828 74.6917 62.3739 74.5448 62.5526C74.3987 62.7306 74.3025 62.9519 74.2331 63.2456C74.1636 63.5386 74.1455 63.8265 74.1745 64.1571C74.1745 64.1701 74.1774 64.181 74.1774 64.194C74.2092 64.5144 74.2736 64.7807 74.3879 65.0498C74.5051 65.3268 74.641 65.5243 74.8168 65.6762C74.8465 65.7015 74.8754 65.7247 74.9044 65.7449C74.7221 65.886 74.5996 65.9861 74.4491 66.096C74.3529 66.1662 74.2386 66.2501 74.1055 66.3485C73.8154 66.0765 73.589 65.735 73.3908 65.2844C73.1564 64.7519 73.0313 64.2188 72.9937 63.5894V63.5844C72.9589 62.955 73.0204 62.4139 73.1933 61.854C73.3669 61.2941 73.5984 60.889 73.9348 60.5563C74.2704 60.2228 74.609 60.0549 75.017 60.034C75.0488 60.0325 75.0799 60.0318 75.111 60.0318C75.4807 60.0325 75.8105 60.1555 76.152 60.4282C76.5224 60.7241 76.8023 61.1024 77.0367 61.6356C77.2718 62.1687 77.397 62.7018 77.4317 63.3312V63.3363C77.4483 63.6003 77.4461 63.8491 77.4252 64.09Z" fill="#34BBFB"/>
<path d="M79.2812 65.5954C79.3279 65.7456 79.57 65.7207 79.7099 65.7927C79.8326 65.8559 79.9313 65.9945 80.0693 65.9985C80.201 66.0023 80.4059 65.9529 80.423 65.8222C80.4457 65.6497 80.1937 65.54 80.0315 65.4768C79.8228 65.3954 79.5555 65.3541 79.3597 65.463C79.3148 65.4879 79.2659 65.5464 79.2812 65.5954V65.5954Z" fill="#1891CA"/>
<path d="M77.8514 65.5954C77.8046 65.7456 77.5626 65.7207 77.4227 65.7927C77.3 65.8559 77.2013 65.9945 77.0633 65.9985C76.9316 66.0023 76.7267 65.9529 76.7095 65.8222C76.6869 65.6497 76.9389 65.54 77.1011 65.4768C77.3098 65.3954 77.5771 65.3541 77.7729 65.463C77.8177 65.4879 77.8667 65.5464 77.8514 65.5954V65.5954Z" fill="#1891CA"/>
</g>
</g>
<defs>
<filter id="filter0_d" x="39" y="26" width="50.6667" height="78" filterUnits="userSpaceOnUse" color-interpolation-filters="sRGB">
<feFlood flood-opacity="0" result="BackgroundImageFix"/>
<feColorMatrix in="SourceAlpha" type="matrix" values="0 0 0 0 0 0 0 0 0 0 0 0 0 0 0 0 0 0 127 0"/>
<feOffset dy="2"/>
<feColorMatrix type="matrix" values="0 0 0 0 0 0 0 0 0 0 0 0 0 0 0 0 0 0 0.16 0"/>
<feBlend mode="normal" in2="BackgroundImageFix" result="effect1_dropShadow"/>
<feBlend mode="normal" in="SourceGraphic" in2="effect1_dropShadow" result="shape"/>
</filter>
<linearGradient id="paint0_linear" x1="12" y1="116" x2="116" y2="116" gradientUnits="userSpaceOnUse">
<stop stop-color="#241F31"/>
<stop offset="0.0384006" stop-color="#615A6C"/>
<stop offset="0.07751" stop-color="#241F31"/>
<stop offset="0.923489" stop-color="#241F31"/>
<stop offset="0.961496" stop-color="#615A6C"/>
<stop offset="1" stop-color="#241F31"/>
</linearGradient>
</defs>
</svg>
