<svg width="128" height="128" viewBox="0 0 128 128" fill="none" xmlns="http://www.w3.org/2000/svg">
<rect x="12" y="16" width="104" height="100" rx="8" fill="url(#paint0_linear_1474_60)"/>
<rect x="12" y="12" width="104" height="100" rx="8" fill="white"/>
<g clip-path="url(#clip0_1474_60)">
<path d="M56.1234 49.1673L72.7079 59.1736L82.5897 54.9836C84.5964 54.109 86.76 53.6588 88.9464 53.6609C89.3113 53.6609 89.6712 53.6776 90.0295 53.7017C86.6448 40.3921 73.1883 32.3713 59.9796 35.7844C54.034 37.3229 48.8706 41.0384 45.497 46.2059C45.5795 46.2059 45.6621 46.2 45.7496 46.2C49.4145 46.1949 53.0078 47.2227 56.1234 49.1673Z" fill="#0364B8"/>
<path d="M56.1243 49.1647C53.0086 47.2201 49.4153 46.1924 45.7504 46.1975C45.6679 46.1975 45.5853 46.2025 45.4978 46.2034C34.5948 46.3423 25.8663 55.3579 26 66.3425C26.0497 70.3277 27.2864 74.2059 29.5499 77.4743L44.1744 71.2737L50.6756 68.5169L65.15 62.3787L72.7095 59.1736L56.1243 49.1647Z" fill="#0F78D4"/>
<path d="M90.0336 53.7034C89.6753 53.6792 89.3154 53.6626 88.9505 53.6626C86.7641 53.6605 84.6005 54.1106 82.5938 54.9852L72.7079 59.1736L75.5733 60.903L84.9664 66.5721L89.0644 69.046L103.077 77.5076C107.281 69.6458 104.363 59.8391 96.5604 55.6041C94.544 54.5099 92.3186 53.8632 90.0336 53.7075V53.7034Z" fill="#1490DF"/>
<path d="M89.0644 69.046L84.9664 66.5721L75.5733 60.903L72.7079 59.1736L65.1483 62.3787L50.674 68.5169L44.1728 71.2737L29.5499 77.4743C31.3671 80.107 33.7895 82.2574 36.6105 83.7421C39.4314 85.2267 42.567 86.0014 45.7496 86H88.9505C91.8467 86.0013 94.6893 85.2125 97.1765 83.7173C99.6637 82.2221 101.703 80.0763 103.077 77.5076L89.0644 69.046Z" fill="#28A8EA"/>
</g>
<defs>
<linearGradient id="paint0_linear_1474_60" x1="12" y1="116" x2="116" y2="116" gradientUnits="userSpaceOnUse">
<stop stop-color="#E1E1E1"/>
<stop offset="0.0384006" stop-color="white"/>
<stop offset="0.07751" stop-color="#E1E1E1"/>
<stop offset="0.923489" stop-color="#E1E1E1"/>
<stop offset="0.961496" stop-color="white"/>
<stop offset="1" stop-color="#E1E1E1"/>
</linearGradient>
<clipPath id="clip0_1474_60">
<rect width="79" height="51" fill="white" transform="translate(26 35)"/>
</clipPath>
</defs>
</svg>
