<svg width="128" height="128" viewBox="0 0 128 128" fill="none" xmlns="http://www.w3.org/2000/svg">
<path d="M108 32H20C15.5817 32 12 35.5817 12 40V108C12 112.418 15.5817 116 20 116H108C112.418 116 116 112.418 116 108V40C116 35.5817 112.418 32 108 32Z" fill="url(#paint0_linear)"/>
<path d="M108 12H20C15.5817 12 12 15.5817 12 20V104C12 108.418 15.5817 112 20 112H108C112.418 112 116 108.418 116 104V20C116 15.5817 112.418 12 108 12Z" fill="#1C71D8"/>
<g filter="url(#filter0_d)">
<path opacity="0.68" d="M86.7637 45.2204C87.5907 39.9474 86.7582 36.3603 83.9063 33.1101C80.7665 29.5326 75.0945 28 67.8374 28H46.7716C45.2887 28 44.0254 29.079 43.7948 30.5447L35.0224 86.1686C34.8498 87.2663 35.6982 88.2583 36.8083 88.2583H49.8134L48.9159 93.9504C48.7647 94.9107 49.5062 95.7784 50.4782 95.7784H61.4405C62.7377 95.7784 63.8422 94.8347 64.0445 93.5527L64.1522 92.9949L66.2171 79.9001L66.3503 79.1766C66.5526 77.8953 67.6572 76.9502 68.9544 76.9502H70.594C81.2138 76.9502 89.5293 72.6361 91.9587 60.1585C92.9742 54.9449 92.4488 50.5928 89.764 47.5331C88.9528 46.6094 87.9421 45.8445 86.7637 45.2204Z" fill="white"/>
<path opacity="0.7" d="M86.7637 45.2204C87.5907 39.9474 86.7582 36.3603 83.9063 33.1101C80.7665 29.5326 75.0945 28 67.8374 28H46.7716C45.2887 28 44.0254 29.079 43.7948 30.5447L35.0224 86.1686C34.8498 87.2663 35.6982 88.2583 36.8083 88.2583H49.8134L53.0802 67.5426L52.9787 68.1922C53.21 66.7273 54.4616 65.6476 55.9452 65.6476H62.1267C74.266 65.6476 83.7716 60.7156 86.5483 46.4527C86.6311 46.0316 86.7009 45.6222 86.7637 45.2204Z" fill="white"/>
<path d="M56.59 45.2901C56.7288 44.4092 57.2948 43.6871 58.0563 43.3226C58.4022 43.1569 58.7895 43.0644 59.1947 43.0644H75.7075C77.664 43.0644 79.4879 43.1928 81.1552 43.4614C81.6315 43.538 82.0954 43.6264 82.5463 43.7265C82.9964 43.8266 83.4341 43.9377 83.8573 44.062C84.0692 44.1234 84.277 44.189 84.482 44.2567C85.3008 44.5287 86.0637 44.849 86.7651 45.2211C87.5921 39.9481 86.7595 36.361 83.9076 33.1108C80.7665 29.5326 75.0945 28 67.8374 28H46.7716C45.2887 28 44.0254 29.079 43.7948 30.5447L35.0224 86.1686C34.8498 87.2663 35.6982 88.2583 36.8083 88.2583H49.8134L53.0802 67.5426L56.59 45.2901Z" fill="white"/>
</g>
<defs>
<filter id="filter0_d" x="35" y="28" width="57.4404" height="69.7784" filterUnits="userSpaceOnUse" color-interpolation-filters="sRGB">
<feFlood flood-opacity="0" result="BackgroundImageFix"/>
<feColorMatrix in="SourceAlpha" type="matrix" values="0 0 0 0 0 0 0 0 0 0 0 0 0 0 0 0 0 0 127 0"/>
<feOffset dy="2"/>
<feColorMatrix type="matrix" values="0 0 0 0 0 0 0 0 0 0 0 0 0 0 0 0 0 0 0.16 0"/>
<feBlend mode="normal" in2="BackgroundImageFix" result="effect1_dropShadow"/>
<feBlend mode="normal" in="SourceGraphic" in2="effect1_dropShadow" result="shape"/>
</filter>
<linearGradient id="paint0_linear" x1="12" y1="64" x2="116" y2="64" gradientUnits="userSpaceOnUse">
<stop stop-color="#165AAC"/>
<stop offset="0.0415667" stop-color="#589AE9"/>
<stop offset="0.0832333" stop-color="#165AAC"/>
<stop offset="0.916667" stop-color="#165AAC"/>
<stop offset="0.958333" stop-color="#589AE9"/>
<stop offset="1" stop-color="#165AAC"/>
</linearGradient>
</defs>
</svg>
