<svg width="128" height="128" viewBox="0 0 128 128" fill="none" xmlns="http://www.w3.org/2000/svg">
<path d="M33 102H122V110C122 114.418 118.418 118 114 118H41C36.5817 118 33 114.418 33 110V102Z" fill="url(#paint0_linear)"/>
<path d="M121.985 64.3193C121.987 64.4811 121.965 64.6423 121.921 64.7979C121.911 64.8734 121.893 64.9475 121.866 65.0187C121.875 65.028 121.865 65.0372 121.856 65.0464C121.84 65.1136 121.816 65.1785 121.784 65.2396C121.745 65.3352 121.699 65.4275 121.645 65.5157C121.426 65.9295 121.086 66.2667 120.67 66.4821L116.399 68.8934L116.03 69.1051L111.483 71.6637L110.434 72.2527L90.6265 83.4442L90.2405 83.6651L82.6926 87.9264L81.7538 88.451L80.8243 88.9756L80.3544 89.2425C80.1978 89.3253 80.0329 89.4173 79.8671 89.5094C79.8487 89.5186 79.8395 89.5278 79.821 89.537C79.4813 89.7162 79.1191 89.8492 78.7441 89.9327H78.7349C78.2811 90.0514 77.8137 90.1102 77.3447 90.1076C76.4823 90.1148 75.6302 89.9193 74.8573 89.537C74.7283 89.4633 74.5993 89.3897 74.4704 89.3253C74.4243 89.2977 74.3782 89.2701 74.323 89.2425L68.414 85.9016L67.6134 85.4506L67.0422 85.1285L66.9225 85.0641L66.4904 84.8156L66.4259 84.7788L66.2325 84.6683L66.0943 84.5855L65.9469 84.5026L65.7626 84.4014L65.5424 84.2818L65.4319 84.2173L65.4042 84.1989L65.1094 84.0333L64.8515 83.886L64.7778 83.8492L64.4471 83.6651L47.7612 74.2407L44.2457 72.2527L43.1954 71.6637L38.6481 69.1051L38.1653 68.829L34.0142 66.4821C33.5997 66.2645 33.2599 65.9279 33.0385 65.5157C32.9852 65.4243 32.939 65.3289 32.9003 65.2304L32.7069 64.3193C32.706 63.8899 32.8187 63.468 33.0338 63.0962C33.2488 62.7244 33.5584 62.4161 33.9312 62.2025L33.9589 62.1749C33.9773 62.1749 33.9957 62.1564 34.0142 62.1564L38.1653 59.8187L38.6527 59.5426L58.2903 48.4524L59.5607 47.7345L64.4489 44.9826L64.7796 44.7894L64.8533 44.7526L65.1113 44.6053L65.4061 44.4396L65.4337 44.4212L65.5443 44.3568L65.7645 44.2372L65.9487 44.1359L66.0961 44.0531L66.2343 43.9795L66.4278 43.869L66.4923 43.8322L66.9243 43.5837L67.0441 43.5193L67.6153 43.1972L68.4158 42.737L74.3248 39.4053C74.5091 39.3041 74.6841 39.2028 74.8591 39.1108C75.6303 38.7294 76.4792 38.531 77.3396 38.531C78.2001 38.531 79.049 38.7294 79.8201 39.1108C80.0044 39.2028 80.1785 39.3041 80.3535 39.4053L90.2396 44.9826L96.3881 48.4524L116.03 59.5426L116.399 59.7543L120.67 62.1564C120.697 62.1564 120.716 62.1749 120.734 62.1749L120.753 62.2025C121.128 62.4142 121.44 62.7218 121.656 63.0939C121.873 63.4659 121.986 63.8889 121.985 64.3193Z" fill="#123B6D"/>
<path d="M90.6772 23.8053H64.8819V47.7345L90.6772 71.6637H116.472V47.7345L90.6772 23.8053Z" fill="#28A8EA"/>
<path d="M90.6772 71.6637V95.5929H64.8819L64.4213 95.2064L64.3568 95.1511V95.1419L64.2738 95.0683L64.108 94.9302L63.7948 94.6633L63.7672 94.6449L63.3618 94.2952L63.3526 94.286L63.2513 94.2032L63.2052 94.1664L63.1591 94.1203L62.6156 93.6602H62.6064L62.4958 93.5589L62.4221 93.4945L62.3761 93.4577L62.2655 93.3656L61.9891 93.1356L61.4364 92.6846L39.0866 74.4156L38.1653 73.6609V47.7345H64.8819L65.4346 48.2499L65.5728 48.3787L65.9782 48.7561L66.2638 49.0138L66.5217 49.2531L66.9547 49.658L67.0745 49.7685L67.6457 50.3023L90.6772 71.6637Z" fill="#0364B8"/>
<path d="M64.8819 71.6637H39.0866V95.5929H64.8819V71.6637Z" fill="#14447D"/>
<path d="M116.472 71.6637H90.6772V95.5929H116.472V71.6637Z" fill="#0078D4"/>
<path d="M116.472 23.8053H90.6772V47.7345H116.472V23.8053Z" fill="#50D9FF"/>
<path d="M64.8819 23.8053H38.1653V47.7345H64.8819V23.8053Z" fill="#0078D4"/>
<path d="M90.6772 47.7345H64.8819V71.6637H90.6772V47.7345Z" fill="#0078D4"/>
<path d="M43.1217 10H111.516C112.167 10 112.811 10.1281 113.413 10.3769C114.014 10.6257 114.561 10.9905 115.021 11.4503C115.481 11.9101 115.846 12.4559 116.095 13.0566C116.344 13.6574 116.472 14.3013 116.472 14.9515V23.8053H38.1653V14.9515C38.1653 14.3013 38.2935 13.6574 38.5426 13.0566C38.7917 12.4559 39.1568 11.9101 39.617 11.4503C40.0773 10.9905 40.6237 10.6257 41.225 10.3769C41.8263 10.1281 42.4708 10 43.1217 10Z" fill="#0358A7"/>
<path opacity="0.16" d="M116.472 65.0639L78.6473 85.5684L78.4705 85.6706C78.411 85.707 78.3495 85.7399 78.2862 85.7691C78.218 85.8013 78.1471 85.8298 78.0771 85.8547L76.8426 85.1635L76.6887 85.0816C76.615 85.0448 76.5404 85.0061 76.4704 84.9619L76.3783 84.9049L68.8866 80.7449L68.2749 80.3997L67.7728 80.1236L66.6673 79.5024L38.1653 63.6732V93.3629H116.472V65.0639Z" fill="#0A2767"/>
<path d="M120.748 66.3643L120.698 66.391L120.686 66.3984L80.3351 88.2706C80.1604 88.3784 79.9799 88.4764 79.7943 88.5642C79.0178 88.9291 78.1702 89.1183 77.312 89.1183C76.4538 89.1183 75.6062 88.9291 74.8297 88.5642C74.6442 88.4762 74.4637 88.3782 74.2889 88.2706L76.1876 101.908L116.408 113.916C117.58 113.921 118.726 113.568 119.691 112.904C120.396 112.428 120.973 111.788 121.375 111.039C121.776 110.29 121.989 109.454 121.994 108.605V64.3212C121.99 64.7423 121.872 65.1544 121.652 65.514C121.433 65.8736 121.121 66.1674 120.748 66.3643Z" fill="#1490DF"/>
<path opacity="0.16" d="M81.9058 87.4597L80.4051 88.2724C80.2302 88.3798 80.0497 88.4778 79.8643 88.566C79.0879 88.9308 78.2405 89.12 77.3825 89.12C76.5244 89.12 75.677 88.9308 74.9006 88.566C74.7152 88.4778 74.5347 88.3798 74.3598 88.2724L76.2585 101.91L116.479 113.918C117.651 113.923 118.797 113.57 119.763 112.906C120.835 112.173 121.601 111.075 121.918 109.817L81.9058 87.4597Z" fill="black"/>
<path d="M119.817 112.859C119.697 112.942 119.577 113.024 119.457 113.098C119.338 113.172 119.209 113.236 119.08 113.301C118.932 113.374 118.785 113.439 118.637 113.503C118.628 113.503 118.619 113.512 118.61 113.512C118.444 113.574 118.278 113.629 118.112 113.678C117.927 113.742 117.736 113.788 117.541 113.816C117.499 113.83 117.456 113.839 117.412 113.844C117.311 113.862 117.209 113.871 117.099 113.88C116.9 113.907 116.7 113.919 116.5 113.917H38.3035C37.5764 113.926 36.8547 113.791 36.1797 113.521C35.5047 113.251 34.8896 112.85 34.3694 112.343C33.8493 111.835 33.4344 111.23 33.1483 110.562C32.8623 109.894 32.7107 109.177 32.7023 108.45V64.3193L33.9736 65.028L33.992 65.0372C34.0012 65.0464 34.0012 65.0464 34.0105 65.0464L38.1653 67.3564L45.9223 71.6637L64.8819 82.1926L65.4346 82.5055L65.5728 82.5791L65.9782 82.8092L66.2638 82.9656L66.5217 83.1037L66.9547 83.3522L67.0745 83.4166L67.6457 83.7295L74.4998 87.5398C74.6749 87.6503 74.8591 87.7515 75.0434 87.8435L77.3281 89.1228L78.7745 89.9327H78.7837L84.9285 93.3657L86.5775 94.286L88.2266 95.2064L88.9175 95.5929L89.8757 96.1267L119.817 112.859Z" fill="#28A8EA"/>
<path opacity="0.16" d="M67.6457 36.6903V91.5618C67.6465 92.1791 67.5309 92.7911 67.3048 93.3657C67.1785 93.6887 67.0179 93.9972 66.8257 94.286C66.6049 94.6275 66.3384 94.9372 66.0335 95.2064C65.8852 95.3451 65.7283 95.4742 65.5636 95.5929C65.2676 95.8046 64.9494 95.9836 64.6147 96.1267C64.0052 96.3826 63.3505 96.5141 62.6893 96.5133H32.6378V92.8319H32.7023V64.3193C32.7014 63.8898 32.8142 63.4678 33.0294 63.096C33.2446 62.7242 33.5545 62.4159 33.9276 62.2025L33.9552 62.1749C33.9736 62.1749 33.992 62.1565 34.0105 62.1565L38.1653 59.8188V31.1682H62.6893C63.4649 31.173 64.224 31.3928 64.8819 31.8032C65.7147 32.3221 66.404 33.0413 66.8868 33.8951C67.3696 34.7488 67.6305 35.7098 67.6457 36.6903Z" fill="black"/>
<path d="M59.9255 32.0885H9.95638C7.21905 32.0885 5 34.3054 5 37.04V86.96C5 89.6946 7.21905 91.9115 9.95638 91.9115H59.9255C62.6628 91.9115 64.8819 89.6946 64.8819 86.96V37.04C64.8819 34.3054 62.6628 32.0885 59.9255 32.0885Z" fill="url(#paint1_linear)"/>
<path d="M21.6205 53.8484C22.7629 51.4193 24.6056 49.3865 26.9122 48.0106C29.4679 46.5492 32.3779 45.8208 35.3214 45.9058C38.0486 45.8464 40.7397 46.5369 43.1006 47.902C45.3218 49.2242 47.1109 51.1624 48.2504 53.4812C49.4904 56.0363 50.1085 58.848 50.0542 61.6871C50.1144 64.6548 49.478 67.5953 48.196 70.2731C47.0314 72.6739 45.1882 74.6813 42.8942 76.0474C40.4415 77.4556 37.6493 78.1648 34.8212 78.0979C32.0356 78.1641 29.2851 77.466 26.8689 76.0796C24.629 74.7553 22.8184 72.8145 21.6536 70.4893C20.4061 67.9707 19.7816 65.1898 19.8323 62.3801C19.7763 59.4378 20.3876 56.5211 21.6205 53.8484ZM27.2595 67.5571C27.8684 69.0931 28.9004 70.4254 30.2361 71.3996C31.5969 72.3503 33.2266 72.8409 34.8866 72.7994C36.6546 72.8686 38.3973 72.3622 39.8522 71.3563C41.1721 70.3818 42.1769 69.042 42.7422 67.5028C43.3762 65.7871 43.6885 63.9695 43.6634 62.1408C43.6836 60.2947 43.3898 58.4586 42.7947 56.7107C42.2696 55.1402 41.302 53.7546 40.0079 52.7201C38.5907 51.6634 36.8524 51.1268 35.0856 51.2006C33.3888 51.1567 31.7217 51.6509 30.3236 52.6124C28.9624 53.5892 27.9078 54.9332 27.2834 56.4871C25.9006 60.0467 25.8928 63.9929 27.2613 67.558L27.2595 67.5571Z" fill="white"/>
<defs>
<linearGradient id="paint0_linear" x1="33" y1="108.095" x2="122" y2="108.095" gradientUnits="userSpaceOnUse">
<stop stop-color="#218BC2"/>
<stop offset="0.0364583" stop-color="#50D9FF"/>
<stop offset="0.0832333" stop-color="#218BC2"/>
<stop offset="0.916667" stop-color="#218BC2"/>
<stop offset="0.958333" stop-color="#50D9FF"/>
<stop offset="1" stop-color="#218BC2"/>
</linearGradient>
<linearGradient id="paint1_linear" x1="15.3973" y1="28.1834" x2="54.4269" y2="95.8498" gradientUnits="userSpaceOnUse">
<stop stop-color="#1784D9"/>
<stop offset="0.5" stop-color="#107AD5"/>
<stop offset="1" stop-color="#0A63C9"/>
</linearGradient>
</defs>
</svg>
