<svg width="128" height="128" viewBox="0 0 128 128" fill="none" xmlns="http://www.w3.org/2000/svg">
<path d="M108 32H20C15.5817 32 12 35.5817 12 40V108C12 112.418 15.5817 116 20 116H108C112.418 116 116 112.418 116 108V40C116 35.5817 112.418 32 108 32Z" fill="url(#paint0_linear)"/>
<path d="M108 12H20C15.5817 12 12 15.5817 12 20V104C12 108.418 15.5817 112 20 112H108C112.418 112 116 108.418 116 104V20C116 15.5817 112.418 12 108 12Z" fill="#FF7800"/>
<g filter="url(#filter0_d)">
<g clip-path="url(#clip0)">
<path d="M26.0676 66.1989C26.2457 65.6273 26.2576 65.0257 26.3803 64.4438C26.5771 63.5104 26.752 62.5718 26.9379 61.6362C26.9524 61.5612 26.9773 61.4877 27.0078 61.4178C27.1403 61.1149 27.3019 60.8457 27.6917 60.8488C28.0795 60.8519 28.2617 61.1082 28.3596 61.4276C28.4895 61.8526 28.593 62.2865 28.6966 62.7193C28.9668 63.8459 29.219 64.975 29.3758 66.1254C29.4918 66.9754 29.3644 67.8064 29.2402 68.6347C28.9917 70.2956 28.7012 71.9507 28.4263 73.6079C28.3891 73.8336 28.3528 74.0604 28.2322 74.2628C27.9578 74.7236 27.4349 74.7272 27.159 74.2664C27.0668 74.1122 27.0197 73.9418 26.9917 73.7632C26.6739 71.7379 26.3503 69.7136 26.1458 67.6723C26.137 67.5848 26.1396 67.4921 26.0676 67.4238V66.1989Z" fill="white"/>
<path d="M63.6407 61.9057C63.6407 57.2872 63.6458 52.6681 63.6365 48.0491C63.6345 46.9919 64.0652 46.2324 64.9888 45.7033C66.499 44.8377 68.1401 44.4028 69.8434 44.1812C72.6256 43.8188 75.3814 43.9674 78.0332 44.9247C83.9714 47.068 87.7781 51.1988 89.3986 57.3115C89.4778 57.6097 89.5554 57.6925 89.8743 57.6118C95.4755 56.1922 101.311 59.9353 102.453 65.6126C103.622 71.425 99.7943 76.5312 94.3899 77.8187C93.4559 78.0414 92.5049 78.1268 91.545 78.1268C83.0674 78.1257 74.5898 78.1123 66.1122 78.1387C64.6041 78.1433 63.6096 77.1488 63.6246 75.6474C63.6691 71.0672 63.6407 66.4865 63.6407 61.9057Z" fill="white"/>
<path d="M57.6427 66.8096C57.7276 64.7341 57.8425 62.6606 58.0009 60.5898C58.1438 58.7224 58.2696 56.8534 58.411 54.9855C58.5347 53.3594 58.6631 51.7337 58.8024 50.1086C58.8433 49.6282 59.246 49.2896 59.7109 49.2958C60.1759 49.302 60.5615 49.6494 60.6035 50.1262C60.8142 52.5253 61.0259 54.9239 61.2237 57.324C61.4272 59.8003 61.6058 62.2786 61.8118 64.7543C61.9656 66.6056 61.8507 68.4425 61.626 70.2824C61.3298 72.71 60.9866 75.1308 60.6107 77.5475C60.5294 78.0684 60.2421 78.3044 59.6861 78.2998C59.1332 78.2956 58.8671 78.0497 58.7884 77.5191C58.4819 75.4394 58.2075 73.3566 57.9756 71.2677C57.8109 69.7865 57.6794 68.3011 57.6427 66.8096Z" fill="white"/>
<path d="M46.8506 66.9797C46.9049 64.8411 47.0328 62.8712 47.1995 60.9033C47.3636 58.9743 47.5221 57.0443 47.6872 55.1153C47.7612 54.2522 47.843 53.3897 47.9285 52.5277C47.988 51.9235 48.3219 51.5736 48.8205 51.573C49.2989 51.573 49.6411 51.907 49.7037 52.4956C49.8497 53.8639 49.9791 55.2333 50.1086 56.6032C50.2836 58.454 50.4679 60.3043 50.618 62.1577C50.7448 63.7187 50.8898 65.2827 50.9136 66.8472C50.9359 68.3232 50.7283 69.7951 50.5409 71.2607C50.283 73.2809 49.9952 75.2974 49.7249 77.3164C49.6312 78.018 49.3315 78.3291 48.7532 78.2986C48.3281 78.2763 48.0413 78.048 47.972 77.6022C47.8115 76.5704 47.6691 75.536 47.5329 74.5011C47.2943 72.6824 47.0877 70.86 46.9552 69.0304C46.9018 68.2937 46.8791 67.5549 46.8506 66.9797Z" fill="white"/>
<path d="M52.2934 66.9616C52.3483 65.2117 52.4834 63.5731 52.6201 61.9356C52.7526 60.3488 52.9012 58.763 53.0472 57.1773C53.1518 56.0357 53.2564 54.8936 53.3744 53.7536C53.4319 53.2033 53.8181 52.816 54.2649 52.8197C54.7117 52.8233 55.0969 53.2199 55.1528 53.7619C55.4194 56.3339 55.6767 58.907 55.9433 61.4795C56.1173 63.1522 56.2917 64.8265 56.3565 66.5065C56.417 68.0638 56.1685 69.6076 55.9832 71.1499C55.7331 73.2233 55.4365 75.2906 55.1647 77.3614C55.0798 78.0107 54.7904 78.3114 54.2343 78.2995C53.7855 78.2902 53.4738 78.0567 53.4122 77.6079C53.2269 76.2582 53.0508 74.9064 52.8981 73.5526C52.7138 71.9203 52.5497 70.2848 52.3918 68.6493C52.3348 68.054 52.3209 67.4544 52.2934 66.9616Z" fill="white"/>
<path d="M45.6503 66.823C45.6011 68.2131 45.437 69.5933 45.2599 70.9699C44.9803 73.1428 44.6676 75.311 44.3689 77.4807C44.2949 78.0202 44.0127 78.2982 43.5385 78.2997C43.0301 78.3018 42.6946 77.9964 42.6216 77.4683C42.2204 74.552 41.8818 71.6295 41.6509 68.6946C41.5158 66.9737 41.6193 65.258 41.755 63.5412C41.9134 61.534 42.1153 59.531 42.3229 57.5285C42.4254 56.5402 42.5279 55.5518 42.6491 54.5656C42.7205 53.9832 43.1109 53.6182 43.5856 53.642C44.0298 53.6642 44.3803 54.0712 44.4404 54.6153C44.7122 57.0718 45 59.5269 45.2573 61.9845C45.4256 63.594 45.5918 65.2041 45.6503 66.823Z" fill="white"/>
<path d="M40.0714 66.8208C39.9876 68.3837 39.8276 69.9167 39.6521 71.4481C39.4429 73.2699 39.2193 75.0897 39.0024 76.9105C38.9765 77.1259 38.9537 77.3412 38.9195 77.5545C38.8543 77.9666 38.4929 78.3001 38.1217 78.2985C37.7303 78.2975 37.3917 77.9977 37.3363 77.5545C37.1784 76.2779 37.0216 75.0007 36.8906 73.7214C36.7099 71.9596 36.5391 70.1973 36.3936 68.4324C36.2642 66.8575 36.3537 65.2997 36.6074 63.7481C36.8109 62.5051 37.0485 61.2672 37.2732 60.0278C37.3705 59.4904 37.6698 59.185 38.1 59.1725C38.4914 59.1606 38.8305 59.4216 38.9304 59.8797C39.4176 62.1059 39.8949 64.3342 40.0621 66.6147C40.0678 66.6908 40.0694 66.7674 40.0714 66.8208Z" fill="white"/>
<path d="M30.975 66.411C30.9962 64.8387 31.2567 63.2917 31.4819 61.7412C31.6242 60.7591 31.7899 59.7796 31.9582 58.8011C32.0498 58.272 32.2615 58.0866 32.7275 58.0783C33.2504 58.069 33.4854 58.2471 33.5895 58.7959C33.9234 60.5598 34.1771 62.3381 34.4934 64.1046C34.8584 66.1392 34.5938 68.1427 34.3526 70.1535C34.101 72.2529 33.839 74.3512 33.575 76.4495C33.5123 76.9496 33.1898 77.2623 32.771 77.2633C32.3516 77.2649 32.0296 76.9486 31.968 76.451C31.6512 73.8713 31.3576 71.2889 31.1288 68.6993C31.0615 67.9377 30.9683 67.1782 30.975 66.411Z" fill="white"/>
</g>
</g>
<defs>
<filter id="filter0_d" x="26.0676" y="44" width="76.5966" height="36.3006" filterUnits="userSpaceOnUse" color-interpolation-filters="sRGB">
<feFlood flood-opacity="0" result="BackgroundImageFix"/>
<feColorMatrix in="SourceAlpha" type="matrix" values="0 0 0 0 0 0 0 0 0 0 0 0 0 0 0 0 0 0 127 0"/>
<feOffset dy="2"/>
<feColorMatrix type="matrix" values="0 0 0 0 0 0 0 0 0 0 0 0 0 0 0 0 0 0 0.16 0"/>
<feBlend mode="normal" in2="BackgroundImageFix" result="effect1_dropShadow"/>
<feBlend mode="normal" in="SourceGraphic" in2="effect1_dropShadow" result="shape"/>
</filter>
<linearGradient id="paint0_linear" x1="12" y1="64" x2="116" y2="64" gradientUnits="userSpaceOnUse">
<stop stop-color="#CC6000"/>
<stop offset="0.046875" stop-color="#FFA348"/>
<stop offset="0.0989583" stop-color="#CC6000"/>
<stop offset="0.916667" stop-color="#CC6000"/>
<stop offset="0.958333" stop-color="#FFA348"/>
<stop offset="1" stop-color="#CC6000"/>
</linearGradient>
<clipPath id="clip0">
<rect width="76.5966" height="34.3006" fill="white" transform="translate(26.0676 44)"/>
</clipPath>
</defs>
</svg>
