<svg width="128" height="128" viewBox="0 0 128 128" fill="none" xmlns="http://www.w3.org/2000/svg">
<path d="M108 32H20C15.5817 32 12 35.5817 12 40V108C12 112.418 15.5817 116 20 116H108C112.418 116 116 112.418 116 108V40C116 35.5817 112.418 32 108 32Z" fill="url(#paint0_linear)"/>
<path d="M108 12H20C15.5817 12 12 15.5817 12 20V104C12 108.418 15.5817 112 20 112H108C112.418 112 116 108.418 116 104V20C116 15.5817 112.418 12 108 12Z" fill="#FF7800"/>
<g filter="url(#filter0_d)">
<g clip-path="url(#clip0)">
<path d="M26.0676 67.1989C26.2457 66.6273 26.2576 66.0257 26.3803 65.4438C26.5771 64.5104 26.752 63.5718 26.9379 62.6362C26.9524 62.5612 26.9773 62.4877 27.0078 62.4178C27.1403 62.1149 27.3019 61.8457 27.6917 61.8488C28.0795 61.8519 28.2617 62.1082 28.3596 62.4276C28.4895 62.8526 28.593 63.2865 28.6966 63.7193C28.9668 64.8459 29.219 65.975 29.3758 67.1254C29.4918 67.9754 29.3644 68.8064 29.2402 69.6347C28.9917 71.2956 28.7012 72.9507 28.4263 74.6079C28.3891 74.8336 28.3528 75.0604 28.2322 75.2628C27.9578 75.7236 27.4349 75.7272 27.159 75.2664C27.0668 75.1122 27.0197 74.9418 26.9917 74.7632C26.6739 72.7379 26.3503 70.7136 26.1458 68.6723C26.137 68.5848 26.1396 68.4921 26.0676 68.4238V67.1989Z" fill="white"/>
<path d="M63.6407 62.9057C63.6407 58.2872 63.6459 53.6681 63.6366 49.0491C63.6345 47.9919 64.0653 47.2324 64.9889 46.7033C66.499 45.8377 68.1402 45.4028 69.8435 45.1812C72.6257 44.8188 75.3815 44.9674 78.0332 45.9247C83.9714 48.068 87.7782 52.1988 89.3986 58.3115C89.4778 58.6097 89.5555 58.6925 89.8744 58.6118C95.4756 57.1922 101.311 60.9353 102.453 66.6126C103.622 72.425 99.7943 77.5312 94.3899 78.8187C93.456 79.0414 92.5049 79.1268 91.5451 79.1268C83.0675 79.1257 74.5899 79.1123 66.1123 79.1387C64.6042 79.1433 63.6097 78.1488 63.6247 76.6474C63.6692 72.0672 63.6407 67.4865 63.6407 62.9057Z" fill="white"/>
<path d="M57.6427 67.8096C57.7276 65.7341 57.8425 63.6606 58.001 61.5898C58.1438 59.7224 58.2697 57.8534 58.411 55.9855C58.5347 54.3594 58.6631 52.7337 58.8024 51.1086C58.8433 50.6282 59.2461 50.2896 59.711 50.2958C60.1759 50.302 60.5616 50.6494 60.6035 51.1262C60.8142 53.5253 61.026 55.9239 61.2237 58.324C61.4272 60.8003 61.6058 63.2786 61.8119 65.7543C61.9656 67.6056 61.8507 69.4425 61.626 71.2824C61.3299 73.71 60.9866 76.1308 60.6108 78.5475C60.5295 79.0684 60.2421 79.3044 59.6861 79.2998C59.1332 79.2956 58.8671 79.0497 58.7884 78.5191C58.4819 76.4394 58.2075 74.3566 57.9756 72.2677C57.811 70.7865 57.6795 69.3011 57.6427 67.8096Z" fill="white"/>
<path d="M46.8506 67.9797C46.9049 65.8411 47.0328 63.8712 47.1995 61.9033C47.3636 59.9743 47.5221 58.0443 47.6872 56.1153C47.7612 55.2522 47.843 54.3897 47.9285 53.5277C47.988 52.9235 48.3219 52.5736 48.8205 52.573C49.2989 52.573 49.6411 52.907 49.7037 53.4956C49.8497 54.8639 49.9791 56.2333 50.1086 57.6032C50.2836 59.454 50.4679 61.3043 50.618 63.1577C50.7448 64.7187 50.8898 66.2827 50.9136 67.8472C50.9359 69.3232 50.7283 70.7951 50.5409 72.2607C50.283 74.2809 49.9952 76.2974 49.7249 78.3164C49.6312 79.018 49.3315 79.3291 48.7532 79.2986C48.3281 79.2763 48.0413 79.048 47.972 78.6022C47.8115 77.5704 47.6691 76.536 47.5329 75.5011C47.2943 73.6824 47.0877 71.86 46.9552 70.0304C46.9018 69.2937 46.8791 68.5549 46.8506 67.9797Z" fill="white"/>
<path d="M52.2935 67.9616C52.3483 66.2117 52.4835 64.5731 52.6201 62.9356C52.7527 61.3488 52.9013 59.763 53.0473 58.1773C53.1518 57.0357 53.2564 55.8936 53.3744 54.7536C53.4319 54.2033 53.8181 53.816 54.2649 53.8197C54.7117 53.8233 55.0969 54.2199 55.1528 54.7619C55.4194 57.3339 55.6767 59.907 55.9434 62.4795C56.1173 64.1522 56.2918 65.8265 56.3565 67.5065C56.4171 69.0638 56.1686 70.6076 55.9832 72.1499C55.7332 74.2233 55.4365 76.2906 55.1647 78.3614C55.0798 79.0107 54.7904 79.3114 54.2344 79.2995C53.7855 79.2902 53.4738 79.0567 53.4122 78.6079C53.2269 77.2582 53.0509 75.9064 52.8981 74.5526C52.7138 72.9203 52.5497 71.2848 52.3918 69.6493C52.3349 69.054 52.3209 68.4544 52.2935 67.9616Z" fill="white"/>
<path d="M45.6502 67.823C45.601 69.2131 45.4369 70.5933 45.2599 71.9699C44.9803 74.1428 44.6676 76.311 44.3689 78.4807C44.2948 79.0202 44.0127 79.2982 43.5385 79.2997C43.0301 79.3018 42.6946 78.9964 42.6216 78.4683C42.2204 75.552 41.8818 72.6295 41.6509 69.6946C41.5157 67.9737 41.6193 66.258 41.7549 64.5412C41.9134 62.534 42.1153 60.531 42.3229 58.5285C42.4254 57.5402 42.5279 56.5518 42.649 55.5656C42.7205 54.9832 43.1108 54.6182 43.5856 54.642C44.0298 54.6642 44.3803 55.0712 44.4403 55.6153C44.7121 58.0718 45 60.5269 45.2573 62.9845C45.4255 64.594 45.5917 66.2041 45.6502 67.823Z" fill="white"/>
<path d="M40.0714 67.8208C39.9876 69.3837 39.8276 70.9167 39.6521 72.4481C39.4429 74.2699 39.2193 76.0897 39.0024 77.9105C38.9765 78.1259 38.9537 78.3412 38.9195 78.5545C38.8543 78.9666 38.4929 79.3001 38.1217 79.2985C37.7303 79.2975 37.3917 78.9977 37.3363 78.5545C37.1784 77.2779 37.0216 76.0007 36.8906 74.7214C36.7099 72.9596 36.5391 71.1973 36.3936 69.4324C36.2642 67.8575 36.3537 66.2997 36.6074 64.7481C36.8109 63.5051 37.0485 62.2672 37.2732 61.0278C37.3705 60.4904 37.6698 60.185 38.1 60.1725C38.4914 60.1606 38.8305 60.4216 38.9304 60.8797C39.4176 63.1059 39.8949 65.3342 40.0621 67.6147C40.0678 67.6908 40.0694 67.7674 40.0714 67.8208Z" fill="white"/>
<path d="M30.9751 67.411C30.9963 65.8387 31.2567 64.2917 31.4819 62.7412C31.6243 61.7591 31.79 60.7796 31.9582 59.8011C32.0499 59.272 32.2616 59.0866 32.7275 59.0783C33.2504 59.069 33.4855 59.2471 33.5895 59.7959C33.9235 61.5598 34.1771 63.3381 34.4935 65.1046C34.8585 67.1392 34.5939 69.1427 34.3527 71.1535C34.101 73.2529 33.8391 75.3512 33.575 77.4495C33.5124 77.9496 33.1899 78.2623 32.771 78.2633C32.3517 78.2649 32.0297 77.9486 31.9681 77.451C31.6512 74.8713 31.3577 72.2889 31.1288 69.6993C31.0615 68.9377 30.9683 68.1782 30.9751 67.411Z" fill="white"/>
</g>
</g>
<defs>
<filter id="filter0_d" x="26.0676" y="43" width="76.5966" height="36.3006" filterUnits="userSpaceOnUse" color-interpolation-filters="sRGB">
<feFlood flood-opacity="0" result="BackgroundImageFix"/>
<feColorMatrix in="SourceAlpha" type="matrix" values="0 0 0 0 0 0 0 0 0 0 0 0 0 0 0 0 0 0 127 0"/>
<feOffset dy="-2"/>
<feColorMatrix type="matrix" values="0 0 0 0 0 0 0 0 0 0 0 0 0 0 0 0 0 0 0.16 0"/>
<feBlend mode="normal" in2="BackgroundImageFix" result="effect1_dropShadow"/>
<feBlend mode="normal" in="SourceGraphic" in2="effect1_dropShadow" result="shape"/>
</filter>
<linearGradient id="paint0_linear" x1="12" y1="64" x2="116" y2="64" gradientUnits="userSpaceOnUse">
<stop stop-color="#E66100"/>
<stop offset="0.046875" stop-color="#FFA348"/>
<stop offset="0.0989583" stop-color="#E66100"/>
<stop offset="0.916667" stop-color="#E66100"/>
<stop offset="0.958333" stop-color="#FFA348"/>
<stop offset="1" stop-color="#E66100"/>
</linearGradient>
<clipPath id="clip0">
<rect width="76.5966" height="34.3006" fill="white" transform="translate(26.0676 45)"/>
</clipPath>
</defs>
</svg>
