<svg width="128" height="128" viewBox="0 0 128 128" fill="none" xmlns="http://www.w3.org/2000/svg">
<circle cx="64.5" cy="61.5" r="56.5" fill="#342356"/>
<path d="M111.915 27.55C106.574 20.4658 99.7086 14.6726 91.8272 10.5987C83.9457 6.52474 75.2493 4.27423 66.381 4.01351C52.449 3.73451 42.825 7.92101 37.38 11.287C44.6655 7.06151 55.209 4.66451 64.44 4.78301C88.185 5.08301 113.688 21.2545 117.476 50.4025C121.826 83.8615 98.52 111.787 65.736 111.873C29.6685 111.964 7.73103 80.029 13.4655 51.3445C13.5722 49.938 13.7792 48.541 14.085 47.164C14.7926 39.8124 16.9291 32.6697 20.3745 26.137C16.221 28.2865 10.932 35.0845 8.32203 41.3815C4.52269 50.9891 3.18315 61.3934 4.42503 71.65C4.51503 72.427 4.59603 73.2025 4.69803 73.9735C6.25338 82.9295 9.82024 91.4159 15.1301 98.7938C20.4399 106.172 27.3543 112.249 35.3527 116.568C43.3511 120.887 52.2251 123.335 61.3066 123.728C70.3882 124.121 79.4405 122.449 87.7821 118.837C96.1238 115.225 103.537 109.768 109.465 102.876C115.392 95.9846 119.679 87.8381 122.002 79.05C124.325 70.2619 124.624 61.0612 122.877 52.1407C121.13 43.2202 117.382 34.8123 111.915 27.55V27.55Z" fill="url(#paint0_radial)"/>
<path opacity="0.67" d="M111.915 27.55C106.574 20.4658 99.7086 14.6726 91.8272 10.5987C83.9457 6.52474 75.2493 4.27423 66.381 4.01351C52.449 3.73451 42.825 7.92101 37.38 11.287C44.6655 7.06151 55.209 4.66451 64.44 4.78301C88.185 5.08301 113.688 21.2545 117.476 50.4025C121.826 83.8615 98.52 111.787 65.736 111.873C29.6685 111.964 7.73103 80.029 13.4655 51.3445C13.5722 49.938 13.7792 48.541 14.085 47.164C14.7926 39.8124 16.9291 32.6697 20.3745 26.137C16.221 28.2865 10.932 35.0845 8.32203 41.3815C4.52269 50.9891 3.18315 61.3934 4.42503 71.65C4.51503 72.427 4.59603 73.2025 4.69803 73.9735C6.25338 82.9295 9.82024 91.4159 15.1301 98.7938C20.4399 106.172 27.3543 112.249 35.3527 116.568C43.3511 120.887 52.2251 123.335 61.3066 123.728C70.3882 124.121 79.4405 122.449 87.7821 118.837C96.1238 115.225 103.537 109.768 109.465 102.876C115.392 95.9846 119.679 87.8381 122.002 79.05C124.325 70.2619 124.624 61.0612 122.877 52.1407C121.13 43.2202 117.382 34.8123 111.915 27.55V27.55Z" fill="url(#paint1_radial)"/>
<path d="M111.915 27.55C106.574 20.4658 99.7086 14.6726 91.8272 10.5987C83.9457 6.52474 75.2493 4.27423 66.381 4.01351C52.449 3.73451 42.825 7.92101 37.38 11.287C44.6655 7.06151 55.209 4.66451 64.44 4.78301C88.185 5.08301 113.688 21.2545 117.476 50.4025C121.826 83.8615 98.52 111.787 65.736 111.873C29.6685 111.964 7.73103 80.029 13.4655 51.3445C13.5722 49.938 13.7792 48.541 14.085 47.164C14.7926 39.8124 16.9291 32.6697 20.3745 26.137C16.221 28.2865 10.932 35.0845 8.32203 41.3815C4.52269 50.9891 3.18315 61.3934 4.42503 71.65C4.51503 72.427 4.59603 73.2025 4.69803 73.9735C6.25338 82.9295 9.82024 91.4159 15.1301 98.7938C20.4399 106.172 27.3543 112.249 35.3527 116.568C43.3511 120.887 52.2251 123.335 61.3066 123.728C70.3882 124.121 79.4405 122.449 87.7821 118.837C96.1238 115.225 103.537 109.768 109.465 102.876C115.392 95.9846 119.679 87.8381 122.002 79.05C124.325 70.2619 124.624 61.0612 122.877 52.1407C121.13 43.2202 117.382 34.8123 111.915 27.55V27.55Z" fill="url(#paint2_radial)"/>
<path d="M111.915 27.55C106.574 20.4658 99.7086 14.6726 91.8272 10.5987C83.9457 6.52474 75.2493 4.27423 66.381 4.01351C52.449 3.73451 42.825 7.92101 37.38 11.287C44.6655 7.06151 55.209 4.66451 64.44 4.78301C88.185 5.08301 113.688 21.2545 117.476 50.4025C121.826 83.8615 98.52 111.787 65.736 111.873C29.6685 111.964 7.73103 80.029 13.4655 51.3445C13.5722 49.938 13.7792 48.541 14.085 47.164C14.7926 39.8124 16.9291 32.6697 20.3745 26.137C16.221 28.2865 10.932 35.0845 8.32203 41.3815C4.52269 50.9891 3.18315 61.3934 4.42503 71.65C4.51503 72.427 4.59603 73.2025 4.69803 73.9735C6.25338 82.9295 9.82024 91.4159 15.1301 98.7938C20.4399 106.172 27.3543 112.249 35.3527 116.568C43.3511 120.887 52.2251 123.335 61.3066 123.728C70.3882 124.121 79.4405 122.449 87.7821 118.837C96.1238 115.225 103.537 109.768 109.465 102.876C115.392 95.9846 119.679 87.8381 122.002 79.05C124.325 70.2619 124.624 61.0612 122.877 52.1407C121.13 43.2202 117.382 34.8123 111.915 27.55V27.55Z" fill="url(#paint3_radial)"/>
<path d="M111.915 27.55C106.574 20.4658 99.7086 14.6726 91.8272 10.5987C83.9457 6.52474 75.2493 4.27423 66.381 4.01351C52.449 3.73451 42.825 7.92101 37.38 11.287C44.6655 7.06151 55.209 4.66451 64.44 4.78301C88.185 5.08301 113.688 21.2545 117.476 50.4025C121.826 83.8615 98.52 111.787 65.736 111.873C29.6685 111.964 7.73103 80.029 13.4655 51.3445C13.5722 49.938 13.7792 48.541 14.085 47.164C14.7926 39.8124 16.9291 32.6697 20.3745 26.137C16.221 28.2865 10.932 35.0845 8.32203 41.3815C4.52269 50.9891 3.18315 61.3934 4.42503 71.65C4.51503 72.427 4.59603 73.2025 4.69803 73.9735C6.25338 82.9295 9.82024 91.4159 15.1301 98.7938C20.4399 106.172 27.3543 112.249 35.3527 116.568C43.3511 120.887 52.2251 123.335 61.3066 123.728C70.3882 124.121 79.4405 122.449 87.7821 118.837C96.1238 115.225 103.537 109.768 109.465 102.876C115.392 95.9846 119.679 87.8381 122.002 79.05C124.325 70.2619 124.624 61.0612 122.877 52.1407C121.13 43.2202 117.382 34.8123 111.915 27.55V27.55Z" fill="url(#paint4_radial)"/>
<path d="M117.477 50.4025C117.947 54.0056 118.098 57.6433 117.926 61.273C119.916 60.973 121.91 60.708 123.907 60.478C123.275 48.5535 119.1 37.0887 111.916 27.55C106.575 20.4658 99.7096 14.6726 91.8281 10.5987C83.9466 6.52474 75.2503 4.27423 66.382 4.01351C52.45 3.73451 42.826 7.92101 37.381 11.287C44.6665 7.06151 55.21 4.66451 64.441 4.78301C88.186 5.08601 113.689 21.25 117.477 50.4025Z" fill="url(#paint5_linear)"/>
<path d="M118.937 48.739C115.561 18.277 88.3945 4.585 64.441 4.783C55.2085 4.858 44.6665 7.0615 37.381 11.287C35.4532 12.4301 33.6617 13.7889 32.041 15.337C32.2345 15.1765 32.812 14.701 33.769 14.044L33.8635 13.9795L33.9475 13.9225C37.4829 11.5322 41.3782 9.72328 45.4855 8.5645C51.9198 6.786 58.5889 6.00542 65.26 6.25C77.6412 6.98936 89.3029 12.315 97.9697 21.1879C106.637 30.0608 111.687 41.8443 112.135 54.2395C112.685 74.05 96.472 89.845 77.782 90.76C64.189 91.426 51.382 84.8485 45.127 71.6905C43.6637 68.6938 42.6701 65.4898 42.181 62.191C39.217 42.166 52.6645 25.0885 64.996 20.86C58.3435 15.049 41.674 15.4435 29.2675 24.571C20.3335 31.144 14.5375 41.1445 12.6175 53.071C11.2362 62.2221 12.4523 71.5772 16.1275 80.071C19.9449 89.0784 26.1831 96.8522 34.15 102.53C42.1169 108.207 51.5009 111.567 61.261 112.235C62.75 112.349 64.242 112.406 65.737 112.405C105.43 112.405 122.65 82.2745 118.937 48.739V48.739Z" fill="url(#paint6_radial)"/>
<path d="M118.937 48.739C115.561 18.277 88.3945 4.585 64.441 4.783C55.2085 4.858 44.6665 7.0615 37.381 11.287C35.4532 12.4301 33.6617 13.7889 32.041 15.337C32.2345 15.1765 32.812 14.701 33.769 14.044L33.8635 13.9795L33.9475 13.9225C37.4829 11.5322 41.3782 9.72328 45.4855 8.5645C51.9198 6.786 58.5889 6.00542 65.26 6.25C77.6412 6.98936 89.3029 12.315 97.9697 21.1879C106.637 30.0608 111.687 41.8443 112.135 54.2395C112.685 74.05 96.472 89.845 77.782 90.76C64.189 91.426 51.382 84.8485 45.127 71.6905C43.6637 68.6938 42.6701 65.4898 42.181 62.191C39.217 42.166 52.6645 25.0885 64.996 20.86C58.3435 15.049 41.674 15.4435 29.2675 24.571C20.3335 31.144 14.5375 41.1445 12.6175 53.071C11.2362 62.2221 12.4523 71.5772 16.1275 80.071C19.9449 89.0784 26.1831 96.8522 34.15 102.53C42.1169 108.207 51.5009 111.567 61.261 112.235C62.75 112.349 64.242 112.406 65.737 112.405C105.43 112.405 122.65 82.2745 118.937 48.739V48.739Z" fill="url(#paint7_radial)"/>
<path style="mix-blend-mode:multiply" opacity="0.53" d="M118.937 48.739C115.561 18.277 88.3945 4.585 64.441 4.783C55.2085 4.858 44.6665 7.0615 37.381 11.287C35.4532 12.4301 33.6617 13.7889 32.041 15.337C32.2345 15.1765 32.812 14.701 33.769 14.044L33.8635 13.9795L33.9475 13.9225C37.4829 11.5322 41.3782 9.72328 45.4855 8.5645C51.9198 6.786 58.5889 6.00542 65.26 6.25C77.6412 6.98936 89.3029 12.315 97.9697 21.1879C106.637 30.0608 111.687 41.8443 112.135 54.2395C112.685 74.05 96.472 89.845 77.782 90.76C64.189 91.426 51.382 84.8485 45.127 71.6905C43.6637 68.6938 42.6701 65.4898 42.181 62.191C39.217 42.166 52.6645 25.0885 64.996 20.86C58.3435 15.049 41.674 15.4435 29.2675 24.571C20.3335 31.144 14.5375 41.1445 12.6175 53.071C11.2362 62.2221 12.4523 71.5772 16.1275 80.071C19.9449 89.0784 26.1831 96.8522 34.15 102.53C42.1169 108.207 51.5009 111.567 61.261 112.235C62.75 112.349 64.242 112.406 65.737 112.405C105.43 112.405 122.65 82.2745 118.937 48.739V48.739Z" fill="url(#paint8_radial)"/>
<path style="mix-blend-mode:multiply" opacity="0.53" d="M118.937 48.739C115.561 18.277 88.3945 4.585 64.441 4.783C55.2085 4.858 44.6665 7.0615 37.381 11.287C35.4532 12.4301 33.6617 13.7889 32.041 15.337C32.2345 15.1765 32.812 14.701 33.769 14.044L33.8635 13.9795L33.9475 13.9225C37.4829 11.5322 41.3782 9.72328 45.4855 8.5645C51.9198 6.786 58.5889 6.00542 65.26 6.25C77.6412 6.98936 89.3029 12.315 97.9697 21.1879C106.637 30.0608 111.687 41.8443 112.135 54.2395C112.685 74.05 96.472 89.845 77.782 90.76C64.189 91.426 51.382 84.8485 45.127 71.6905C43.6637 68.6938 42.6701 65.4898 42.181 62.191C39.217 42.166 52.6645 25.0885 64.996 20.86C58.3435 15.049 41.674 15.4435 29.2675 24.571C20.3335 31.144 14.5375 41.1445 12.6175 53.071C11.2362 62.2221 12.4523 71.5772 16.1275 80.071C19.9449 89.0784 26.1831 96.8522 34.15 102.53C42.1169 108.207 51.5009 111.567 61.261 112.235C62.75 112.349 64.242 112.406 65.737 112.405C105.43 112.405 122.65 82.2745 118.937 48.739V48.739Z" fill="url(#paint9_radial)"/>
<path d="M77.782 90.76C103.432 89.2 114.412 67.96 115.1 52.8925C116.174 29.35 102.208 3.96999 65.26 6.24999C58.5887 6.00687 51.9196 6.78898 45.4855 8.56899C41.3966 9.77696 37.5086 11.5825 33.9475 13.927L33.8635 13.984L33.769 14.0485C33.195 14.4485 32.6335 14.8695 32.0845 15.3115C41.6481 9.96374 52.6983 7.89035 63.55 9.40749C84.763 12.1915 104.158 28.693 104.158 50.467C104.158 67.2205 91.2115 80.017 76.051 79.0975C53.5285 77.7475 47.851 54.6475 59.5675 44.6665C56.4085 43.987 50.4715 45.319 46.3375 51.499C42.628 57.049 42.838 65.614 45.127 71.6905C47.9801 77.8166 52.636 82.9253 58.4717 86.3331C64.3074 89.741 71.0446 91.2855 77.782 90.76V90.76Z" fill="url(#paint10_radial)"/>
<path d="M111.916 27.55C110.309 25.4458 108.564 23.4505 106.693 21.577C105.207 20.0062 103.615 18.5397 101.928 17.188C102.899 18.0336 103.824 18.9298 104.701 19.873C107.984 23.3768 110.481 27.5418 112.024 32.089C115.158 41.5825 114.954 53.464 108.97 62.7955C105.648 68.0245 101.008 72.2873 95.5172 75.1558C90.0262 78.0244 83.8772 79.3978 77.6875 79.138C77.146 79.138 76.6 79.138 76.051 79.0975C53.5285 77.7475 47.851 54.6475 59.569 44.6665C56.4085 43.987 50.4715 45.319 46.3375 51.499C42.628 57.049 42.838 65.614 45.127 71.6905C43.6642 68.6937 42.6711 65.4898 42.1825 62.191C39.217 42.166 52.6645 25.0885 64.996 20.86C58.3435 15.049 41.674 15.4435 29.2675 24.571C21.9706 30.0255 16.6571 37.7162 14.137 46.471C14.9402 39.3668 17.0555 32.4734 20.3755 26.1415C16.222 28.291 10.933 35.089 8.323 41.386C4.52441 50.9922 3.18488 61.3949 4.426 71.65C4.516 72.427 4.597 73.2025 4.699 73.9735C6.25435 82.9295 9.82121 91.4159 15.131 98.7938C20.4408 106.172 27.3552 112.249 35.3537 116.568C43.3521 120.887 52.2261 123.335 61.3076 123.728C70.3891 124.121 79.4415 122.449 87.7831 118.837C96.1247 115.225 103.538 109.768 109.466 102.876C115.393 95.9846 119.68 87.8381 122.003 79.05C124.326 70.2619 124.625 61.0612 122.878 52.1407C121.131 43.2202 117.383 34.8123 111.916 27.55V27.55Z" fill="url(#paint11_linear)"/>
<path d="M112.024 32.089C110.482 27.5416 107.985 23.3765 104.701 19.873C100.799 15.8069 96.1728 12.5039 91.06 10.1335C86.7915 8.02947 82.2907 6.43404 77.65 5.38001C69.4695 3.58936 61.004 3.53825 52.8025 5.23001C44.278 7.03001 36.7825 10.7185 32.041 15.3295C35.8217 13.1936 39.8739 11.579 44.0875 10.5295C52.2752 8.472 60.8489 8.50639 69.0198 10.6295C77.1907 12.7527 84.6966 16.8964 90.847 22.6795C93.3398 25.0435 95.5218 27.7149 97.3405 30.6295C104.683 42.568 103.989 57.577 98.263 66.4285C94.0105 73.0045 84.9025 79.1785 76.405 79.1065C82.8005 79.5892 89.2072 78.3275 94.9421 75.4558C100.677 72.5841 105.525 68.2101 108.97 62.8C114.954 53.464 115.158 41.5825 112.024 32.089V32.089Z" fill="url(#paint12_linear)"/>
<path d="M112.024 32.089C110.482 27.5416 107.985 23.3765 104.701 19.873C100.799 15.8069 96.1728 12.5039 91.06 10.1335C86.7915 8.02947 82.2907 6.43404 77.65 5.38001C69.4695 3.58936 61.004 3.53825 52.8025 5.23001C44.278 7.03001 36.7825 10.7185 32.041 15.3295C35.8217 13.1936 39.8739 11.579 44.0875 10.5295C52.2752 8.472 60.8489 8.50639 69.0198 10.6295C77.1907 12.7527 84.6966 16.8964 90.847 22.6795C93.3398 25.0435 95.5218 27.7149 97.3405 30.6295C104.683 42.568 103.989 57.577 98.263 66.4285C94.0105 73.0045 84.9025 79.1785 76.405 79.1065C82.8005 79.5892 89.2072 78.3275 94.9421 75.4558C100.677 72.5841 105.525 68.2101 108.97 62.8C114.954 53.464 115.158 41.5825 112.024 32.089V32.089Z" fill="url(#paint13_linear)"/>
<defs>
<radialGradient id="paint0_radial" cx="0" cy="0" r="1" gradientUnits="userSpaceOnUse" gradientTransform="translate(111.296 28.5775) scale(136.17)">
<stop stop-color="#FFF36E"/>
<stop offset="0.5" stop-color="#FC4055"/>
<stop offset="1" stop-color="#E31587"/>
</radialGradient>
<radialGradient id="paint1_radial" cx="0" cy="0" r="1" gradientUnits="userSpaceOnUse" gradientTransform="translate(13.9425 34.21) scale(80.589)">
<stop offset="0.001" stop-color="#C60084"/>
<stop offset="1" stop-color="#FC4055" stop-opacity="0"/>
</radialGradient>
<radialGradient id="paint2_radial" cx="0" cy="0" r="1" gradientUnits="userSpaceOnUse" gradientTransform="translate(122.936 20.8285) scale(159.899)">
<stop stop-color="#FFDE67" stop-opacity="0.6"/>
<stop offset="0.093" stop-color="#FFD966" stop-opacity="0.581"/>
<stop offset="0.203" stop-color="#FFCA65" stop-opacity="0.525"/>
<stop offset="0.321" stop-color="#FEB262" stop-opacity="0.432"/>
<stop offset="0.446" stop-color="#FE8F5E" stop-opacity="0.302"/>
<stop offset="0.573" stop-color="#FD6459" stop-opacity="0.137"/>
<stop offset="0.664" stop-color="#FC4055" stop-opacity="0"/>
</radialGradient>
<radialGradient id="paint3_radial" cx="0" cy="0" r="1" gradientUnits="userSpaceOnUse" gradientTransform="translate(67.4265 70.606) scale(206.282)">
<stop offset="0.153" stop-color="#810220"/>
<stop offset="0.167" stop-color="#920B27" stop-opacity="0.861"/>
<stop offset="0.216" stop-color="#CB2740" stop-opacity="0.398"/>
<stop offset="0.253" stop-color="#EF394F" stop-opacity="0.11"/>
<stop offset="0.272" stop-color="#FC4055" stop-opacity="0"/>
</radialGradient>
<radialGradient id="paint4_radial" cx="0" cy="0" r="1" gradientUnits="userSpaceOnUse" gradientTransform="translate(51.816 68.0125) scale(206.282)">
<stop offset="0.113" stop-color="#810220"/>
<stop offset="0.133" stop-color="#920B27" stop-opacity="0.861"/>
<stop offset="0.204" stop-color="#CB2740" stop-opacity="0.398"/>
<stop offset="0.257" stop-color="#EF394F" stop-opacity="0.11"/>
<stop offset="0.284" stop-color="#FC4055" stop-opacity="0"/>
</radialGradient>
<linearGradient id="paint5_linear" x1="72.7465" y1="15.6805" x2="108.083" y2="76.8865" gradientUnits="userSpaceOnUse">
<stop stop-color="#FFBD4F"/>
<stop offset="0.508" stop-color="#FF9640" stop-opacity="0"/>
</linearGradient>
<radialGradient id="paint6_radial" cx="0" cy="0" r="1" gradientUnits="userSpaceOnUse" gradientTransform="translate(108.184 22.1371) scale(127.829 128.096)">
<stop stop-color="#FF9640"/>
<stop offset="0.8" stop-color="#FC4055"/>
</radialGradient>
<radialGradient id="paint7_radial" cx="0" cy="0" r="1" gradientUnits="userSpaceOnUse" gradientTransform="translate(108.184 22.1371) scale(127.829 128.096)">
<stop offset="0.084" stop-color="#FFDE67"/>
<stop offset="0.147" stop-color="#FFDC66" stop-opacity="0.968"/>
<stop offset="0.246" stop-color="#FFD562" stop-opacity="0.879"/>
<stop offset="0.369" stop-color="#FFCB5D" stop-opacity="0.734"/>
<stop offset="0.511" stop-color="#FFBC55" stop-opacity="0.533"/>
<stop offset="0.667" stop-color="#FFAA4B" stop-opacity="0.28"/>
<stop offset="0.822" stop-color="#FF9640" stop-opacity="0"/>
</radialGradient>
<radialGradient id="paint8_radial" cx="0" cy="0" r="1" gradientUnits="userSpaceOnUse" gradientTransform="translate(78.9058 61.9796) rotate(75.728) scale(62.8055 65.421)">
<stop offset="0.363" stop-color="#FC4055"/>
<stop offset="0.443" stop-color="#FD604D" stop-opacity="0.633"/>
<stop offset="0.545" stop-color="#FE8644" stop-opacity="0.181"/>
<stop offset="0.59" stop-color="#FF9640" stop-opacity="0"/>
</radialGradient>
<radialGradient id="paint9_radial" cx="0" cy="0" r="1" gradientUnits="userSpaceOnUse" gradientTransform="translate(68.1055 67.147) scale(62.685)">
<stop offset="0.216" stop-color="#FC4055" stop-opacity="0.8"/>
<stop offset="0.267" stop-color="#FD5251" stop-opacity="0.633"/>
<stop offset="0.41" stop-color="#FE8345" stop-opacity="0.181"/>
<stop offset="0.474" stop-color="#FF9640" stop-opacity="0"/>
</radialGradient>
<radialGradient id="paint10_radial" cx="0" cy="0" r="1" gradientUnits="userSpaceOnUse" gradientTransform="translate(133.696 7.66732) scale(216.055 216.506)">
<stop offset="0.054" stop-color="#FFF36E"/>
<stop offset="0.457" stop-color="#FF9640"/>
<stop offset="0.639" stop-color="#FF9640"/>
</radialGradient>
<linearGradient id="paint11_linear" x1="92.578" y1="14.6245" x2="31.2325" y2="120.88" gradientUnits="userSpaceOnUse">
<stop stop-color="#FFF36E" stop-opacity="0.8"/>
<stop offset="0.094" stop-color="#FFF36E" stop-opacity="0.699"/>
<stop offset="0.752" stop-color="#FFF36E" stop-opacity="0"/>
</linearGradient>
<linearGradient id="paint12_linear" x1="64.8775" y1="2.99501" x2="97.45" y2="97.3045" gradientUnits="userSpaceOnUse">
<stop stop-color="#B833E1"/>
<stop offset="0.371" stop-color="#9059FF"/>
<stop offset="0.614" stop-color="#5B6DF8"/>
<stop offset="1" stop-color="#0090ED"/>
</linearGradient>
<linearGradient id="paint13_linear" x1="45.565" y1="4.48601" x2="106.107" y2="65.0275" gradientUnits="userSpaceOnUse">
<stop offset="0.805" stop-color="#722291" stop-opacity="0"/>
<stop offset="1" stop-color="#592ACB" stop-opacity="0.5"/>
</linearGradient>
</defs>
</svg>
