<svg width="128" height="128" viewBox="0 0 128 128" fill="none" xmlns="http://www.w3.org/2000/svg">
<circle cx="64" cy="66" r="58" fill="url(#paint0_linear)"/>
<circle cx="64" cy="62" r="58" fill="white"/>
<g filter="url(#filter0_i)">
<path d="M53.7425 24.1874C49.5638 24.1874 46.1767 27.5821 46.1767 31.7684C46.1757 32.763 46.3706 33.748 46.7503 34.6672C47.13 35.5865 47.687 36.4219 48.3896 37.1259C49.0921 37.8298 49.9264 38.3885 50.8449 38.77C51.7634 39.1516 52.748 39.3484 53.7425 39.3494H61.3096V31.7684C61.3113 29.7597 60.515 27.8326 59.096 26.4109C57.6769 24.9893 55.7512 24.1895 53.7425 24.1874V24.1874ZM53.7425 44.4034H33.5658C29.3871 44.4034 26 47.7981 26 51.9857C26 56.172 29.3871 59.5667 33.5658 59.5667H53.7438C57.9213 59.5667 61.3096 56.172 61.3096 51.9857C61.3096 47.7981 57.9213 44.4034 53.7425 44.4034" fill="#36C5F0"/>
<path d="M101.663 51.9857C101.663 47.7981 98.2747 44.4034 94.096 44.4034C89.9173 44.4034 86.5302 47.7981 86.5302 51.9857V59.5667H94.096C96.1047 59.5647 98.0304 58.7649 99.4494 57.3432C100.868 55.9215 101.665 53.9944 101.663 51.9857V51.9857ZM81.4863 51.9857V31.7684C81.488 29.7597 80.6918 27.8326 79.2727 26.4109C77.8536 24.9893 75.928 24.1895 73.9193 24.1874C69.7405 24.1874 66.3535 27.5821 66.3535 31.7684V51.9844C66.3535 56.1733 69.7405 59.568 73.9193 59.568C75.928 59.566 77.8536 58.7662 79.2727 57.3445C80.6918 55.9228 81.488 53.9957 81.4863 51.987" fill="#2EB67D"/>
<path d="M73.9193 99.9999C75.928 99.9979 77.8536 99.1981 79.2727 97.7764C80.6918 96.3548 81.488 94.4276 81.4863 92.4189C81.488 90.4102 80.6918 88.4831 79.2727 87.0614C77.8536 85.6398 75.928 84.8399 73.9193 84.8379H66.3535V92.4189C66.3535 96.6053 69.7405 99.9999 73.9193 99.9999ZM73.9193 79.7839H94.0973C98.2747 79.7839 101.663 76.3893 101.663 72.2017C101.665 70.193 100.868 68.2658 99.4494 66.8442C98.0304 65.4225 96.1047 64.6227 94.096 64.6207H73.9193C69.7405 64.6207 66.3535 68.0153 66.3535 72.2017C66.3525 73.1962 66.5474 74.1812 66.9271 75.1005C67.3067 76.0197 67.8637 76.8551 68.5663 77.5591C69.2688 78.2631 70.1032 78.8217 71.0216 79.2033C71.9401 79.5848 72.9247 79.7817 73.9193 79.7827" fill="#ECB22E"/>
<path d="M26 72.2017C25.999 73.1962 26.1939 74.1812 26.5736 75.1005C26.9533 76.0197 27.5103 76.8551 28.2128 77.5591C28.9154 78.2631 29.7497 78.8217 30.6682 79.2033C31.5866 79.5848 32.5713 79.7817 33.5658 79.7827C35.5745 79.7807 37.5002 78.9809 38.9192 77.5592C40.3383 76.1375 41.1346 74.2104 41.1329 72.2017V64.6207H33.5658C29.3871 64.6207 26 68.0153 26 72.2017V72.2017ZM46.1767 72.2017V92.4177C46.1767 96.6053 49.5638 99.9999 53.7425 99.9999C55.7512 99.9979 57.6769 99.1981 59.096 97.7764C60.515 96.3548 61.3113 94.4276 61.3096 92.4189V72.2017C61.3106 71.207 61.1157 70.2219 60.7359 69.3026C60.3561 68.3833 59.799 67.5478 59.0963 66.8438C58.3937 66.1398 57.5592 65.5811 56.6406 65.1997C55.722 64.8183 54.7372 64.6215 53.7425 64.6207C49.5638 64.6207 46.1767 68.0153 46.1767 72.2017Z" fill="#E01E5A"/>
</g>
<defs>
<filter id="filter0_i" x="26" y="24.1874" width="75.6631" height="75.8125" filterUnits="userSpaceOnUse" color-interpolation-filters="sRGB">
<feFlood flood-opacity="0" result="BackgroundImageFix"/>
<feBlend mode="normal" in="SourceGraphic" in2="BackgroundImageFix" result="shape"/>
<feColorMatrix in="SourceAlpha" type="matrix" values="0 0 0 0 0 0 0 0 0 0 0 0 0 0 0 0 0 0 127 0" result="hardAlpha"/>
<feOffset dy="2"/>
<feComposite in2="hardAlpha" operator="arithmetic" k2="-1" k3="1"/>
<feColorMatrix type="matrix" values="0 0 0 0 0 0 0 0 0 0 0 0 0 0 0 0 0 0 0.16 0"/>
<feBlend mode="normal" in2="shape" result="effect1_innerShadow"/>
</filter>
<linearGradient id="paint0_linear" x1="122" y1="109.5" x2="5.99999" y2="108.5" gradientUnits="userSpaceOnUse">
<stop offset="0.223543" stop-color="#E6E6E6"/>
<stop offset="0.498351" stop-color="white"/>
<stop offset="0.801702" stop-color="#E6E6E6"/>
</linearGradient>
</defs>
</svg>
