<svg width="128" height="128" viewBox="0 0 128 128" fill="none" xmlns="http://www.w3.org/2000/svg">
<mask id="mask0" mask-type="alpha" maskUnits="userSpaceOnUse" x="12" y="4" width="104" height="112">
<path d="M12 48.3473C12 45.594 13.2284 42.9842 15.3502 41.2296L56.9657 6.81678C61.0478 3.44123 66.9522 3.44123 71.0342 6.81678L112.648 41.2284C114.771 42.9838 116 45.5947 116 48.3492V107.665C116 112.268 112.268 116 107.665 116H20.335C15.7317 116 12 112.268 12 107.665V48.3473Z" fill="white"/>
</mask>
<g mask="url(#mask0)">
<path d="M12 48.3473C12 45.594 13.2284 42.9842 15.3502 41.2296L56.9657 6.81678C61.0478 3.44123 66.9522 3.44123 71.0342 6.81678L112.648 41.2284C114.771 42.9838 116 45.5947 116 48.3492V107.665C116 112.268 112.268 116 107.665 116H20.335C15.7317 116 12 112.268 12 107.665V48.3473Z" fill="#F1625A"/>
<rect x="12" y="50" width="104" height="66" fill="#EF473E"/>
<rect x="28" y="34" width="72" height="62" rx="8" fill="white"/>
<path d="M77.3281 75.001L116 57.5V92.0088H12V57.5L51.0842 75.001C53.0366 72.2978 58.3154 66.8913 63.812 66.8913C69.3086 66.8913 75.113 72.2978 77.3281 75.001Z" fill="black" fill-opacity="0.16"/>
<path d="M19.8845 60.9217C13.8022 57.2153 12 54 12 50V116H116V50C116 54 113.822 58.4212 109.091 60.9217C104.36 63.4221 64 86 64 86C64 86 25.9667 64.628 19.8845 60.9217Z" fill="#F1625A"/>
<path d="M56.1932 73.5065L12 116H116L71.8068 73.5065C67.4466 69.314 60.5534 69.314 56.1932 73.5065Z" fill="#EF473E"/>
<path d="M58.5 40C57.3954 40 56.5 40.8954 56.5 42C56.5 43.1046 57.3954 44 58.5 44V40ZM70 42H72C72 41.4696 71.7893 40.9609 71.4142 40.5858C71.0391 40.2107 70.5304 40 70 40V42ZM58 61L56 61C56 62.1046 56.8954 63 58 63V61ZM71 63C72.1046 63 73 62.1046 73 61C73 59.8954 72.1046 59 71 59V63ZM58.5 42C58.5 44 58.5 44 58.5001 44C58.5001 44 58.5002 44 58.5003 44C58.5461 44 58.455 44 58.5011 44C58.591 44 58.4137 44 58.5043 44C58.592 44 58.4212 44 58.5096 44C58.5952 44 58.4307 44 58.517 44C58.6005 44 58.4423 44 58.5265 44C58.5676 44 58.4908 44 58.532 44C58.5726 44 58.4973 44 58.5381 44C58.6174 44 58.4716 44 58.5517 44C58.629 44 58.4892 44 58.5673 44C58.7154 44 58.4537 44 58.6045 44C58.745 44 58.5066 44 58.6497 44C58.7828 44 58.567 44 58.7026 44C58.8285 44 58.6347 44 58.7632 44C58.8821 44 58.7097 44 58.8312 44C58.9435 44 58.7918 44 58.9065 44C59.1095 44 58.8663 44 59.0787 44C59.1723 44 59.0793 44 59.1752 44C59.263 44 59.1885 44 59.2785 44C59.3607 44 59.3041 44 59.3885 44C59.4653 44 59.4259 44 59.5049 44C59.8895 44 60.1454 44 60.6537 44C60.7733 44 61.2124 44 61.3584 44C61.4038 44 61.688 44 61.7395 44C61.7746 44 62.0973 44 62.1381 44C62.1642 44 62.5218 44 62.5532 44C62.5715 44 62.9605 44 62.9837 44C62.9953 44 63.4124 44 63.4285 44C63.4344 44 63.8763 44 63.8864 44C63.8878 44 64.3512 44 64.3564 44C64.3565 44 64.4753 44 64.4756 44C64.4856 44 64.4956 44 64.5055 44C64.5155 44 64.5255 44 64.5355 44C64.5455 44 64.5555 44 64.5655 44C64.5755 44 64.5855 44 64.5955 44C64.6055 44 64.6156 44 64.6256 44C64.6356 44 64.6457 44 64.6557 44C64.6658 44 64.6758 44 64.6859 44C64.6959 44 64.706 44 64.7161 44C64.7261 44 64.7362 44 64.7463 44C64.7564 44 64.7665 44 64.7766 44C64.7867 44 64.7968 44 64.8069 44C64.817 44 64.8271 44 64.8372 44C64.8474 44 64.8575 44 64.8676 44C64.8778 44 64.8879 44 64.8981 44C64.9082 44 64.9184 44 64.9285 44C64.9387 44 64.9489 44 64.959 44C64.9692 44 64.9794 44 64.9896 44C64.9998 44 65.01 44 65.0202 44C65.0304 44 65.0406 44 65.0508 44C65.061 44 65.0712 44 65.0814 44C65.0916 44 65.1019 44 65.1121 44C65.1223 44 65.1326 44 65.1428 44C65.1531 44 65.1633 44 65.1736 44C65.1838 44 65.1941 44 65.2044 44C65.2146 44 65.2249 44 65.2352 44C65.2455 44 65.2558 44 65.2661 44C65.2764 44 65.2867 44 65.297 44C65.3073 44 65.3176 44 65.3279 44C65.3382 44 65.3485 44 65.3589 44C65.3692 44 65.3795 44 65.3899 44C65.4002 44 65.4105 44 65.4209 44C65.4312 44 65.4416 44 65.452 44C65.4623 44 65.4727 44 65.4831 44C65.4934 44 65.5038 44 65.5142 44C65.5246 44 65.535 44 65.5454 44C65.5557 44 65.5661 44 65.5765 44C65.587 44 65.5974 44 65.6078 44C65.6182 44 65.6286 44 65.639 44C65.6495 44 65.6599 44 65.6703 44C65.6808 44 65.6912 44 65.7016 44C65.7121 44 65.7225 44 65.733 44C65.7434 44 65.7539 44 65.7644 44C65.7748 44 65.7853 44 65.7958 44C65.8063 44 65.8167 44 65.8272 44C65.8377 44 65.8482 44 65.8587 44C65.8692 44 65.8797 44 65.8902 44C65.9007 44 65.9112 44 65.9217 44C65.9322 44 65.9428 44 65.9533 44C65.9638 44 65.9743 44 65.9849 44C65.9954 44 66.0059 44 66.0165 44C66.027 44 66.0376 44 66.0481 44C66.0587 44 66.0692 44 66.0798 44C66.0904 44 66.1009 44 66.1115 44C66.1221 44 66.1326 44 66.1432 44C66.1538 44 66.1644 44 66.175 44C66.1856 44 66.1961 44 66.2067 44C66.2173 44 66.2279 44 66.2385 44C66.2492 44 66.2598 44 66.2704 44C66.281 44 66.2916 44 66.3022 44C66.3129 44 66.3235 44 66.3341 44C66.3447 44 66.3554 44 66.366 44C66.3767 44 66.3873 44 66.3979 44C66.4086 44 66.4192 44 66.4299 44C66.4406 44 66.4512 44 66.4619 44C66.4725 44 66.4832 44 66.4939 44C66.5046 44 66.5152 44 66.5259 44C66.5366 44 66.5473 44 66.558 44C66.5687 44 66.5793 44 66.59 44C66.6007 44 66.6114 44 66.6221 44C66.6328 44 66.6435 44 66.6543 44C66.665 44 66.6757 44 66.6864 44C66.6971 44 66.7078 44 66.7186 44C66.7293 44 66.74 44 66.7507 44C66.7615 44 66.7722 44 66.783 44C66.7937 44 66.8044 44 66.8152 44C66.8259 44 66.8367 44 66.8474 44C66.8582 44 66.8689 44 66.8797 44C66.8905 44 66.9012 44 66.912 44C66.9228 44 66.9335 44 66.9443 44C66.9551 44 66.9659 44 66.9766 44C66.9874 44 66.9982 44 67.009 44C67.0198 44 67.0306 44 67.0414 44C67.0522 44 67.063 44 67.0738 44C67.0846 44 67.0954 44 67.1062 44C67.117 44 67.1278 44 67.1386 44C67.1494 44 67.1602 44 67.171 44C67.1819 44 67.1927 44 67.2035 44C67.2143 44 67.2252 44 67.236 44C67.2468 44 67.2576 44 67.2685 44C67.2793 44 67.2902 44 67.301 44C67.3118 44 67.3227 44 67.3335 44C67.3444 44 67.3552 44 67.3661 44C67.3769 44 67.3878 44 67.3986 44C67.4095 44 67.4204 44 67.4312 44C67.4421 44 67.453 44 67.4638 44C67.4747 44 67.4856 44 67.4964 44C67.5073 44 67.5182 44 67.5291 44C67.54 44 67.5508 44 67.5617 44C67.5726 44 67.5835 44 67.5944 44C67.6053 44 67.6162 44 67.627 44C67.6379 44 67.6488 44 67.6597 44C67.6706 44 67.6815 44 67.6924 44C67.7033 44 67.7142 44 67.7252 44C67.7361 44 67.747 44 67.7579 44C67.7688 44 67.7797 44 67.7906 44C67.8015 44 67.8125 44 67.8234 44C67.8343 44 67.8452 44 67.8561 44C67.8671 44 67.878 44 67.8889 44C67.8999 44 67.9108 44 67.9217 44C67.9327 44 67.9436 44 67.9545 44C67.9655 44 67.9764 44 67.9873 44C67.9983 44 68.0092 44 68.0202 44C68.0311 44 68.0421 44 68.053 44C68.064 44 68.0749 44 68.0859 44C68.0968 44 68.1078 44 68.1187 44C68.1297 44 68.1406 44 68.1516 44C68.1625 44 68.1735 44 68.1845 44C68.1954 44 68.2064 44 68.2173 44C68.2283 44 68.2393 44 68.2502 44C68.2612 44 68.2722 44 68.2832 44C68.2941 44 68.3051 44 68.3161 44C68.327 44 68.338 44 68.349 44C68.36 44 68.3709 44 68.3819 44C68.3929 44 68.4039 44 68.4149 44C68.4258 44 68.4368 44 68.4478 44C68.4588 44 68.4698 44 68.4808 44C68.4918 44 68.5027 44 68.5137 44C68.5247 44 68.5357 44 68.5467 44C68.5577 44 68.5687 44 68.5797 44C68.5907 44 68.6017 44 68.6127 44C68.6237 44 68.6346 44 68.6456 44C68.6566 44 68.6676 44 68.6786 44C68.6896 44 68.7006 44 68.7116 44C68.7226 44 68.7336 44 68.7446 44C68.7556 44 68.7666 44 68.7777 44C68.7887 44 68.7997 44 68.8107 44C68.8217 44 68.8327 44 68.8437 44C68.8547 44 68.8657 44 68.8767 44C68.8877 44 68.8987 44 68.9097 44C68.9207 44 68.9318 44 68.9428 44C68.9538 44 68.9648 44 68.9758 44C68.9868 44 68.9978 44 69.0088 44C69.0198 44 69.0309 44 69.0419 44C69.0529 44 69.0639 44 69.0749 44C69.0859 44 69.0969 44 69.108 44C69.119 44 69.13 44 69.141 44C69.152 44 69.163 44 69.1741 44C69.1851 44 69.1961 44 69.2071 44C69.2181 44 69.2291 44 69.2402 44C69.2512 44 69.2622 44 69.2732 44C69.2842 44 69.2952 44 69.3063 44C69.3173 44 69.3283 44 69.3393 44C69.3394 44 69.4714 44 69.4715 44C69.4722 44 69.7352 44 69.7359 44C69.7373 44 69.9986 44 70 44V40C69.9986 40 69.7373 40 69.7359 40C69.7352 40 69.4722 40 69.4715 40C69.4714 40 69.3394 40 69.3393 40C69.3283 40 69.3173 40 69.3063 40C69.2952 40 69.2842 40 69.2732 40C69.2622 40 69.2512 40 69.2402 40C69.2291 40 69.2181 40 69.2071 40C69.1961 40 69.1851 40 69.1741 40C69.163 40 69.152 40 69.141 40C69.13 40 69.119 40 69.108 40C69.0969 40 69.0859 40 69.0749 40C69.0639 40 69.0529 40 69.0419 40C69.0309 40 69.0198 40 69.0088 40C68.9978 40 68.9868 40 68.9758 40C68.9648 40 68.9538 40 68.9428 40C68.9318 40 68.9207 40 68.9097 40C68.8987 40 68.8877 40 68.8767 40C68.8657 40 68.8547 40 68.8437 40C68.8327 40 68.8217 40 68.8107 40C68.7997 40 68.7887 40 68.7777 40C68.7666 40 68.7556 40 68.7446 40C68.7336 40 68.7226 40 68.7116 40C68.7006 40 68.6896 40 68.6786 40C68.6676 40 68.6566 40 68.6456 40C68.6346 40 68.6237 40 68.6127 40C68.6017 40 68.5907 40 68.5797 40C68.5687 40 68.5577 40 68.5467 40C68.5357 40 68.5247 40 68.5137 40C68.5027 40 68.4918 40 68.4808 40C68.4698 40 68.4588 40 68.4478 40C68.4368 40 68.4258 40 68.4149 40C68.4039 40 68.3929 40 68.3819 40C68.3709 40 68.36 40 68.349 40C68.338 40 68.327 40 68.3161 40C68.3051 40 68.2941 40 68.2832 40C68.2722 40 68.2612 40 68.2502 40C68.2393 40 68.2283 40 68.2173 40C68.2064 40 68.1954 40 68.1845 40C68.1735 40 68.1625 40 68.1516 40C68.1406 40 68.1297 40 68.1187 40C68.1078 40 68.0968 40 68.0859 40C68.0749 40 68.064 40 68.053 40C68.0421 40 68.0311 40 68.0202 40C68.0092 40 67.9983 40 67.9873 40C67.9764 40 67.9655 40 67.9545 40C67.9436 40 67.9327 40 67.9217 40C67.9108 40 67.8999 40 67.8889 40C67.878 40 67.8671 40 67.8561 40C67.8452 40 67.8343 40 67.8234 40C67.8125 40 67.8015 40 67.7906 40C67.7797 40 67.7688 40 67.7579 40C67.747 40 67.7361 40 67.7252 40C67.7142 40 67.7033 40 67.6924 40C67.6815 40 67.6706 40 67.6597 40C67.6488 40 67.6379 40 67.627 40C67.6162 40 67.6053 40 67.5944 40C67.5835 40 67.5726 40 67.5617 40C67.5508 40 67.54 40 67.5291 40C67.5182 40 67.5073 40 67.4964 40C67.4856 40 67.4747 40 67.4638 40C67.453 40 67.4421 40 67.4312 40C67.4204 40 67.4095 40 67.3986 40C67.3878 40 67.3769 40 67.3661 40C67.3552 40 67.3444 40 67.3335 40C67.3227 40 67.3118 40 67.301 40C67.2902 40 67.2793 40 67.2685 40C67.2576 40 67.2468 40 67.236 40C67.2252 40 67.2143 40 67.2035 40C67.1927 40 67.1819 40 67.171 40C67.1602 40 67.1494 40 67.1386 40C67.1278 40 67.117 40 67.1062 40C67.0954 40 67.0846 40 67.0738 40C67.063 40 67.0522 40 67.0414 40C67.0306 40 67.0198 40 67.009 40C66.9982 40 66.9874 40 66.9766 40C66.9659 40 66.9551 40 66.9443 40C66.9335 40 66.9228 40 66.912 40C66.9012 40 66.8905 40 66.8797 40C66.8689 40 66.8582 40 66.8474 40C66.8367 40 66.8259 40 66.8152 40C66.8044 40 66.7937 40 66.783 40C66.7722 40 66.7615 40 66.7507 40C66.74 40 66.7293 40 66.7186 40C66.7078 40 66.6971 40 66.6864 40C66.6757 40 66.665 40 66.6543 40C66.6435 40 66.6328 40 66.6221 40C66.6114 40 66.6007 40 66.59 40C66.5793 40 66.5687 40 66.558 40C66.5473 40 66.5366 40 66.5259 40C66.5152 40 66.5046 40 66.4939 40C66.4832 40 66.4725 40 66.4619 40C66.4512 40 66.4406 40 66.4299 40C66.4192 40 66.4086 40 66.3979 40C66.3873 40 66.3767 40 66.366 40C66.3554 40 66.3447 40 66.3341 40C66.3235 40 66.3129 40 66.3022 40C66.2916 40 66.281 40 66.2704 40C66.2598 40 66.2492 40 66.2385 40C66.2279 40 66.2173 40 66.2067 40C66.1961 40 66.1856 40 66.175 40C66.1644 40 66.1538 40 66.1432 40C66.1326 40 66.1221 40 66.1115 40C66.1009 40 66.0904 40 66.0798 40C66.0692 40 66.0587 40 66.0481 40C66.0376 40 66.027 40 66.0165 40C66.0059 40 65.9954 40 65.9849 40C65.9743 40 65.9638 40 65.9533 40C65.9428 40 65.9322 40 65.9217 40C65.9112 40 65.9007 40 65.8902 40C65.8797 40 65.8692 40 65.8587 40C65.8482 40 65.8377 40 65.8272 40C65.8167 40 65.8063 40 65.7958 40C65.7853 40 65.7748 40 65.7644 40C65.7539 40 65.7434 40 65.733 40C65.7225 40 65.7121 40 65.7016 40C65.6912 40 65.6808 40 65.6703 40C65.6599 40 65.6495 40 65.639 40C65.6286 40 65.6182 40 65.6078 40C65.5974 40 65.587 40 65.5765 40C65.5661 40 65.5557 40 65.5454 40C65.535 40 65.5246 40 65.5142 40C65.5038 40 65.4934 40 65.4831 40C65.4727 40 65.4623 40 65.452 40C65.4416 40 65.4312 40 65.4209 40C65.4105 40 65.4002 40 65.3899 40C65.3795 40 65.3692 40 65.3589 40C65.3485 40 65.3382 40 65.3279 40C65.3176 40 65.3073 40 65.297 40C65.2867 40 65.2764 40 65.2661 40C65.2558 40 65.2455 40 65.2352 40C65.2249 40 65.2146 40 65.2044 40C65.1941 40 65.1838 40 65.1736 40C65.1633 40 65.1531 40 65.1428 40C65.1326 40 65.1223 40 65.1121 40C65.1019 40 65.0916 40 65.0814 40C65.0712 40 65.061 40 65.0508 40C65.0406 40 65.0304 40 65.0202 40C65.01 40 64.9998 40 64.9896 40C64.9794 40 64.9692 40 64.959 40C64.9489 40 64.9387 40 64.9285 40C64.9184 40 64.9082 40 64.8981 40C64.8879 40 64.8778 40 64.8676 40C64.8575 40 64.8474 40 64.8372 40C64.8271 40 64.817 40 64.8069 40C64.7968 40 64.7867 40 64.7766 40C64.7665 40 64.7564 40 64.7463 40C64.7362 40 64.7261 40 64.7161 40C64.706 40 64.6959 40 64.6859 40C64.6758 40 64.6658 40 64.6557 40C64.6457 40 64.6356 40 64.6256 40C64.6156 40 64.6055 40 64.5955 40C64.5855 40 64.5755 40 64.5655 40C64.5555 40 64.5455 40 64.5355 40C64.5255 40 64.5155 40 64.5055 40C64.4956 40 64.4856 40 64.4756 40C64.4753 40 64.3565 40 64.3564 40C64.3548 40 64.1206 40 64.12 40C64.1173 40 63.8881 40 63.8864 40C63.8763 40 63.4344 40 63.4285 40C63.4124 40 62.9953 40 62.9837 40C62.9737 40 62.7755 40 62.7666 40C62.7547 40 62.5639 40 62.5532 40C62.5392 40 62.3563 40 62.3437 40C62.3275 40 62.1529 40 62.1381 40C62.0973 40 61.7746 40 61.7395 40C61.688 40 61.4038 40 61.3584 40C61.3443 40 61.2798 40 61.2661 40C61.2512 40 61.1894 40 61.1749 40C61.1592 40 61.1002 40 61.0849 40C61.0685 40 61.0122 40 60.9962 40C60.9195 40 60.7236 40 60.6537 40C60.1454 40 59.8895 40 59.5049 40C59.4259 40 59.4653 40 59.3885 40C59.3041 40 59.3607 40 59.2785 40C59.1885 40 59.263 40 59.1752 40C59.0793 40 59.1723 40 59.0787 40C58.8663 40 59.1095 40 58.9065 40C58.7918 40 58.9435 40 58.8312 40C58.7097 40 58.8821 40 58.7632 40C58.6347 40 58.8285 40 58.7026 40C58.567 40 58.7828 40 58.6497 40C58.5066 40 58.745 40 58.6045 40C58.4537 40 58.7154 40 58.5673 40C58.4892 40 58.629 40 58.5517 40C58.4716 40 58.6174 40 58.5381 40C58.4973 40 58.5726 40 58.532 40C58.4908 40 58.5676 40 58.5265 40C58.4423 40 58.6005 40 58.517 40C58.4307 40 58.5952 40 58.5096 40C58.4212 40 58.592 40 58.5043 40C58.4137 40 58.591 40 58.5011 40C58.455 40 58.5461 40 58.5003 40C58.5002 40 58.5001 40 58.5001 40C58.5 40 58.5 40 58.5 42ZM58 63C58.0101 63 58.0202 63 58.0304 63C58.0405 63 58.0507 63 58.0608 63C58.071 63 58.0812 63 58.0913 63C58.1015 63 58.1117 63 58.1219 63C58.1321 63 58.1423 63 58.1525 63C58.1628 63 58.173 63 58.1832 63C58.1935 63 58.2037 63 58.214 63C58.2242 63 58.2345 63 58.2448 63C58.255 63 58.2653 63 58.2756 63C58.2859 63 58.2962 63 58.3065 63C58.3168 63 58.3272 63 58.3375 63C58.3478 63 58.3582 63 58.3685 63C58.3789 63 58.3892 63 58.3996 63C58.41 63 58.4203 63 58.4307 63C58.4411 63 58.4515 63 58.4619 63C58.4723 63 58.4827 63 58.4931 63C58.5036 63 58.514 63 58.5244 63C58.5349 63 58.5453 63 58.5558 63C58.5662 63 58.5767 63 58.5872 63C58.5976 63 58.6081 63 58.6186 63C58.6291 63 58.6396 63 58.6501 63C58.6606 63 58.6711 63 58.6817 63C58.6922 63 58.7027 63 58.7133 63C58.7238 63 58.7344 63 58.7449 63C58.7555 63 58.766 63 58.7766 63C58.7872 63 58.7978 63 58.8084 63C58.8189 63 58.8295 63 58.8401 63C58.8508 63 58.8614 63 58.872 63C58.8826 63 58.8932 63 58.9039 63C58.9145 63 58.9252 63 58.9358 63C58.9465 63 58.9571 63 58.9678 63C58.9785 63 58.9891 63 58.9998 63C59.0105 63 59.0212 63 59.0319 63C59.0426 63 59.0533 63 59.064 63C59.0747 63 59.0855 63 59.0962 63C59.1069 63 59.1176 63 59.1284 63C59.1391 63 59.1499 63 59.1606 63C59.1714 63 59.1822 63 59.1929 63C59.2037 63 59.2145 63 59.2253 63C59.2361 63 59.2468 63 59.2576 63C59.2684 63 59.2793 63 59.2901 63C59.3009 63 59.3117 63 59.3225 63C59.3334 63 59.3442 63 59.355 63C59.3659 63 59.3767 63 59.3876 63C59.3984 63 59.4093 63 59.4202 63C59.431 63 59.4419 63 59.4528 63C59.4637 63 59.4745 63 59.4854 63C59.4963 63 59.5072 63 59.5181 63C59.529 63 59.54 63 59.5509 63C59.5618 63 59.5727 63 59.5836 63C59.5946 63 59.6055 63 59.6165 63C59.6274 63 59.6383 63 59.6493 63C59.6603 63 59.6712 63 59.6822 63C59.6932 63 59.7041 63 59.7151 63C59.7261 63 59.7371 63 59.7481 63C59.7591 63 59.77 63 59.7811 63C59.7921 63 59.8031 63 59.8141 63C59.8251 63 59.8361 63 59.8471 63C59.8582 63 59.8692 63 59.8802 63C59.8913 63 59.9023 63 59.9133 63C59.9244 63 59.9354 63 59.9465 63C59.9576 63 59.9686 63 59.9797 63C59.9908 63 60.0018 63 60.0129 63C60.024 63 60.0351 63 60.0462 63C60.0572 63 60.0683 63 60.0794 63C60.0905 63 60.1016 63 60.1127 63C60.1239 63 60.135 63 60.1461 63C60.1572 63 60.1683 63 60.1795 63C60.1906 63 60.2017 63 60.2129 63C60.224 63 60.2351 63 60.2463 63C60.2574 63 60.2686 63 60.2797 63C60.2909 63 60.302 63 60.3132 63C60.3244 63 60.3355 63 60.3467 63C60.3579 63 60.3691 63 60.3802 63C60.3914 63 60.4026 63 60.4138 63C60.425 63 60.4362 63 60.4474 63C60.4586 63 60.4698 63 60.481 63C60.4922 63 60.5034 63 60.5146 63C60.5258 63 60.5371 63 60.5483 63C60.5595 63 60.5707 63 60.582 63C60.5932 63 60.6044 63 60.6157 63C60.6269 63 60.6382 63 60.6494 63C60.6606 63 60.6719 63 60.6832 63C60.6944 63 60.7057 63 60.7169 63C60.7282 63 60.7394 63 60.7507 63C60.762 63 60.7732 63 60.7845 63C60.7958 63 60.8071 63 60.8184 63C60.8296 63 60.8409 63 60.8522 63C60.8635 63 60.8748 63 60.8861 63C60.8974 63 60.9087 63 60.92 63C60.9313 63 60.9426 63 60.9539 63C60.9652 63 60.9765 63 60.9878 63C60.9991 63 61.0104 63 61.0217 63C61.0331 63 61.0444 63 61.0557 63C61.067 63 61.0784 63 61.0897 63C61.101 63 61.1123 63 61.1237 63C61.135 63 61.1463 63 61.1577 63C61.169 63 61.1804 63 61.1917 63C61.203 63 61.2144 63 61.2257 63C61.2371 63 61.2484 63 61.2598 63C61.2711 63 61.2825 63 61.2939 63C61.3052 63 61.3166 63 61.3279 63C61.3393 63 61.3507 63 61.362 63C61.3734 63 61.3848 63 61.3961 63C61.4075 63 61.4189 63 61.4302 63C61.4416 63 61.453 63 61.4644 63C61.4757 63 61.4871 63 61.4985 63C61.5099 63 61.5213 63 61.5327 63C61.544 63 61.5554 63 61.5668 63C61.5782 63 61.5896 63 61.601 63C61.6124 63 61.6238 63 61.6352 63C61.6465 63 61.6579 63 61.6693 63C61.6807 63 61.6921 63 61.7035 63C61.7149 63 61.7263 63 61.7377 63C61.7491 63 61.7605 63 61.7719 63C61.7833 63 61.7947 63 61.8061 63C61.8176 63 61.829 63 61.8404 63C61.8518 63 61.8632 63 61.8746 63C61.886 63 61.8974 63 61.9088 63C61.9202 63 61.9316 63 61.9431 63C61.9545 63 61.9659 63 61.9773 63C61.9887 63 62.0001 63 62.0115 63C62.023 63 62.0344 63 62.0458 63C62.0572 63 62.0686 63 62.08 63C62.0915 63 62.1029 63 62.1143 63C62.1257 63 62.1371 63 62.1485 63C62.16 63 62.1714 63 62.1828 63C62.1942 63 62.2056 63 62.2171 63C62.2285 63 62.2399 63 62.2513 63C62.2627 63 62.2741 63 62.2856 63C62.297 63 62.3084 63 62.3198 63C62.3312 63 62.3427 63 62.3541 63C62.3655 63 62.3769 63 62.3883 63C62.3998 63 62.4112 63 62.4226 63C62.434 63 62.4454 63 62.4568 63C62.4683 63 62.4797 63 62.4911 63C62.5025 63 62.5139 63 62.5253 63C62.5367 63 62.5482 63 62.5596 63C62.571 63 62.5824 63 62.5938 63C62.6052 63 62.6166 63 62.628 63C62.6394 63 62.6509 63 62.6623 63C62.6737 63 62.6851 63 62.6965 63C62.7079 63 62.7193 63 62.7307 63C62.7421 63 62.7535 63 62.7649 63C62.7763 63 62.7877 63 62.7991 63C62.8105 63 62.8219 63 62.8333 63C62.8447 63 62.8561 63 62.8675 63C62.8789 63 62.8903 63 62.9017 63C62.9131 63 62.9245 63 62.9358 63C62.9472 63 62.9586 63 62.97 63C62.9814 63 62.9928 63 63.0042 63C63.0155 63 63.0269 63 63.0383 63C63.0497 63 63.061 63 63.0724 63C63.0838 63 63.0952 63 63.1065 63C63.1179 63 63.1293 63 63.1406 63C63.152 63 63.1634 63 63.1747 63C63.1861 63 63.1975 63 63.2088 63C63.2202 63 63.2315 63 63.2429 63C63.2542 63 63.2656 63 63.2769 63C63.2883 63 63.2996 63 63.311 63C63.3223 63 63.3337 63 63.345 63C63.3564 63 63.3677 63 63.379 63C63.3904 63 63.4017 63 63.413 63C63.4244 63 63.4357 63 63.447 63C63.4583 63 63.4697 63 63.481 63C63.4923 63 63.5036 63 63.5149 63C63.5262 63 63.5375 63 63.5489 63C63.5602 63 63.5715 63 63.5828 63C63.5941 63 63.6054 63 63.6167 63C63.628 63 63.6392 63 63.6505 63C63.6618 63 63.6731 63 63.6844 63C63.6957 63 63.707 63 63.7182 63C63.7295 63 63.7408 63 63.7521 63C63.7633 63 63.7746 63 63.7858 63C63.7971 63 63.8084 63 63.8196 63C63.8309 63 63.8421 63 63.8534 63C63.8646 63 63.8759 63 63.8871 63C63.8984 63 63.9096 63 63.9208 63C63.9321 63 63.9433 63 63.9545 63C63.9657 63 63.977 63 63.9882 63C63.9994 63 64.0106 63 64.0218 63C64.033 63 64.0442 63 64.0554 63C64.0666 63 64.0778 63 64.089 63C64.1002 63 64.1114 63 64.1226 63C64.1338 63 64.145 63 64.1561 63C64.1673 63 64.1785 63 64.1896 63C64.2008 63 64.212 63 64.2231 63C64.2343 63 64.2454 63 64.2566 63C64.2677 63 64.2789 63 64.29 63C64.3012 63 64.3123 63 64.3234 63C64.3346 63 64.3457 63 64.3568 63C64.3679 63 64.3791 63 64.3902 63C64.4013 63 64.4124 63 64.4235 63C64.4346 63 64.4457 63 64.4568 63C64.4679 63 64.4789 63 64.49 63C64.5011 63 64.5122 63 64.5233 63C64.5343 63 64.5454 63 64.5565 63C64.5675 63 64.5786 63 64.5896 63C64.6007 63 64.6117 63 64.6228 63C64.6338 63 64.6448 63 64.6559 63C64.6669 63 64.6779 63 64.6889 63C64.6999 63 64.7109 63 64.722 63C64.733 63 64.744 63 64.755 63C64.7659 63 64.7769 63 64.7879 63C64.7989 63 64.8099 63 64.8208 63C64.8318 63 64.8428 63 64.8537 63C64.8647 63 64.8757 63 64.8866 63C64.8975 63 64.9085 63 64.9194 63C64.9304 63 64.9413 63 64.9522 63C64.9631 63 64.974 63 64.985 63C64.9959 63 65.0068 63 65.0177 63C65.0286 63 65.0395 63 65.0503 63C65.0612 63 65.0721 63 65.083 63C65.0938 63 65.1047 63 65.1156 63C65.1264 63 65.1373 63 65.1481 63C65.159 63 65.1698 63 65.1806 63C65.1915 63 65.2023 63 65.2131 63C65.2239 63 65.2347 63 65.2455 63C65.2563 63 65.2671 63 65.2779 63C65.2887 63 65.2995 63 65.3103 63C65.3211 63 65.3318 63 65.3426 63C65.3534 63 65.3641 63 65.3749 63C65.3856 63 65.3963 63 65.4071 63C65.4178 63 65.4285 63 65.4392 63C65.45 63 65.4607 63 65.4714 63C65.4821 63 65.4928 63 65.5035 63C65.5142 63 65.5248 63 65.5355 63C65.5462 63 65.5568 63 65.5675 63C65.5782 63 65.5888 63 65.5995 63C65.6101 63 65.6207 63 65.6314 63C65.642 63 65.6526 63 65.6632 63C65.6738 63 65.6844 63 65.695 63C65.7056 63 65.7162 63 65.7268 63C65.7374 63 65.7479 63 65.7585 63C65.7691 63 65.7796 63 65.7902 63C65.8007 63 65.8112 63 65.8218 63C65.8323 63 65.8428 63 65.8533 63C65.8639 63 65.8744 63 65.8849 63C65.8953 63 65.9058 63 65.9163 63C65.9268 63 65.9373 63 65.9477 63C65.9582 63 65.9686 63 65.9791 63C65.9895 63 66 63 66.0104 63C66.0208 63 66.0312 63 66.0416 63C66.0521 63 66.0625 63 66.0728 63C66.0832 63 66.0936 63 66.104 63C66.1144 63 66.1247 63 66.1351 63C66.1454 63 66.1558 63 66.1661 63C66.1765 63 66.1868 63 66.1971 63C66.2074 63 66.2177 63 66.228 63C66.2383 63 66.2486 63 66.2589 63C66.2692 63 66.2795 63 66.2897 63C66.3 63 66.3102 63 66.3205 63C66.3307 63 66.341 63 66.3512 63C66.3614 63 66.3716 63 66.3818 63C66.392 63 66.4022 63 66.4124 63C66.4226 63 66.4328 63 66.4429 63C66.4531 63 66.4633 63 66.4734 63C66.4836 63 66.4937 63 66.5038 63C66.5139 63 66.5241 63 66.5342 63C66.5443 63 66.5544 63 66.5644 63C66.5745 63 66.5846 63 66.5947 63C66.6047 63 66.6148 63 66.6248 63C66.6349 63 66.6449 63 66.6549 63C66.665 63 66.675 63 66.685 63C66.695 63 66.705 63 66.7149 63C66.7249 63 66.7349 63 66.7449 63C66.7548 63 66.7648 63 66.7747 63C66.7846 63 66.7946 63 66.8045 63C66.8144 63 66.8243 63 66.8342 63C66.8441 63 66.854 63 66.8639 63C66.8737 63 66.8836 63 66.8934 63C66.9033 63 66.9131 63 66.923 63C66.9328 63 66.9426 63 66.9524 63C66.9622 63 66.972 63 66.9818 63C66.9916 63 67.0014 63 67.0111 63C67.0209 63 67.0306 63 67.0404 63C67.0501 63 67.0598 63 67.0696 63C67.0793 63 67.089 63 67.0987 63C67.1084 63 67.1181 63 67.1277 63C67.1374 63 67.1471 63 67.1567 63C67.1663 63 67.176 63 67.1856 63C67.1952 63 67.2048 63 67.2144 63C67.224 63 67.2336 63 67.2432 63C67.2528 63 67.2623 63 67.2719 63C67.2814 63 67.291 63 67.3005 63C67.31 63 67.3195 63 67.329 63C67.3385 63 67.348 63 67.3575 63C67.367 63 67.3765 63 67.3859 63C67.3954 63 67.4048 63 67.4142 63C67.4237 63 67.4331 63 67.4425 63C67.4519 63 67.4613 63 67.4707 63C67.48 63 67.4894 63 67.4987 63C67.5081 63 67.5174 63 67.5268 63C67.5361 63 67.5454 63 67.5547 63C67.564 63 67.5733 63 67.5826 63C67.5919 63 67.6011 63 67.6104 63C67.6196 63 67.6289 63 67.6381 63C67.6473 63 67.6565 63 67.6657 63C67.6749 63 67.6841 63 67.6933 63C67.7024 63 67.7116 63 67.7207 63C67.7299 63 67.739 63 67.7481 63C67.7573 63 67.7664 63 67.7755 63C67.7845 63 67.7936 63 67.8027 63C67.8118 63 67.8208 63 67.8298 63C67.8389 63 67.8479 63 67.8569 63C67.8659 63 67.8749 63 67.8839 63C67.8929 63 67.9019 63 67.9108 63C67.9198 63 67.9287 63 67.9376 63C67.9466 63 67.9555 63 67.9644 63C67.9733 63 67.9822 63 67.991 63C67.9999 63 68.0088 63 68.0176 63C68.0264 63 68.0353 63 68.0441 63C68.0529 63 68.0617 63 68.0705 63C68.0793 63 68.088 63 68.0968 63C68.1055 63 68.1143 63 68.123 63C68.1317 63 68.1405 63 68.1492 63C68.1579 63 68.1665 63 68.1752 63C68.1839 63 68.1925 63 68.2012 63C68.2098 63 68.2184 63 68.2271 63C68.2357 63 68.2443 63 68.2528 63C68.2614 63 68.27 63 68.2785 63C68.2871 63 68.2956 63 68.3042 63C68.3127 63 68.3212 63 68.3297 63C68.3382 63 68.3466 63 68.3551 63C68.3636 63 68.372 63 68.3804 63C68.3889 63 68.3973 63 68.4057 63C68.4141 63 68.4225 63 68.4308 63C68.4392 63 68.4476 63 68.4559 63C68.4642 63 68.4726 63 68.4809 63C68.4892 63 68.4975 63 68.5058 63C68.514 63 68.5223 63 68.5305 63C68.5388 63 68.547 63 68.5552 63C68.5634 63 68.5716 63 68.5798 63C68.588 63 68.5962 63 68.6043 63C68.6125 63 68.6206 63 68.6287 63C68.6368 63 68.6449 63 68.653 63C68.6611 63 68.6692 63 68.6772 63C68.6853 63 68.6933 63 68.7013 63C68.7094 63 68.7174 63 68.7254 63C68.7333 63 68.7413 63 68.7493 63C68.7572 63 68.7652 63 68.7731 63C68.781 63 68.7889 63 68.7968 63C68.8047 63 68.8126 63 68.8204 63C68.8283 63 68.8361 63 68.8439 63C68.8518 63 68.8596 63 68.8674 63C68.8751 63 68.8829 63 68.8907 63C68.8984 63 68.9062 63 68.9139 63C68.9216 63 68.9293 63 68.937 63C68.9447 63 68.9524 63 68.96 63C68.9677 63 68.9753 63 68.9829 63C68.9905 63 68.9981 63 69.0057 63C69.0133 63 69.0209 63 69.0284 63C69.036 63 69.0435 63 69.051 63C69.0585 63 69.066 63 69.0735 63C69.081 63 69.0885 63 69.0959 63C69.1034 63 69.1108 63 69.1182 63C69.1256 63 69.133 63 69.1404 63C69.1477 63 69.1551 63 69.1624 63C69.1698 63 69.1771 63 69.1844 63C69.1917 63 69.199 63 69.2063 63C69.2135 63 69.2208 63 69.228 63C69.2352 63 69.2425 63 69.2496 63C69.2568 63 69.264 63 69.2712 63C69.2783 63 69.2855 63 69.2926 63C69.2997 63 69.3068 63 69.3139 63C69.321 63 69.3281 63 69.3351 63C69.3422 63 69.3492 63 69.3562 63C69.3632 63 69.3702 63 69.3772 63C69.3842 63 69.3911 63 69.3981 63C69.405 63 69.4119 63 69.4188 63C69.4257 63 69.4326 63 69.4394 63C69.4463 63 69.4532 63 69.46 63C69.4668 63 69.4736 63 69.4804 63C69.4872 63 69.494 63 69.5007 63C69.5074 63 69.5142 63 69.5209 63C69.5276 63 69.5343 63 69.541 63C69.5476 63 69.5543 63 69.5609 63C69.5676 63 69.5742 63 69.5808 63C69.5874 63 69.5939 63 69.6005 63C69.607 63 69.6136 63 69.6201 63C69.6266 63 69.6331 63 69.6396 63C69.6461 63 69.6525 63 69.659 63C69.6654 63 69.6718 63 69.6782 63C69.6846 63 69.691 63 69.6974 63C69.7037 63 69.7101 63 69.7164 63C69.7227 63 69.729 63 69.7353 63C69.7415 63 69.7478 63 69.754 63C69.7603 63 69.7665 63 69.7727 63C69.7789 63 69.7851 63 69.7912 63C69.7974 63 69.8035 63 69.8097 63C69.8158 63 69.8219 63 69.8279 63C69.834 63 69.8401 63 69.8461 63C69.8522 63 69.8582 63 69.8642 63C69.8702 63 69.8761 63 69.8821 63C69.888 63 69.894 63 69.8999 63C69.9058 63 69.9117 63 69.9176 63C69.9234 63 69.9293 63 69.9351 63C69.941 63 69.9468 63 69.9525 63C69.9583 63 69.9641 63 69.9698 63C69.9756 63 69.9813 63 69.987 63C69.9927 63 69.9984 63 70.0041 63C70.0097 63 70.0154 63 70.021 63C70.0266 63 70.0322 63 70.0378 63C70.0434 63 70.0489 63 70.0545 63C70.06 63 70.0655 63 70.071 63C70.0765 63 70.0819 63 70.0874 63C70.0928 63 70.0983 63 70.1037 63C70.1091 63 70.1145 63 70.1198 63C70.1252 63 70.1305 63 70.1358 63C70.1412 63 70.1465 63 70.1517 63C70.157 63 70.1623 63 70.1675 63C70.1727 63 70.1779 63 70.1831 63C70.1883 63 70.1935 63 70.1986 63C70.2037 63 70.2089 63 70.214 63C70.2191 63 70.2241 63 70.2292 63C70.2342 63 70.2393 63 70.2443 63C70.2493 63 70.2543 63 70.2592 63C70.2642 63 70.2691 63 70.2741 63C70.279 63 70.2839 63 70.2888 63C70.2936 63 70.2985 63 70.3033 63C70.3081 63 70.3129 63 70.3177 63C70.3225 63 70.3273 63 70.332 63C70.3367 63 70.3415 63 70.3462 63C70.3508 63 70.3555 63 70.3602 63C70.3648 63 70.3694 63 70.374 63C70.3786 63 70.3832 63 70.3878 63C70.3923 63 70.3968 63 70.4014 63C70.4059 63 70.4103 63 70.4148 63C70.4193 63 70.4237 63 70.4281 63C70.4325 63 70.4369 63 70.4413 63C70.4457 63 70.45 63 70.4543 63C70.4586 63 70.4629 63 70.4672 63C70.4715 63 70.4757 63 70.48 63C70.4842 63 70.4884 63 70.4926 63C70.4968 63 70.5009 63 70.505 63C70.5092 63 70.5133 63 70.5174 63C70.5214 63 70.5255 63 70.5295 63C70.5336 63 70.5376 63 70.5416 63C70.5456 63 70.5495 63 70.5535 63C70.5574 63 70.5613 63 70.5652 63C70.5691 63 70.573 63 70.5768 63C70.5807 63 70.5845 63 70.5883 63C70.5921 63 70.5958 63 70.5996 63C70.6033 63 70.607 63 70.6107 63C70.6144 63 70.6181 63 70.6218 63C70.6254 63 70.629 63 70.6326 63C70.6362 63 70.6398 63 70.6433 63C70.6469 63 70.6504 63 70.6539 63C70.6574 63 70.6609 63 70.6643 63C70.6678 63 70.6712 63 70.6746 63C70.678 63 70.6814 63 70.6847 63C70.6881 63 70.6914 63 70.6947 63C70.698 63 70.7013 63 70.7045 63C70.7078 63 70.711 63 70.7142 63C70.7174 63 70.7206 63 70.7237 63C70.7269 63 70.73 63 70.7331 63C70.7362 63 70.7392 63 70.7423 63C70.7453 63 70.7484 63 70.7513 63C70.7543 63 70.7573 63 70.7603 63C70.7632 63 70.7661 63 70.769 63C70.7719 63 70.7748 63 70.7776 63C70.7804 63 70.7833 63 70.786 63C70.7888 63 70.7916 63 70.7943 63C70.7971 63 70.7998 63 70.8025 63C70.8051 63 70.8078 63 70.8104 63C70.8131 63 70.8157 63 70.8182 63C70.8208 63 70.8234 63 70.8259 63C70.8284 63 70.8309 63 70.8334 63C70.8359 63 70.8383 63 70.8407 63C70.8432 63 70.8456 63 70.8479 63C70.8503 63 70.8526 63 70.855 63C70.8573 63 70.8596 63 70.8618 63C70.8641 63 70.8663 63 70.8685 63C70.8707 63 70.8729 63 70.8751 63C70.8772 63 70.8793 63 70.8814 63C70.8835 63 70.8856 63 70.8877 63C70.8897 63 70.8917 63 70.8937 63C70.8957 63 70.8977 63 70.8996 63C70.9016 63 70.9035 63 70.9054 63C70.9072 63 70.9091 63 70.9109 63C70.9128 63 70.9146 63 70.9163 63C70.9181 63 70.9199 63 70.9216 63C70.9233 63 70.925 63 70.9266 63C70.9283 63 70.9299 63 70.9316 63C70.9332 63 70.9347 63 70.9363 63C70.9379 63 70.9394 63 70.9409 63C70.9424 63 70.9439 63 70.9453 63C70.9467 63 70.9482 63 70.9495 63C70.9509 63 70.9523 63 70.9536 63C70.9549 63 70.9562 63 70.9575 63C70.9588 63 70.96 63 70.9613 63C70.9625 63 70.9637 63 70.9648 63C70.966 63 70.9671 63 70.9682 63C70.9693 63 70.9704 63 70.9715 63C70.9725 63 70.9735 63 70.9745 63C70.9755 63 70.9765 63 70.9774 63C70.9783 63 70.9793 63 70.9801 63C70.981 63 70.9819 63 70.9827 63C70.9835 63 70.9843 63 70.985 63C70.9858 63 70.9865 63 70.9872 63C70.988 63 70.9886 63 70.9893 63C70.9899 63 70.9905 63 70.9911 63C70.9917 63 70.9923 63 70.9928 63C70.9933 63 70.9938 63 70.9943 63C70.9948 63 70.9952 63 70.9956 63C70.9961 63 70.9964 63 70.9968 63C70.9972 63 70.9975 63 70.9978 63C70.9981 63 70.9983 63 70.9986 63C70.9988 63 70.999 63 70.9992 63C70.9994 63 70.9995 63 70.9996 63C70.9998 63 70.9999 63 70.9999 63C71 63 71 63 71 61C71 59 71 59 70.9999 59C70.9999 59 70.9998 59 70.9996 59C70.9995 59 70.9994 59 70.9992 59C70.999 59 70.9988 59 70.9986 59C70.9983 59 70.9981 59 70.9978 59C70.9975 59 70.9972 59 70.9968 59C70.9964 59 70.9961 59 70.9956 59C70.9952 59 70.9948 59 70.9943 59C70.9938 59 70.9933 59 70.9928 59C70.9923 59 70.9917 59 70.9911 59C70.9905 59 70.9899 59 70.9893 59C70.9886 59 70.988 59 70.9872 59C70.9865 59 70.9858 59 70.985 59C70.9843 59 70.9835 59 70.9827 59C70.9819 59 70.981 59 70.9801 59C70.9793 59 70.9783 59 70.9774 59C70.9765 59 70.9755 59 70.9745 59C70.9735 59 70.9725 59 70.9715 59C70.9704 59 70.9693 59 70.9682 59C70.9671 59 70.966 59 70.9648 59C70.9637 59 70.9625 59 70.9613 59C70.96 59 70.9588 59 70.9575 59C70.9562 59 70.9549 59 70.9536 59C70.9523 59 70.9509 59 70.9495 59C70.9482 59 70.9467 59 70.9453 59C70.9439 59 70.9424 59 70.9409 59C70.9394 59 70.9379 59 70.9363 59C70.9347 59 70.9332 59 70.9316 59C70.9299 59 70.9283 59 70.9266 59C70.925 59 70.9233 59 70.9216 59C70.9199 59 70.9181 59 70.9163 59C70.9146 59 70.9128 59 70.9109 59C70.9091 59 70.9072 59 70.9054 59C70.9035 59 70.9016 59 70.8996 59C70.8977 59 70.8957 59 70.8937 59C70.8917 59 70.8897 59 70.8877 59C70.8856 59 70.8835 59 70.8814 59C70.8793 59 70.8772 59 70.8751 59C70.8729 59 70.8707 59 70.8685 59C70.8663 59 70.8641 59 70.8618 59C70.8596 59 70.8573 59 70.855 59C70.8526 59 70.8503 59 70.8479 59C70.8456 59 70.8432 59 70.8407 59C70.8383 59 70.8359 59 70.8334 59C70.8309 59 70.8284 59 70.8259 59C70.8234 59 70.8208 59 70.8182 59C70.8157 59 70.8131 59 70.8104 59C70.8078 59 70.8051 59 70.8025 59C70.7998 59 70.7971 59 70.7943 59C70.7916 59 70.7888 59 70.786 59C70.7833 59 70.7804 59 70.7776 59C70.7748 59 70.7719 59 70.769 59C70.7661 59 70.7632 59 70.7603 59C70.7573 59 70.7543 59 70.7513 59C70.7484 59 70.7453 59 70.7423 59C70.7392 59 70.7362 59 70.7331 59C70.73 59 70.7269 59 70.7237 59C70.7206 59 70.7174 59 70.7142 59C70.711 59 70.7078 59 70.7045 59C70.7013 59 70.698 59 70.6947 59C70.6914 59 70.6881 59 70.6847 59C70.6814 59 70.678 59 70.6746 59C70.6712 59 70.6678 59 70.6643 59C70.6609 59 70.6574 59 70.6539 59C70.6504 59 70.6469 59 70.6433 59C70.6398 59 70.6362 59 70.6326 59C70.629 59 70.6254 59 70.6218 59C70.6181 59 70.6144 59 70.6107 59C70.607 59 70.6033 59 70.5996 59C70.5958 59 70.5921 59 70.5883 59C70.5845 59 70.5807 59 70.5768 59C70.573 59 70.5691 59 70.5652 59C70.5613 59 70.5574 59 70.5535 59C70.5495 59 70.5456 59 70.5416 59C70.5376 59 70.5336 59 70.5295 59C70.5255 59 70.5214 59 70.5174 59C70.5133 59 70.5092 59 70.505 59C70.5009 59 70.4968 59 70.4926 59C70.4884 59 70.4842 59 70.48 59C70.4757 59 70.4715 59 70.4672 59C70.4629 59 70.4586 59 70.4543 59C70.45 59 70.4457 59 70.4413 59C70.4369 59 70.4325 59 70.4281 59C70.4237 59 70.4193 59 70.4148 59C70.4103 59 70.4059 59 70.4014 59C70.3968 59 70.3923 59 70.3878 59C70.3832 59 70.3786 59 70.374 59C70.3694 59 70.3648 59 70.3602 59C70.3555 59 70.3508 59 70.3462 59C70.3415 59 70.3367 59 70.332 59C70.3273 59 70.3225 59 70.3177 59C70.3129 59 70.3081 59 70.3033 59C70.2985 59 70.2936 59 70.2888 59C70.2839 59 70.279 59 70.2741 59C70.2691 59 70.2642 59 70.2592 59C70.2543 59 70.2493 59 70.2443 59C70.2393 59 70.2342 59 70.2292 59C70.2241 59 70.2191 59 70.214 59C70.2089 59 70.2037 59 70.1986 59C70.1935 59 70.1883 59 70.1831 59C70.1779 59 70.1727 59 70.1675 59C70.1623 59 70.157 59 70.1517 59C70.1465 59 70.1412 59 70.1358 59C70.1305 59 70.1252 59 70.1198 59C70.1145 59 70.1091 59 70.1037 59C70.0983 59 70.0928 59 70.0874 59C70.0819 59 70.0765 59 70.071 59C70.0655 59 70.06 59 70.0545 59C70.0489 59 70.0434 59 70.0378 59C70.0322 59 70.0266 59 70.021 59C70.0154 59 70.0097 59 70.0041 59C69.9984 59 69.9927 59 69.987 59C69.9813 59 69.9756 59 69.9698 59C69.9641 59 69.9583 59 69.9525 59C69.9468 59 69.941 59 69.9351 59C69.9293 59 69.9234 59 69.9176 59C69.9117 59 69.9058 59 69.8999 59C69.894 59 69.888 59 69.8821 59C69.8761 59 69.8702 59 69.8642 59C69.8582 59 69.8522 59 69.8461 59C69.8401 59 69.834 59 69.8279 59C69.8219 59 69.8158 59 69.8097 59C69.8035 59 69.7974 59 69.7912 59C69.7851 59 69.7789 59 69.7727 59C69.7665 59 69.7603 59 69.754 59C69.7478 59 69.7415 59 69.7353 59C69.729 59 69.7227 59 69.7164 59C69.7101 59 69.7037 59 69.6974 59C69.691 59 69.6846 59 69.6782 59C69.6718 59 69.6654 59 69.659 59C69.6525 59 69.6461 59 69.6396 59C69.6331 59 69.6266 59 69.6201 59C69.6136 59 69.607 59 69.6005 59C69.5939 59 69.5874 59 69.5808 59C69.5742 59 69.5676 59 69.5609 59C69.5543 59 69.5476 59 69.541 59C69.5343 59 69.5276 59 69.5209 59C69.5142 59 69.5074 59 69.5007 59C69.494 59 69.4872 59 69.4804 59C69.4736 59 69.4668 59 69.46 59C69.4532 59 69.4463 59 69.4394 59C69.4326 59 69.4257 59 69.4188 59C69.4119 59 69.405 59 69.3981 59C69.3911 59 69.3842 59 69.3772 59C69.3702 59 69.3632 59 69.3562 59C69.3492 59 69.3422 59 69.3351 59C69.3281 59 69.321 59 69.3139 59C69.3068 59 69.2997 59 69.2926 59C69.2855 59 69.2783 59 69.2712 59C69.264 59 69.2568 59 69.2496 59C69.2425 59 69.2352 59 69.228 59C69.2208 59 69.2135 59 69.2063 59C69.199 59 69.1917 59 69.1844 59C69.1771 59 69.1698 59 69.1624 59C69.1551 59 69.1477 59 69.1404 59C69.133 59 69.1256 59 69.1182 59C69.1108 59 69.1034 59 69.0959 59C69.0885 59 69.081 59 69.0735 59C69.066 59 69.0585 59 69.051 59C69.0435 59 69.036 59 69.0284 59C69.0209 59 69.0133 59 69.0057 59C68.9981 59 68.9905 59 68.9829 59C68.9753 59 68.9677 59 68.96 59C68.9524 59 68.9447 59 68.937 59C68.9293 59 68.9216 59 68.9139 59C68.9062 59 68.8984 59 68.8907 59C68.8829 59 68.8751 59 68.8674 59C68.8596 59 68.8518 59 68.8439 59C68.8361 59 68.8283 59 68.8204 59C68.8126 59 68.8047 59 68.7968 59C68.7889 59 68.781 59 68.7731 59C68.7652 59 68.7572 59 68.7493 59C68.7413 59 68.7333 59 68.7254 59C68.7174 59 68.7094 59 68.7013 59C68.6933 59 68.6853 59 68.6772 59C68.6692 59 68.6611 59 68.653 59C68.6449 59 68.6368 59 68.6287 59C68.6206 59 68.6125 59 68.6043 59C68.5962 59 68.588 59 68.5798 59C68.5716 59 68.5634 59 68.5552 59C68.547 59 68.5388 59 68.5305 59C68.5223 59 68.514 59 68.5058 59C68.4975 59 68.4892 59 68.4809 59C68.4726 59 68.4642 59 68.4559 59C68.4476 59 68.4392 59 68.4308 59C68.4225 59 68.4141 59 68.4057 59C68.3973 59 68.3889 59 68.3804 59C68.372 59 68.3636 59 68.3551 59C68.3466 59 68.3382 59 68.3297 59C68.3212 59 68.3127 59 68.3042 59C68.2956 59 68.2871 59 68.2785 59C68.27 59 68.2614 59 68.2528 59C68.2443 59 68.2357 59 68.2271 59C68.2184 59 68.2098 59 68.2012 59C68.1925 59 68.1839 59 68.1752 59C68.1665 59 68.1579 59 68.1492 59C68.1405 59 68.1317 59 68.123 59C68.1143 59 68.1055 59 68.0968 59C68.088 59 68.0793 59 68.0705 59C68.0617 59 68.0529 59 68.0441 59C68.0353 59 68.0264 59 68.0176 59C68.0088 59 67.9999 59 67.991 59C67.9822 59 67.9733 59 67.9644 59C67.9555 59 67.9466 59 67.9376 59C67.9287 59 67.9198 59 67.9108 59C67.9019 59 67.8929 59 67.8839 59C67.8749 59 67.8659 59 67.8569 59C67.8479 59 67.8389 59 67.8298 59C67.8208 59 67.8118 59 67.8027 59C67.7936 59 67.7845 59 67.7755 59C67.7664 59 67.7573 59 67.7481 59C67.739 59 67.7299 59 67.7207 59C67.7116 59 67.7024 59 67.6933 59C67.6841 59 67.6749 59 67.6657 59C67.6565 59 67.6473 59 67.6381 59C67.6289 59 67.6196 59 67.6104 59C67.6011 59 67.5919 59 67.5826 59C67.5733 59 67.564 59 67.5547 59C67.5454 59 67.5361 59 67.5268 59C67.5174 59 67.5081 59 67.4987 59C67.4894 59 67.48 59 67.4707 59C67.4613 59 67.4519 59 67.4425 59C67.4331 59 67.4237 59 67.4142 59C67.4048 59 67.3954 59 67.3859 59C67.3765 59 67.367 59 67.3575 59C67.348 59 67.3385 59 67.329 59C67.3195 59 67.31 59 67.3005 59C67.291 59 67.2814 59 67.2719 59C67.2623 59 67.2528 59 67.2432 59C67.2336 59 67.224 59 67.2144 59C67.2048 59 67.1952 59 67.1856 59C67.176 59 67.1663 59 67.1567 59C67.1471 59 67.1374 59 67.1277 59C67.1181 59 67.1084 59 67.0987 59C67.089 59 67.0793 59 67.0696 59C67.0598 59 67.0501 59 67.0404 59C67.0306 59 67.0209 59 67.0111 59C67.0014 59 66.9916 59 66.9818 59C66.972 59 66.9622 59 66.9524 59C66.9426 59 66.9328 59 66.923 59C66.9131 59 66.9033 59 66.8934 59C66.8836 59 66.8737 59 66.8639 59C66.854 59 66.8441 59 66.8342 59C66.8243 59 66.8144 59 66.8045 59C66.7946 59 66.7846 59 66.7747 59C66.7648 59 66.7548 59 66.7449 59C66.7349 59 66.7249 59 66.7149 59C66.705 59 66.695 59 66.685 59C66.675 59 66.665 59 66.6549 59C66.6449 59 66.6349 59 66.6248 59C66.6148 59 66.6047 59 66.5947 59C66.5846 59 66.5745 59 66.5644 59C66.5544 59 66.5443 59 66.5342 59C66.5241 59 66.5139 59 66.5038 59C66.4937 59 66.4836 59 66.4734 59C66.4633 59 66.4531 59 66.4429 59C66.4328 59 66.4226 59 66.4124 59C66.4022 59 66.392 59 66.3818 59C66.3716 59 66.3614 59 66.3512 59C66.341 59 66.3307 59 66.3205 59C66.3102 59 66.3 59 66.2897 59C66.2795 59 66.2692 59 66.2589 59C66.2486 59 66.2383 59 66.228 59C66.2177 59 66.2074 59 66.1971 59C66.1868 59 66.1765 59 66.1661 59C66.1558 59 66.1454 59 66.1351 59C66.1247 59 66.1144 59 66.104 59C66.0936 59 66.0832 59 66.0728 59C66.0625 59 66.0521 59 66.0416 59C66.0312 59 66.0208 59 66.0104 59C66 59 65.9895 59 65.9791 59C65.9686 59 65.9582 59 65.9477 59C65.9373 59 65.9268 59 65.9163 59C65.9058 59 65.8953 59 65.8849 59C65.8744 59 65.8639 59 65.8533 59C65.8428 59 65.8323 59 65.8218 59C65.8112 59 65.8007 59 65.7902 59C65.7796 59 65.7691 59 65.7585 59C65.7479 59 65.7374 59 65.7268 59C65.7162 59 65.7056 59 65.695 59C65.6844 59 65.6738 59 65.6632 59C65.6526 59 65.642 59 65.6314 59C65.6207 59 65.6101 59 65.5995 59C65.5888 59 65.5782 59 65.5675 59C65.5568 59 65.5462 59 65.5355 59C65.5248 59 65.5142 59 65.5035 59C65.4928 59 65.4821 59 65.4714 59C65.4607 59 65.45 59 65.4392 59C65.4285 59 65.4178 59 65.4071 59C65.3963 59 65.3856 59 65.3749 59C65.3641 59 65.3534 59 65.3426 59C65.3318 59 65.3211 59 65.3103 59C65.2995 59 65.2887 59 65.2779 59C65.2671 59 65.2563 59 65.2455 59C65.2347 59 65.2239 59 65.2131 59C65.2023 59 65.1915 59 65.1806 59C65.1698 59 65.159 59 65.1481 59C65.1373 59 65.1264 59 65.1156 59C65.1047 59 65.0938 59 65.083 59C65.0721 59 65.0612 59 65.0503 59C65.0395 59 65.0286 59 65.0177 59C65.0068 59 64.9959 59 64.985 59C64.974 59 64.9631 59 64.9522 59C64.9413 59 64.9304 59 64.9194 59C64.9085 59 64.8975 59 64.8866 59C64.8757 59 64.8647 59 64.8537 59C64.8428 59 64.8318 59 64.8208 59C64.8099 59 64.7989 59 64.7879 59C64.7769 59 64.7659 59 64.755 59C64.744 59 64.733 59 64.722 59C64.7109 59 64.6999 59 64.6889 59C64.6779 59 64.6669 59 64.6559 59C64.6448 59 64.6338 59 64.6228 59C64.6117 59 64.6007 59 64.5896 59C64.5786 59 64.5675 59 64.5565 59C64.5454 59 64.5343 59 64.5233 59C64.5122 59 64.5011 59 64.49 59C64.4789 59 64.4679 59 64.4568 59C64.4457 59 64.4346 59 64.4235 59C64.4124 59 64.4013 59 64.3902 59C64.3791 59 64.3679 59 64.3568 59C64.3457 59 64.3346 59 64.3234 59C64.3123 59 64.3012 59 64.29 59C64.2789 59 64.2677 59 64.2566 59C64.2454 59 64.2343 59 64.2231 59C64.212 59 64.2008 59 64.1896 59C64.1785 59 64.1673 59 64.1561 59C64.145 59 64.1338 59 64.1226 59C64.1114 59 64.1002 59 64.089 59C64.0778 59 64.0666 59 64.0554 59C64.0442 59 64.033 59 64.0218 59C64.0106 59 63.9994 59 63.9882 59C63.977 59 63.9657 59 63.9545 59C63.9433 59 63.9321 59 63.9208 59C63.9096 59 63.8984 59 63.8871 59C63.8759 59 63.8646 59 63.8534 59C63.8421 59 63.8309 59 63.8196 59C63.8084 59 63.7971 59 63.7858 59C63.7746 59 63.7633 59 63.7521 59C63.7408 59 63.7295 59 63.7182 59C63.707 59 63.6957 59 63.6844 59C63.6731 59 63.6618 59 63.6505 59C63.6392 59 63.628 59 63.6167 59C63.6054 59 63.5941 59 63.5828 59C63.5715 59 63.5602 59 63.5489 59C63.5375 59 63.5262 59 63.5149 59C63.5036 59 63.4923 59 63.481 59C63.4697 59 63.4583 59 63.447 59C63.4357 59 63.4244 59 63.413 59C63.4017 59 63.3904 59 63.379 59C63.3677 59 63.3564 59 63.345 59C63.3337 59 63.3223 59 63.311 59C63.2996 59 63.2883 59 63.2769 59C63.2656 59 63.2542 59 63.2429 59C63.2315 59 63.2202 59 63.2088 59C63.1975 59 63.1861 59 63.1747 59C63.1634 59 63.152 59 63.1406 59C63.1293 59 63.1179 59 63.1065 59C63.0952 59 63.0838 59 63.0724 59C63.061 59 63.0497 59 63.0383 59C63.0269 59 63.0155 59 63.0042 59C62.9928 59 62.9814 59 62.97 59C62.9586 59 62.9472 59 62.9358 59C62.9245 59 62.9131 59 62.9017 59C62.8903 59 62.8789 59 62.8675 59C62.8561 59 62.8447 59 62.8333 59C62.8219 59 62.8105 59 62.7991 59C62.7877 59 62.7763 59 62.7649 59C62.7535 59 62.7421 59 62.7307 59C62.7193 59 62.7079 59 62.6965 59C62.6851 59 62.6737 59 62.6623 59C62.6509 59 62.6394 59 62.628 59C62.6166 59 62.6052 59 62.5938 59C62.5824 59 62.571 59 62.5596 59C62.5482 59 62.5367 59 62.5253 59C62.5139 59 62.5025 59 62.4911 59C62.4797 59 62.4683 59 62.4568 59C62.4454 59 62.434 59 62.4226 59C62.4112 59 62.3998 59 62.3883 59C62.3769 59 62.3655 59 62.3541 59C62.3427 59 62.3312 59 62.3198 59C62.3084 59 62.297 59 62.2856 59C62.2741 59 62.2627 59 62.2513 59C62.2399 59 62.2285 59 62.2171 59C62.2056 59 62.1942 59 62.1828 59C62.1714 59 62.16 59 62.1485 59C62.1371 59 62.1257 59 62.1143 59C62.1029 59 62.0915 59 62.08 59C62.0686 59 62.0572 59 62.0458 59C62.0344 59 62.023 59 62.0115 59C62.0001 59 61.9887 59 61.9773 59C61.9659 59 61.9545 59 61.9431 59C61.9316 59 61.9202 59 61.9088 59C61.8974 59 61.886 59 61.8746 59C61.8632 59 61.8518 59 61.8404 59C61.829 59 61.8176 59 61.8061 59C61.7947 59 61.7833 59 61.7719 59C61.7605 59 61.7491 59 61.7377 59C61.7263 59 61.7149 59 61.7035 59C61.6921 59 61.6807 59 61.6693 59C61.6579 59 61.6465 59 61.6352 59C61.6238 59 61.6124 59 61.601 59C61.5896 59 61.5782 59 61.5668 59C61.5554 59 61.544 59 61.5327 59C61.5213 59 61.5099 59 61.4985 59C61.4871 59 61.4757 59 61.4644 59C61.453 59 61.4416 59 61.4302 59C61.4189 59 61.4075 59 61.3961 59C61.3848 59 61.3734 59 61.362 59C61.3507 59 61.3393 59 61.3279 59C61.3166 59 61.3052 59 61.2939 59C61.2825 59 61.2711 59 61.2598 59C61.2484 59 61.2371 59 61.2257 59C61.2144 59 61.203 59 61.1917 59C61.1804 59 61.169 59 61.1577 59C61.1463 59 61.135 59 61.1237 59C61.1123 59 61.101 59 61.0897 59C61.0784 59 61.067 59 61.0557 59C61.0444 59 61.0331 59 61.0217 59C61.0104 59 60.9991 59 60.9878 59C60.9765 59 60.9652 59 60.9539 59C60.9426 59 60.9313 59 60.92 59C60.9087 59 60.8974 59 60.8861 59C60.8748 59 60.8635 59 60.8522 59C60.8409 59 60.8296 59 60.8184 59C60.8071 59 60.7958 59 60.7845 59C60.7732 59 60.762 59 60.7507 59C60.7394 59 60.7282 59 60.7169 59C60.7057 59 60.6944 59 60.6832 59C60.6719 59 60.6606 59 60.6494 59C60.6382 59 60.6269 59 60.6157 59C60.6044 59 60.5932 59 60.582 59C60.5707 59 60.5595 59 60.5483 59C60.5371 59 60.5258 59 60.5146 59C60.5034 59 60.4922 59 60.481 59C60.4698 59 60.4586 59 60.4474 59C60.4362 59 60.425 59 60.4138 59C60.4026 59 60.3914 59 60.3802 59C60.3691 59 60.3579 59 60.3467 59C60.3355 59 60.3244 59 60.3132 59C60.302 59 60.2909 59 60.2797 59C60.2686 59 60.2574 59 60.2463 59C60.2351 59 60.224 59 60.2129 59C60.2017 59 60.1906 59 60.1795 59C60.1683 59 60.1572 59 60.1461 59C60.135 59 60.1239 59 60.1127 59C60.1016 59 60.0905 59 60.0794 59C60.0683 59 60.0572 59 60.0462 59C60.0351 59 60.024 59 60.0129 59C60.0018 59 59.9908 59 59.9797 59C59.9686 59 59.9576 59 59.9465 59C59.9354 59 59.9244 59 59.9133 59C59.9023 59 59.8913 59 59.8802 59C59.8692 59 59.8582 59 59.8471 59C59.8361 59 59.8251 59 59.8141 59C59.8031 59 59.7921 59 59.7811 59C59.77 59 59.7591 59 59.7481 59C59.7371 59 59.7261 59 59.7151 59C59.7041 59 59.6932 59 59.6822 59C59.6712 59 59.6603 59 59.6493 59C59.6383 59 59.6274 59 59.6165 59C59.6055 59 59.5946 59 59.5836 59C59.5727 59 59.5618 59 59.5509 59C59.54 59 59.529 59 59.5181 59C59.5072 59 59.4963 59 59.4854 59C59.4745 59 59.4637 59 59.4528 59C59.4419 59 59.431 59 59.4202 59C59.4093 59 59.3984 59 59.3876 59C59.3767 59 59.3659 59 59.355 59C59.3442 59 59.3334 59 59.3225 59C59.3117 59 59.3009 59 59.2901 59C59.2793 59 59.2684 59 59.2576 59C59.2468 59 59.2361 59 59.2253 59C59.2145 59 59.2037 59 59.1929 59C59.1822 59 59.1714 59 59.1606 59C59.1499 59 59.1391 59 59.1284 59C59.1176 59 59.1069 59 59.0962 59C59.0855 59 59.0747 59 59.064 59C59.0533 59 59.0426 59 59.0319 59C59.0212 59 59.0105 59 58.9998 59C58.9891 59 58.9785 59 58.9678 59C58.9571 59 58.9465 59 58.9358 59C58.9252 59 58.9145 59 58.9039 59C58.8932 59 58.8826 59 58.872 59C58.8614 59 58.8508 59 58.8401 59C58.8295 59 58.8189 59 58.8084 59C58.7978 59 58.7872 59 58.7766 59C58.766 59 58.7555 59 58.7449 59C58.7344 59 58.7238 59 58.7133 59C58.7027 59 58.6922 59 58.6817 59C58.6711 59 58.6606 59 58.6501 59C58.6396 59 58.6291 59 58.6186 59C58.6081 59 58.5976 59 58.5872 59C58.5767 59 58.5662 59 58.5558 59C58.5453 59 58.5349 59 58.5244 59C58.514 59 58.5036 59 58.4931 59C58.4827 59 58.4723 59 58.4619 59C58.4515 59 58.4411 59 58.4307 59C58.4203 59 58.41 59 58.3996 59C58.3892 59 58.3789 59 58.3685 59C58.3582 59 58.3478 59 58.3375 59C58.3272 59 58.3168 59 58.3065 59C58.2962 59 58.2859 59 58.2756 59C58.2653 59 58.255 59 58.2448 59C58.2345 59 58.2242 59 58.214 59C58.2037 59 58.1935 59 58.1832 59C58.173 59 58.1628 59 58.1525 59C58.1423 59 58.1321 59 58.1219 59C58.1117 59 58.1015 59 58.0913 59C58.0812 59 58.071 59 58.0608 59C58.0507 59 58.0405 59 58.0304 59C58.0202 59 58.0101 59 58 59V63ZM68 42C68 43.6767 67.8183 44.3998 67.2509 45.2465C66.5425 46.3036 65.2188 47.5655 62.4741 50.0357L65.1499 53.0089C67.7554 50.664 69.5257 49.0373 70.5738 47.4733C71.7628 45.6989 72 44.0684 72 42H68ZM62.4741 50.0357C59.7337 52.5021 58.0828 54.4383 57.1378 56.1975C56.1418 58.0516 56 59.5805 56 61L60 61C60 59.9585 60.0891 59.1561 60.6616 58.0904C61.2851 56.9297 62.5402 55.3577 65.1499 53.0089L62.4741 50.0357Z" fill="#EF473E"/>
<path fill-rule="evenodd" clip-rule="evenodd" d="M12 104V108C12 112.418 15.5817 116 20 116H108C112.418 116 116 112.418 116 108V104C116 108.418 112.418 112 108 112H20C15.5817 112 12 108.418 12 104Z" fill="url(#paint0_linear)"/>
</g>
<defs>
<linearGradient id="paint0_linear" x1="12" y1="105" x2="116" y2="105" gradientUnits="userSpaceOnUse">
<stop stop-color="#ED362B"/>
<stop offset="0.046875" stop-color="#F7A6A1"/>
<stop offset="0.0989583" stop-color="#E71E13"/>
<stop offset="0.916667" stop-color="#E71E13"/>
<stop offset="0.958333" stop-color="#F7A6A1"/>
<stop offset="1" stop-color="#ED362B"/>
</linearGradient>
</defs>
</svg>
