<svg width="128" height="128" viewBox="0 0 128 128" fill="none" xmlns="http://www.w3.org/2000/svg">
<mask id="mask0" mask-type="alpha" maskUnits="userSpaceOnUse" x="12" y="4" width="104" height="112">
<path d="M12 48.3473C12 45.594 13.2284 42.9842 15.3502 41.2296L56.9657 6.81678C61.0478 3.44123 66.9522 3.44123 71.0342 6.81678L112.648 41.2284C114.771 42.9838 116 45.5947 116 48.3492V107.665C116 112.268 112.268 116 107.665 116H20.335C15.7317 116 12 112.268 12 107.665V48.3473Z" fill="#F1625A"/>
</mask>
<g mask="url(#mask0)">
<path d="M12 48.3473C12 45.594 13.2284 42.9842 15.3502 41.2296L56.9657 6.81678C61.0478 3.44123 66.9522 3.44123 71.0342 6.81678L112.648 41.2284C114.771 42.9838 116 45.5947 116 48.3492V107.665C116 112.268 112.268 116 107.665 116H20.335C15.7317 116 12 112.268 12 107.665V48.3473Z" fill="#F1625A"/>
<rect x="12" y="50" width="104" height="66" fill="#EF473E"/>
<rect x="28" y="34" width="72" height="62" rx="8" fill="white"/>
<path d="M77.3281 75.001L116 57.5V92.0088H12V57.5L51.0842 75.001C53.0366 72.2978 58.3154 66.8913 63.812 66.8913C69.3086 66.8913 75.113 72.2978 77.3281 75.001Z" fill="black" fill-opacity="0.16"/>
<path d="M19.8845 60.9217C13.8022 57.2153 12 54 12 50V116H116V50C116 54 113.822 58.4212 109.091 60.9217C104.36 63.4221 64 86 64 86C64 86 25.9667 64.628 19.8845 60.9217Z" fill="#F1625A"/>
<path d="M56.1932 73.5065L12 116H116L71.8068 73.5065C67.4466 69.314 60.5534 69.314 56.1932 73.5065Z" fill="#EF473E"/>
<path d="M58.7434 39.6337C57.4993 39.6337 56.4907 40.6423 56.4907 41.8864C56.4907 43.1305 57.4993 44.1391 58.7434 44.1391V39.6337ZM70.1195 41.8864H72.3722C72.3722 41.2889 72.1349 40.716 71.7124 40.2935C71.29 39.871 70.717 39.6337 70.1195 39.6337V41.8864ZM58.0676 61.4848L55.8149 61.4848C55.8149 62.729 56.8235 63.7375 58.0676 63.7375V61.4848ZM70.4574 63.7375C71.7015 63.7375 72.7101 62.7289 72.7101 61.4848C72.7101 60.2407 71.7015 59.2321 70.4574 59.2321V63.7375ZM58.7434 41.8864C58.7434 44.1391 58.7435 44.1391 58.7435 44.1391C58.7435 44.1391 58.7436 44.1391 58.7437 44.1391C58.7881 44.1391 58.6999 44.1391 58.7445 44.1391C58.8316 44.1391 58.6598 44.1391 58.7476 44.1391C58.9149 44.1391 58.59 44.1391 58.7601 44.1391C58.9193 44.1391 58.6188 44.1391 58.7807 44.1391C58.9321 44.1391 58.6552 44.1391 58.8093 44.1391C58.9532 44.1391 58.6994 44.1391 58.8458 44.1391C58.9823 44.1391 58.751 44.1391 58.8901 44.1391C59.0194 44.1391 58.8101 44.1391 58.9419 44.1391C59.0644 44.1391 58.8763 44.1391 59.0013 44.1391C59.1171 44.1391 58.9497 44.1391 59.0679 44.1391C59.1773 44.1391 59.0301 44.1391 59.1418 44.1391C59.3396 44.1391 59.1036 44.1391 59.3107 44.1391C59.4854 44.1391 59.3232 44.1391 59.5068 44.1391C59.66 44.1391 59.5672 44.1391 59.729 44.1391C60.1062 44.1391 60.3584 44.1391 60.858 44.1391C60.9761 44.1391 61.4071 44.1391 61.5515 44.1391C61.625 44.1391 62.2226 44.1391 62.3196 44.1391C62.3456 44.1391 62.6976 44.1391 62.7289 44.1391C62.7472 44.1391 63.1304 44.1391 63.1537 44.1391C63.1653 44.1391 63.5766 44.1391 63.5928 44.1391C63.5988 44.1391 64.0349 44.1391 64.0452 44.1391C64.0465 44.1391 64.5045 44.1391 64.5098 44.1391C64.5099 44.1391 64.6274 44.1391 64.6277 44.1391C64.6376 44.1391 64.6474 44.1391 64.6573 44.1391C64.6672 44.1391 64.677 44.1391 64.6869 44.1391C64.6968 44.1391 64.7067 44.1391 64.7166 44.1391C64.7265 44.1391 64.7364 44.1391 64.7463 44.1391C64.7562 44.1391 64.7662 44.1391 64.7761 44.1391C64.786 44.1391 64.7959 44.1391 64.8059 44.1391C64.8158 44.1391 64.8258 44.1391 64.8357 44.1391C64.8457 44.1391 64.8556 44.1391 64.8656 44.1391C64.8756 44.1391 64.8855 44.1391 64.8955 44.1391C64.9055 44.1391 64.9155 44.1391 64.9255 44.1391C64.9355 44.1391 64.9455 44.1391 64.9555 44.1391C64.9655 44.1391 64.9755 44.1391 64.9855 44.1391C64.9955 44.1391 65.0056 44.1391 65.0156 44.1391C65.0256 44.1391 65.0357 44.1391 65.0457 44.1391C65.0558 44.1391 65.0658 44.1391 65.0759 44.1391C65.0859 44.1391 65.096 44.1391 65.1061 44.1391C65.1161 44.1391 65.1262 44.1391 65.1363 44.1391C65.1464 44.1391 65.1565 44.1391 65.1666 44.1391C65.1767 44.1391 65.1868 44.1391 65.1969 44.1391C65.207 44.1391 65.2171 44.1391 65.2272 44.1391C65.2374 44.1391 65.2475 44.1391 65.2576 44.1391C65.2677 44.1391 65.2779 44.1391 65.288 44.1391C65.2982 44.1391 65.3083 44.1391 65.3185 44.1391C65.3287 44.1391 65.3388 44.1391 65.349 44.1391C65.3592 44.1391 65.3693 44.1391 65.3795 44.1391C65.3897 44.1391 65.3999 44.1391 65.4101 44.1391C65.4203 44.1391 65.4305 44.1391 65.4407 44.1391C65.4509 44.1391 65.4611 44.1391 65.4713 44.1391C65.4815 44.1391 65.4918 44.1391 65.502 44.1391C65.5122 44.1391 65.5225 44.1391 65.5327 44.1391C65.5429 44.1391 65.5532 44.1391 65.5634 44.1391C65.5737 44.1391 65.584 44.1391 65.5942 44.1391C65.6045 44.1391 65.6148 44.1391 65.625 44.1391C65.6353 44.1391 65.6456 44.1391 65.6559 44.1391C65.6662 44.1391 65.6765 44.1391 65.6868 44.1391C65.6971 44.1391 65.7074 44.1391 65.7177 44.1391C65.728 44.1391 65.7383 44.1391 65.7486 44.1391C65.7589 44.1391 65.7693 44.1391 65.7796 44.1391C65.7899 44.1391 65.8003 44.1391 65.8106 44.1391C65.8209 44.1391 65.8313 44.1391 65.8416 44.1391C65.852 44.1391 65.8623 44.1391 65.8727 44.1391C65.8831 44.1391 65.8934 44.1391 65.9038 44.1391C65.9142 44.1391 65.9246 44.1391 65.935 44.1391C65.9453 44.1391 65.9557 44.1391 65.9661 44.1391C65.9765 44.1391 65.9869 44.1391 65.9973 44.1391C66.0077 44.1391 66.0181 44.1391 66.0286 44.1391C66.039 44.1391 66.0494 44.1391 66.0598 44.1391C66.0702 44.1391 66.0807 44.1391 66.0911 44.1391C66.1015 44.1391 66.112 44.1391 66.1224 44.1391C66.1329 44.1391 66.1433 44.1391 66.1538 44.1391C66.1642 44.1391 66.1747 44.1391 66.1852 44.1391C66.1956 44.1391 66.2061 44.1391 66.2166 44.1391C66.227 44.1391 66.2375 44.1391 66.248 44.1391C66.2585 44.1391 66.269 44.1391 66.2795 44.1391C66.29 44.1391 66.3005 44.1391 66.311 44.1391C66.3215 44.1391 66.332 44.1391 66.3425 44.1391C66.353 44.1391 66.3635 44.1391 66.374 44.1391C66.3845 44.1391 66.3951 44.1391 66.4056 44.1391C66.4161 44.1391 66.4267 44.1391 66.4372 44.1391C66.4477 44.1391 66.4583 44.1391 66.4688 44.1391C66.4794 44.1391 66.4899 44.1391 66.5005 44.1391C66.5111 44.1391 66.5216 44.1391 66.5322 44.1391C66.5427 44.1391 66.5533 44.1391 66.5639 44.1391C66.5745 44.1391 66.585 44.1391 66.5956 44.1391C66.6062 44.1391 66.6168 44.1391 66.6274 44.1391C66.638 44.1391 66.6486 44.1391 66.6592 44.1391C66.6698 44.1391 66.6804 44.1391 66.691 44.1391C66.7016 44.1391 66.7122 44.1391 66.7228 44.1391C66.7335 44.1391 66.7441 44.1391 66.7547 44.1391C66.7653 44.1391 66.776 44.1391 66.7866 44.1391C66.7972 44.1391 66.8079 44.1391 66.8185 44.1391C66.8291 44.1391 66.8398 44.1391 66.8504 44.1391C66.8611 44.1391 66.8717 44.1391 66.8824 44.1391C66.893 44.1391 66.9037 44.1391 66.9144 44.1391C66.925 44.1391 66.9357 44.1391 66.9464 44.1391C66.9571 44.1391 66.9677 44.1391 66.9784 44.1391C66.9891 44.1391 66.9998 44.1391 67.0105 44.1391C67.0211 44.1391 67.0318 44.1391 67.0425 44.1391C67.0532 44.1391 67.0639 44.1391 67.0746 44.1391C67.0853 44.1391 67.096 44.1391 67.1067 44.1391C67.1175 44.1391 67.1282 44.1391 67.1389 44.1391C67.1496 44.1391 67.1603 44.1391 67.171 44.1391C67.1818 44.1391 67.1925 44.1391 67.2032 44.1391C67.214 44.1391 67.2247 44.1391 67.2354 44.1391C67.2462 44.1391 67.2569 44.1391 67.2676 44.1391C67.2784 44.1391 67.2891 44.1391 67.2999 44.1391C67.3106 44.1391 67.3214 44.1391 67.3321 44.1391C67.3429 44.1391 67.3537 44.1391 67.3644 44.1391C67.3752 44.1391 67.386 44.1391 67.3967 44.1391C67.4075 44.1391 67.4183 44.1391 67.429 44.1391C67.4398 44.1391 67.4506 44.1391 67.4614 44.1391C67.4722 44.1391 67.483 44.1391 67.4937 44.1391C67.5045 44.1391 67.5153 44.1391 67.5261 44.1391C67.5369 44.1391 67.5477 44.1391 67.5585 44.1391C67.5693 44.1391 67.5801 44.1391 67.5909 44.1391C67.6017 44.1391 67.6125 44.1391 67.6234 44.1391C67.6342 44.1391 67.645 44.1391 67.6558 44.1391C67.6666 44.1391 67.6774 44.1391 67.6883 44.1391C67.6991 44.1391 67.7099 44.1391 67.7207 44.1391C67.7316 44.1391 67.7424 44.1391 67.7532 44.1391C67.7641 44.1391 67.7749 44.1391 67.7858 44.1391C67.7966 44.1391 67.8074 44.1391 67.8183 44.1391C67.8291 44.1391 67.84 44.1391 67.8508 44.1391C67.8617 44.1391 67.8725 44.1391 67.8834 44.1391C67.8943 44.1391 67.9051 44.1391 67.916 44.1391C67.9268 44.1391 67.9377 44.1391 67.9486 44.1391C67.9594 44.1391 67.9703 44.1391 67.9812 44.1391C67.992 44.1391 68.0029 44.1391 68.0138 44.1391C68.0247 44.1391 68.0355 44.1391 68.0464 44.1391C68.0573 44.1391 68.0682 44.1391 68.0791 44.1391C68.09 44.1391 68.1008 44.1391 68.1117 44.1391C68.1226 44.1391 68.1335 44.1391 68.1444 44.1391C68.1553 44.1391 68.1662 44.1391 68.1771 44.1391C68.188 44.1391 68.1989 44.1391 68.2098 44.1391C68.2207 44.1391 68.2316 44.1391 68.2425 44.1391C68.2534 44.1391 68.2643 44.1391 68.2752 44.1391C68.2861 44.1391 68.2971 44.1391 68.308 44.1391C68.3189 44.1391 68.3298 44.1391 68.3407 44.1391C68.3516 44.1391 68.3626 44.1391 68.3735 44.1391C68.3844 44.1391 68.3953 44.1391 68.4063 44.1391C68.4172 44.1391 68.4281 44.1391 68.439 44.1391C68.45 44.1391 68.4609 44.1391 68.4718 44.1391C68.4828 44.1391 68.4937 44.1391 68.5046 44.1391C68.5156 44.1391 68.5265 44.1391 68.5375 44.1391C68.5484 44.1391 68.5593 44.1391 68.5703 44.1391C68.5812 44.1391 68.5922 44.1391 68.6031 44.1391C68.6141 44.1391 68.625 44.1391 68.636 44.1391C68.6469 44.1391 68.6579 44.1391 68.6688 44.1391C68.6798 44.1391 68.6907 44.1391 68.7017 44.1391C68.7126 44.1391 68.7236 44.1391 68.7346 44.1391C68.7455 44.1391 68.7565 44.1391 68.7674 44.1391C68.7784 44.1391 68.7894 44.1391 68.8003 44.1391C68.8113 44.1391 68.8223 44.1391 68.8332 44.1391C68.8442 44.1391 68.8552 44.1391 68.8661 44.1391C68.8771 44.1391 68.8881 44.1391 68.899 44.1391C68.91 44.1391 68.921 44.1391 68.932 44.1391C68.9429 44.1391 68.9539 44.1391 68.9649 44.1391C68.9759 44.1391 68.9868 44.1391 68.9978 44.1391C69.0088 44.1391 69.0198 44.1391 69.0307 44.1391C69.0417 44.1391 69.0527 44.1391 69.0637 44.1391C69.0747 44.1391 69.0857 44.1391 69.0966 44.1391C69.1076 44.1391 69.1186 44.1391 69.1296 44.1391C69.1406 44.1391 69.1516 44.1391 69.1626 44.1391C69.1735 44.1391 69.1845 44.1391 69.1955 44.1391C69.2065 44.1391 69.2175 44.1391 69.2285 44.1391C69.2395 44.1391 69.2505 44.1391 69.2615 44.1391C69.2725 44.1391 69.2835 44.1391 69.2944 44.1391C69.3054 44.1391 69.3164 44.1391 69.3274 44.1391C69.3384 44.1391 69.3494 44.1391 69.3604 44.1391C69.3714 44.1391 69.3824 44.1391 69.3934 44.1391C69.4044 44.1391 69.4154 44.1391 69.4264 44.1391C69.4374 44.1391 69.4484 44.1391 69.4594 44.1391C69.4704 44.1391 69.4814 44.1391 69.4924 44.1391C69.5034 44.1391 69.5144 44.1391 69.5254 44.1391C69.5364 44.1391 69.5474 44.1391 69.5584 44.1391C69.5694 44.1391 69.5804 44.1391 69.5914 44.1391C69.5917 44.1391 70.1192 44.1391 70.1195 44.1391V39.6337C70.1192 39.6337 69.5917 39.6337 69.5914 39.6337C69.5804 39.6337 69.5694 39.6337 69.5584 39.6337C69.5474 39.6337 69.5364 39.6337 69.5254 39.6337C69.5144 39.6337 69.5034 39.6337 69.4924 39.6337C69.4814 39.6337 69.4704 39.6337 69.4594 39.6337C69.4484 39.6337 69.4374 39.6337 69.4264 39.6337C69.4154 39.6337 69.4044 39.6337 69.3934 39.6337C69.3824 39.6337 69.3714 39.6337 69.3604 39.6337C69.3494 39.6337 69.3384 39.6337 69.3274 39.6337C69.3164 39.6337 69.3054 39.6337 69.2944 39.6337C69.2835 39.6337 69.2725 39.6337 69.2615 39.6337C69.2505 39.6337 69.2395 39.6337 69.2285 39.6337C69.2175 39.6337 69.2065 39.6337 69.1955 39.6337C69.1845 39.6337 69.1735 39.6337 69.1626 39.6337C69.1516 39.6337 69.1406 39.6337 69.1296 39.6337C69.1186 39.6337 69.1076 39.6337 69.0966 39.6337C69.0857 39.6337 69.0747 39.6337 69.0637 39.6337C69.0527 39.6337 69.0417 39.6337 69.0307 39.6337C69.0198 39.6337 69.0088 39.6337 68.9978 39.6337C68.9868 39.6337 68.9759 39.6337 68.9649 39.6337C68.9539 39.6337 68.9429 39.6337 68.932 39.6337C68.921 39.6337 68.91 39.6337 68.899 39.6337C68.8881 39.6337 68.8771 39.6337 68.8661 39.6337C68.8552 39.6337 68.8442 39.6337 68.8332 39.6337C68.8223 39.6337 68.8113 39.6337 68.8003 39.6337C68.7894 39.6337 68.7784 39.6337 68.7674 39.6337C68.7565 39.6337 68.7455 39.6337 68.7346 39.6337C68.7236 39.6337 68.7126 39.6337 68.7017 39.6337C68.6907 39.6337 68.6798 39.6337 68.6688 39.6337C68.6579 39.6337 68.6469 39.6337 68.636 39.6337C68.625 39.6337 68.6141 39.6337 68.6031 39.6337C68.5922 39.6337 68.5812 39.6337 68.5703 39.6337C68.5593 39.6337 68.5484 39.6337 68.5375 39.6337C68.5265 39.6337 68.5156 39.6337 68.5046 39.6337C68.4937 39.6337 68.4828 39.6337 68.4718 39.6337C68.4609 39.6337 68.45 39.6337 68.439 39.6337C68.4281 39.6337 68.4172 39.6337 68.4063 39.6337C68.3953 39.6337 68.3844 39.6337 68.3735 39.6337C68.3626 39.6337 68.3516 39.6337 68.3407 39.6337C68.3298 39.6337 68.3189 39.6337 68.308 39.6337C68.2971 39.6337 68.2861 39.6337 68.2752 39.6337C68.2643 39.6337 68.2534 39.6337 68.2425 39.6337C68.2316 39.6337 68.2207 39.6337 68.2098 39.6337C68.1989 39.6337 68.188 39.6337 68.1771 39.6337C68.1662 39.6337 68.1553 39.6337 68.1444 39.6337C68.1335 39.6337 68.1226 39.6337 68.1117 39.6337C68.1008 39.6337 68.09 39.6337 68.0791 39.6337C68.0682 39.6337 68.0573 39.6337 68.0464 39.6337C68.0355 39.6337 68.0247 39.6337 68.0138 39.6337C68.0029 39.6337 67.992 39.6337 67.9812 39.6337C67.9703 39.6337 67.9594 39.6337 67.9486 39.6337C67.9377 39.6337 67.9268 39.6337 67.916 39.6337C67.9051 39.6337 67.8943 39.6337 67.8834 39.6337C67.8725 39.6337 67.8617 39.6337 67.8508 39.6337C67.84 39.6337 67.8291 39.6337 67.8183 39.6337C67.8074 39.6337 67.7966 39.6337 67.7858 39.6337C67.7749 39.6337 67.7641 39.6337 67.7532 39.6337C67.7424 39.6337 67.7316 39.6337 67.7207 39.6337C67.7099 39.6337 67.6991 39.6337 67.6883 39.6337C67.6774 39.6337 67.6666 39.6337 67.6558 39.6337C67.645 39.6337 67.6342 39.6337 67.6234 39.6337C67.6125 39.6337 67.6017 39.6337 67.5909 39.6337C67.5801 39.6337 67.5693 39.6337 67.5585 39.6337C67.5477 39.6337 67.5369 39.6337 67.5261 39.6337C67.5153 39.6337 67.5045 39.6337 67.4937 39.6337C67.483 39.6337 67.4722 39.6337 67.4614 39.6337C67.4506 39.6337 67.4398 39.6337 67.429 39.6337C67.4183 39.6337 67.4075 39.6337 67.3967 39.6337C67.386 39.6337 67.3752 39.6337 67.3644 39.6337C67.3537 39.6337 67.3429 39.6337 67.3321 39.6337C67.3214 39.6337 67.3106 39.6337 67.2999 39.6337C67.2891 39.6337 67.2784 39.6337 67.2676 39.6337C67.2569 39.6337 67.2462 39.6337 67.2354 39.6337C67.2247 39.6337 67.214 39.6337 67.2032 39.6337C67.1925 39.6337 67.1818 39.6337 67.171 39.6337C67.1603 39.6337 67.1496 39.6337 67.1389 39.6337C67.1282 39.6337 67.1175 39.6337 67.1067 39.6337C67.096 39.6337 67.0853 39.6337 67.0746 39.6337C67.0639 39.6337 67.0532 39.6337 67.0425 39.6337C67.0318 39.6337 67.0211 39.6337 67.0105 39.6337C66.9998 39.6337 66.9891 39.6337 66.9784 39.6337C66.9677 39.6337 66.9571 39.6337 66.9464 39.6337C66.9357 39.6337 66.925 39.6337 66.9144 39.6337C66.9037 39.6337 66.893 39.6337 66.8824 39.6337C66.8717 39.6337 66.8611 39.6337 66.8504 39.6337C66.8398 39.6337 66.8291 39.6337 66.8185 39.6337C66.8079 39.6337 66.7972 39.6337 66.7866 39.6337C66.776 39.6337 66.7653 39.6337 66.7547 39.6337C66.7441 39.6337 66.7335 39.6337 66.7228 39.6337C66.7122 39.6337 66.7016 39.6337 66.691 39.6337C66.6804 39.6337 66.6698 39.6337 66.6592 39.6337C66.6486 39.6337 66.638 39.6337 66.6274 39.6337C66.6168 39.6337 66.6062 39.6337 66.5956 39.6337C66.585 39.6337 66.5745 39.6337 66.5639 39.6337C66.5533 39.6337 66.5427 39.6337 66.5322 39.6337C66.5216 39.6337 66.5111 39.6337 66.5005 39.6337C66.4899 39.6337 66.4794 39.6337 66.4688 39.6337C66.4583 39.6337 66.4477 39.6337 66.4372 39.6337C66.4267 39.6337 66.4161 39.6337 66.4056 39.6337C66.3951 39.6337 66.3845 39.6337 66.374 39.6337C66.3635 39.6337 66.353 39.6337 66.3425 39.6337C66.332 39.6337 66.3215 39.6337 66.311 39.6337C66.3005 39.6337 66.29 39.6337 66.2795 39.6337C66.269 39.6337 66.2585 39.6337 66.248 39.6337C66.2375 39.6337 66.227 39.6337 66.2166 39.6337C66.2061 39.6337 66.1956 39.6337 66.1852 39.6337C66.1747 39.6337 66.1642 39.6337 66.1538 39.6337C66.1433 39.6337 66.1329 39.6337 66.1224 39.6337C66.112 39.6337 66.1015 39.6337 66.0911 39.6337C66.0807 39.6337 66.0702 39.6337 66.0598 39.6337C66.0494 39.6337 66.039 39.6337 66.0286 39.6337C66.0181 39.6337 66.0077 39.6337 65.9973 39.6337C65.9869 39.6337 65.9765 39.6337 65.9661 39.6337C65.9557 39.6337 65.9453 39.6337 65.935 39.6337C65.9246 39.6337 65.9142 39.6337 65.9038 39.6337C65.8934 39.6337 65.8831 39.6337 65.8727 39.6337C65.8623 39.6337 65.852 39.6337 65.8416 39.6337C65.8313 39.6337 65.8209 39.6337 65.8106 39.6337C65.8003 39.6337 65.7899 39.6337 65.7796 39.6337C65.7693 39.6337 65.7589 39.6337 65.7486 39.6337C65.7383 39.6337 65.728 39.6337 65.7177 39.6337C65.7074 39.6337 65.6971 39.6337 65.6868 39.6337C65.6765 39.6337 65.6662 39.6337 65.6559 39.6337C65.6456 39.6337 65.6353 39.6337 65.625 39.6337C65.6148 39.6337 65.6045 39.6337 65.5942 39.6337C65.584 39.6337 65.5737 39.6337 65.5634 39.6337C65.5532 39.6337 65.5429 39.6337 65.5327 39.6337C65.5225 39.6337 65.5122 39.6337 65.502 39.6337C65.4918 39.6337 65.4815 39.6337 65.4713 39.6337C65.4611 39.6337 65.4509 39.6337 65.4407 39.6337C65.4305 39.6337 65.4203 39.6337 65.4101 39.6337C65.3999 39.6337 65.3897 39.6337 65.3795 39.6337C65.3693 39.6337 65.3592 39.6337 65.349 39.6337C65.3388 39.6337 65.3287 39.6337 65.3185 39.6337C65.3083 39.6337 65.2982 39.6337 65.288 39.6337C65.2779 39.6337 65.2677 39.6337 65.2576 39.6337C65.2475 39.6337 65.2374 39.6337 65.2272 39.6337C65.2171 39.6337 65.207 39.6337 65.1969 39.6337C65.1868 39.6337 65.1767 39.6337 65.1666 39.6337C65.1565 39.6337 65.1464 39.6337 65.1363 39.6337C65.1262 39.6337 65.1161 39.6337 65.1061 39.6337C65.096 39.6337 65.0859 39.6337 65.0759 39.6337C65.0658 39.6337 65.0558 39.6337 65.0457 39.6337C65.0357 39.6337 65.0256 39.6337 65.0156 39.6337C65.0056 39.6337 64.9955 39.6337 64.9855 39.6337C64.9755 39.6337 64.9655 39.6337 64.9555 39.6337C64.9455 39.6337 64.9355 39.6337 64.9255 39.6337C64.9155 39.6337 64.9055 39.6337 64.8955 39.6337C64.8855 39.6337 64.8756 39.6337 64.8656 39.6337C64.8556 39.6337 64.8457 39.6337 64.8357 39.6337C64.8258 39.6337 64.8158 39.6337 64.8059 39.6337C64.7959 39.6337 64.786 39.6337 64.7761 39.6337C64.7662 39.6337 64.7562 39.6337 64.7463 39.6337C64.7364 39.6337 64.7265 39.6337 64.7166 39.6337C64.7067 39.6337 64.6968 39.6337 64.6869 39.6337C64.677 39.6337 64.6672 39.6337 64.6573 39.6337C64.6474 39.6337 64.6376 39.6337 64.6277 39.6337C64.6274 39.6337 64.5099 39.6337 64.5098 39.6337C64.5045 39.6337 64.0465 39.6337 64.0452 39.6337C64.0349 39.6337 63.5988 39.6337 63.5928 39.6337C63.5766 39.6337 63.1653 39.6337 63.1537 39.6337C63.1304 39.6337 62.7472 39.6337 62.7289 39.6337C62.6976 39.6337 62.3456 39.6337 62.3196 39.6337C62.2226 39.6337 61.625 39.6337 61.5515 39.6337C61.4071 39.6337 60.9761 39.6337 60.858 39.6337C60.3584 39.6337 60.1062 39.6337 59.729 39.6337C59.5672 39.6337 59.66 39.6337 59.5068 39.6337C59.3232 39.6337 59.4854 39.6337 59.3107 39.6337C59.1036 39.6337 59.3396 39.6337 59.1418 39.6337C59.0301 39.6337 59.1773 39.6337 59.0679 39.6337C58.9497 39.6337 59.1171 39.6337 59.0013 39.6337C58.8763 39.6337 59.0644 39.6337 58.9419 39.6337C58.8101 39.6337 59.0194 39.6337 58.8901 39.6337C58.751 39.6337 58.9823 39.6337 58.8458 39.6337C58.6994 39.6337 58.9532 39.6337 58.8093 39.6337C58.6552 39.6337 58.9321 39.6337 58.7807 39.6337C58.6188 39.6337 58.9193 39.6337 58.7601 39.6337C58.59 39.6337 58.9149 39.6337 58.7476 39.6337C58.6598 39.6337 58.8316 39.6337 58.7445 39.6337C58.6999 39.6337 58.7881 39.6337 58.7437 39.6337C58.7436 39.6337 58.7435 39.6337 58.7435 39.6337C58.7435 39.6337 58.7434 39.6337 58.7434 41.8864ZM58.0676 63.7375C58.0777 63.7375 58.0879 63.7375 58.098 63.7375C58.1081 63.7375 58.1183 63.7375 58.1284 63.7375C58.1386 63.7375 58.1487 63.7375 58.1589 63.7375C58.1691 63.7375 58.1792 63.7375 58.1894 63.7375C58.1996 63.7375 58.2098 63.7375 58.22 63.7375C58.2302 63.7375 58.2404 63.7375 58.2506 63.7375C58.2608 63.7375 58.271 63.7375 58.2812 63.7375C58.2915 63.7375 58.3017 63.7375 58.3119 63.7375C58.3222 63.7375 58.3324 63.7375 58.3427 63.7375C58.3529 63.7375 58.3632 63.7375 58.3735 63.7375C58.3837 63.7375 58.394 63.7375 58.4043 63.7375C58.4146 63.7375 58.4249 63.7375 58.4352 63.7375C58.4454 63.7375 58.4557 63.7375 58.4661 63.7375C58.4764 63.7375 58.4867 63.7375 58.497 63.7375C58.5073 63.7375 58.5177 63.7375 58.528 63.7375C58.5383 63.7375 58.5487 63.7375 58.559 63.7375C58.5694 63.7375 58.5797 63.7375 58.5901 63.7375C58.6004 63.7375 58.6108 63.7375 58.6212 63.7375C58.6316 63.7375 58.642 63.7375 58.6523 63.7375C58.6627 63.7375 58.6731 63.7375 58.6835 63.7375C58.6939 63.7375 58.7043 63.7375 58.7147 63.7375C58.7252 63.7375 58.7356 63.7375 58.746 63.7375C58.7564 63.7375 58.7669 63.7375 58.7773 63.7375C58.7877 63.7375 58.7982 63.7375 58.8086 63.7375C58.8191 63.7375 58.8296 63.7375 58.84 63.7375C58.8505 63.7375 58.8609 63.7375 58.8714 63.7375C58.8819 63.7375 58.8924 63.7375 58.9029 63.7375C58.9134 63.7375 58.9238 63.7375 58.9343 63.7375C58.9448 63.7375 58.9553 63.7375 58.9659 63.7375C58.9764 63.7375 58.9869 63.7375 58.9974 63.7375C59.0079 63.7375 59.0185 63.7375 59.029 63.7375C59.0395 63.7375 59.0501 63.7375 59.0606 63.7375C59.0711 63.7375 59.0817 63.7375 59.0922 63.7375C59.1028 63.7375 59.1134 63.7375 59.1239 63.7375C59.1345 63.7375 59.1451 63.7375 59.1556 63.7375C59.1662 63.7375 59.1768 63.7375 59.1874 63.7375C59.198 63.7375 59.2086 63.7375 59.2192 63.7375C59.2298 63.7375 59.2404 63.7375 59.251 63.7375C59.2616 63.7375 59.2722 63.7375 59.2828 63.7375C59.2934 63.7375 59.3041 63.7375 59.3147 63.7375C59.3253 63.7375 59.3359 63.7375 59.3466 63.7375C59.3572 63.7375 59.3679 63.7375 59.3785 63.7375C59.3892 63.7375 59.3998 63.7375 59.4105 63.7375C59.4211 63.7375 59.4318 63.7375 59.4425 63.7375C59.4531 63.7375 59.4638 63.7375 59.4745 63.7375C59.4851 63.7375 59.4958 63.7375 59.5065 63.7375C59.5172 63.7375 59.5279 63.7375 59.5386 63.7375C59.5493 63.7375 59.56 63.7375 59.5707 63.7375C59.5814 63.7375 59.5921 63.7375 59.6028 63.7375C59.6135 63.7375 59.6242 63.7375 59.635 63.7375C59.6457 63.7375 59.6564 63.7375 59.6671 63.7375C59.6779 63.7375 59.6886 63.7375 59.6993 63.7375C59.7101 63.7375 59.7208 63.7375 59.7316 63.7375C59.7423 63.7375 59.753 63.7375 59.7638 63.7375C59.7746 63.7375 59.7853 63.7375 59.7961 63.7375C59.8068 63.7375 59.8176 63.7375 59.8284 63.7375C59.8391 63.7375 59.8499 63.7375 59.8607 63.7375C59.8715 63.7375 59.8823 63.7375 59.893 63.7375C59.9038 63.7375 59.9146 63.7375 59.9254 63.7375C59.9362 63.7375 59.947 63.7375 59.9578 63.7375C59.9686 63.7375 59.9794 63.7375 59.9902 63.7375C60.001 63.7375 60.0118 63.7375 60.0226 63.7375C60.0335 63.7375 60.0443 63.7375 60.0551 63.7375C60.0659 63.7375 60.0767 63.7375 60.0876 63.7375C60.0984 63.7375 60.1092 63.7375 60.1201 63.7375C60.1309 63.7375 60.1417 63.7375 60.1526 63.7375C60.1634 63.7375 60.1743 63.7375 60.1851 63.7375C60.1959 63.7375 60.2068 63.7375 60.2176 63.7375C60.2285 63.7375 60.2394 63.7375 60.2502 63.7375C60.2611 63.7375 60.2719 63.7375 60.2828 63.7375C60.2937 63.7375 60.3045 63.7375 60.3154 63.7375C60.3263 63.7375 60.3372 63.7375 60.348 63.7375C60.3589 63.7375 60.3698 63.7375 60.3807 63.7375C60.3915 63.7375 60.4024 63.7375 60.4133 63.7375C60.4242 63.7375 60.4351 63.7375 60.446 63.7375C60.4569 63.7375 60.4678 63.7375 60.4787 63.7375C60.4896 63.7375 60.5005 63.7375 60.5114 63.7375C60.5223 63.7375 60.5332 63.7375 60.5441 63.7375C60.555 63.7375 60.5659 63.7375 60.5768 63.7375C60.5877 63.7375 60.5986 63.7375 60.6096 63.7375C60.6205 63.7375 60.6314 63.7375 60.6423 63.7375C60.6532 63.7375 60.6642 63.7375 60.6751 63.7375C60.686 63.7375 60.6969 63.7375 60.7079 63.7375C60.7188 63.7375 60.7297 63.7375 60.7407 63.7375C60.7516 63.7375 60.7625 63.7375 60.7735 63.7375C60.7844 63.7375 60.7953 63.7375 60.8063 63.7375C60.8172 63.7375 60.8282 63.7375 60.8391 63.7375C60.8501 63.7375 60.861 63.7375 60.872 63.7375C60.8829 63.7375 60.8938 63.7375 60.9048 63.7375C60.9157 63.7375 60.9267 63.7375 60.9377 63.7375C60.9486 63.7375 60.9596 63.7375 60.9705 63.7375C60.9815 63.7375 60.9924 63.7375 61.0034 63.7375C61.0144 63.7375 61.0253 63.7375 61.0363 63.7375C61.0472 63.7375 61.0582 63.7375 61.0692 63.7375C61.0801 63.7375 61.0911 63.7375 61.1021 63.7375C61.113 63.7375 61.124 63.7375 61.135 63.7375C61.146 63.7375 61.1569 63.7375 61.1679 63.7375C61.1789 63.7375 61.1898 63.7375 61.2008 63.7375C61.2118 63.7375 61.2228 63.7375 61.2337 63.7375C61.2447 63.7375 61.2557 63.7375 61.2667 63.7375C61.2777 63.7375 61.2886 63.7375 61.2996 63.7375C61.3106 63.7375 61.3216 63.7375 61.3326 63.7375C61.3435 63.7375 61.3545 63.7375 61.3655 63.7375C61.3765 63.7375 61.3875 63.7375 61.3985 63.7375C61.4094 63.7375 61.4204 63.7375 61.4314 63.7375C61.4424 63.7375 61.4534 63.7375 61.4644 63.7375C61.4753 63.7375 61.4863 63.7375 61.4973 63.7375C61.5083 63.7375 61.5193 63.7375 61.5303 63.7375C61.5413 63.7375 61.5523 63.7375 61.5632 63.7375C61.5742 63.7375 61.5852 63.7375 61.5962 63.7375C61.6072 63.7375 61.6182 63.7375 61.6292 63.7375C61.6402 63.7375 61.6512 63.7375 61.6621 63.7375C61.6731 63.7375 61.6841 63.7375 61.6951 63.7375C61.7061 63.7375 61.7171 63.7375 61.7281 63.7375C61.7391 63.7375 61.75 63.7375 61.761 63.7375C61.772 63.7375 61.783 63.7375 61.794 63.7375C61.805 63.7375 61.816 63.7375 61.827 63.7375C61.838 63.7375 61.8489 63.7375 61.8599 63.7375C61.8709 63.7375 61.8819 63.7375 61.8929 63.7375C61.9039 63.7375 61.9149 63.7375 61.9258 63.7375C61.9368 63.7375 61.9478 63.7375 61.9588 63.7375C61.9698 63.7375 61.9808 63.7375 61.9917 63.7375C62.0027 63.7375 62.0137 63.7375 62.0247 63.7375C62.0357 63.7375 62.0466 63.7375 62.0576 63.7375C62.0686 63.7375 62.0796 63.7375 62.0906 63.7375C62.1015 63.7375 62.1125 63.7375 62.1235 63.7375C62.1345 63.7375 62.1454 63.7375 62.1564 63.7375C62.1674 63.7375 62.1784 63.7375 62.1893 63.7375C62.2003 63.7375 62.2113 63.7375 62.2222 63.7375C62.2332 63.7375 62.2442 63.7375 62.2552 63.7375C62.2661 63.7375 62.2771 63.7375 62.2881 63.7375C62.299 63.7375 62.31 63.7375 62.3209 63.7375C62.3319 63.7375 62.3429 63.7375 62.3538 63.7375C62.3648 63.7375 62.3757 63.7375 62.3867 63.7375C62.3977 63.7375 62.4086 63.7375 62.4196 63.7375C62.4305 63.7375 62.4415 63.7375 62.4524 63.7375C62.4634 63.7375 62.4743 63.7375 62.4853 63.7375C62.4962 63.7375 62.5072 63.7375 62.5181 63.7375C62.529 63.7375 62.54 63.7375 62.5509 63.7375C62.5619 63.7375 62.5728 63.7375 62.5837 63.7375C62.5947 63.7375 62.6056 63.7375 62.6165 63.7375C62.6275 63.7375 62.6384 63.7375 62.6493 63.7375C62.6603 63.7375 62.6712 63.7375 62.6821 63.7375C62.693 63.7375 62.704 63.7375 62.7149 63.7375C62.7258 63.7375 62.7367 63.7375 62.7476 63.7375C62.7586 63.7375 62.7695 63.7375 62.7804 63.7375C62.7913 63.7375 62.8022 63.7375 62.8131 63.7375C62.824 63.7375 62.8349 63.7375 62.8458 63.7375C62.8567 63.7375 62.8676 63.7375 62.8785 63.7375C62.8894 63.7375 62.9003 63.7375 62.9112 63.7375C62.9221 63.7375 62.933 63.7375 62.9439 63.7375C62.9547 63.7375 62.9656 63.7375 62.9765 63.7375C62.9874 63.7375 62.9983 63.7375 63.0091 63.7375C63.02 63.7375 63.0309 63.7375 63.0418 63.7375C63.0526 63.7375 63.0635 63.7375 63.0744 63.7375C63.0852 63.7375 63.0961 63.7375 63.1069 63.7375C63.1178 63.7375 63.1287 63.7375 63.1395 63.7375C63.1504 63.7375 63.1612 63.7375 63.1721 63.7375C63.1829 63.7375 63.1937 63.7375 63.2046 63.7375C63.2154 63.7375 63.2263 63.7375 63.2371 63.7375C63.2479 63.7375 63.2588 63.7375 63.2696 63.7375C63.2804 63.7375 63.2912 63.7375 63.302 63.7375C63.3129 63.7375 63.3237 63.7375 63.3345 63.7375C63.3453 63.7375 63.3561 63.7375 63.3669 63.7375C63.3777 63.7375 63.3885 63.7375 63.3993 63.7375C63.4101 63.7375 63.4209 63.7375 63.4317 63.7375C63.4425 63.7375 63.4533 63.7375 63.4641 63.7375C63.4749 63.7375 63.4856 63.7375 63.4964 63.7375C63.5072 63.7375 63.518 63.7375 63.5287 63.7375C63.5395 63.7375 63.5503 63.7375 63.561 63.7375C63.5718 63.7375 63.5825 63.7375 63.5933 63.7375C63.604 63.7375 63.6148 63.7375 63.6255 63.7375C63.6363 63.7375 63.647 63.7375 63.6578 63.7375C63.6685 63.7375 63.6792 63.7375 63.6899 63.7375C63.7007 63.7375 63.7114 63.7375 63.7221 63.7375C63.7328 63.7375 63.7436 63.7375 63.7543 63.7375C63.765 63.7375 63.7757 63.7375 63.7864 63.7375C63.7971 63.7375 63.8078 63.7375 63.8185 63.7375C63.8292 63.7375 63.8399 63.7375 63.8505 63.7375C63.8612 63.7375 63.8719 63.7375 63.8826 63.7375C63.8932 63.7375 63.9039 63.7375 63.9146 63.7375C63.9252 63.7375 63.9359 63.7375 63.9466 63.7375C63.9572 63.7375 63.9679 63.7375 63.9785 63.7375C63.9892 63.7375 63.9998 63.7375 64.0104 63.7375C64.0211 63.7375 64.0317 63.7375 64.0423 63.7375C64.053 63.7375 64.0636 63.7375 64.0742 63.7375C64.0848 63.7375 64.0954 63.7375 64.106 63.7375C64.1166 63.7375 64.1272 63.7375 64.1378 63.7375C64.1484 63.7375 64.159 63.7375 64.1696 63.7375C64.1802 63.7375 64.1908 63.7375 64.2013 63.7375C64.2119 63.7375 64.2225 63.7375 64.233 63.7375C64.2436 63.7375 64.2542 63.7375 64.2647 63.7375C64.2753 63.7375 64.2858 63.7375 64.2964 63.7375C64.3069 63.7375 64.3174 63.7375 64.328 63.7375C64.3385 63.7375 64.349 63.7375 64.3595 63.7375C64.3701 63.7375 64.3806 63.7375 64.3911 63.7375C64.4016 63.7375 64.4121 63.7375 64.4226 63.7375C64.4331 63.7375 64.4436 63.7375 64.4541 63.7375C64.4645 63.7375 64.475 63.7375 64.4855 63.7375C64.496 63.7375 64.5064 63.7375 64.5169 63.7375C64.5273 63.7375 64.5378 63.7375 64.5483 63.7375C64.5587 63.7375 64.5691 63.7375 64.5796 63.7375C64.59 63.7375 64.6004 63.7375 64.6109 63.7375C64.6213 63.7375 64.6317 63.7375 64.6421 63.7375C64.6525 63.7375 64.6629 63.7375 64.6733 63.7375C64.6837 63.7375 64.6941 63.7375 64.7045 63.7375C64.7149 63.7375 64.7253 63.7375 64.7357 63.7375C64.746 63.7375 64.7564 63.7375 64.7667 63.7375C64.7771 63.7375 64.7875 63.7375 64.7978 63.7375C64.8082 63.7375 64.8185 63.7375 64.8288 63.7375C64.8392 63.7375 64.8495 63.7375 64.8598 63.7375C64.8701 63.7375 64.8804 63.7375 64.8907 63.7375C64.9011 63.7375 64.9114 63.7375 64.9216 63.7375C64.9319 63.7375 64.9422 63.7375 64.9525 63.7375C64.9628 63.7375 64.973 63.7375 64.9833 63.7375C64.9936 63.7375 65.0038 63.7375 65.0141 63.7375C65.0243 63.7375 65.0346 63.7375 65.0448 63.7375C65.055 63.7375 65.0653 63.7375 65.0755 63.7375C65.0857 63.7375 65.0959 63.7375 65.1061 63.7375C65.1163 63.7375 65.1265 63.7375 65.1367 63.7375C65.1469 63.7375 65.1571 63.7375 65.1673 63.7375C65.1775 63.7375 65.1876 63.7375 65.1978 63.7375C65.208 63.7375 65.2181 63.7375 65.2283 63.7375C65.2384 63.7375 65.2485 63.7375 65.2587 63.7375C65.2688 63.7375 65.2789 63.7375 65.2891 63.7375C65.2992 63.7375 65.3093 63.7375 65.3194 63.7375C65.3295 63.7375 65.3396 63.7375 65.3497 63.7375C65.3597 63.7375 65.3698 63.7375 65.3799 63.7375C65.39 63.7375 65.4 63.7375 65.4101 63.7375C65.4201 63.7375 65.4302 63.7375 65.4402 63.7375C65.4502 63.7375 65.4603 63.7375 65.4703 63.7375C65.4803 63.7375 65.4903 63.7375 65.5003 63.7375C65.5103 63.7375 65.5203 63.7375 65.5303 63.7375C65.5403 63.7375 65.5503 63.7375 65.5603 63.7375C65.5702 63.7375 65.5802 63.7375 65.5901 63.7375C65.6001 63.7375 65.61 63.7375 65.62 63.7375C65.6299 63.7375 65.6398 63.7375 65.6498 63.7375C65.6597 63.7375 65.6696 63.7375 65.6795 63.7375C65.6894 63.7375 65.6993 63.7375 65.7092 63.7375C65.7191 63.7375 65.7289 63.7375 65.7388 63.7375C65.7487 63.7375 65.7585 63.7375 65.7684 63.7375C65.7782 63.7375 65.7881 63.7375 65.7979 63.7375C65.8077 63.7375 65.8176 63.7375 65.8274 63.7375C65.8372 63.7375 65.847 63.7375 65.8568 63.7375C65.8666 63.7375 65.8764 63.7375 65.8862 63.7375C65.8959 63.7375 65.9057 63.7375 65.9155 63.7375C65.9252 63.7375 65.935 63.7375 65.9447 63.7375C65.9545 63.7375 65.9642 63.7375 65.9739 63.7375C65.9837 63.7375 65.9934 63.7375 66.0031 63.7375C66.0128 63.7375 66.0225 63.7375 66.0322 63.7375C66.0418 63.7375 66.0515 63.7375 66.0612 63.7375C66.0708 63.7375 66.0805 63.7375 66.0902 63.7375C66.0998 63.7375 66.1094 63.7375 66.1191 63.7375C66.1287 63.7375 66.1383 63.7375 66.1479 63.7375C66.1575 63.7375 66.1671 63.7375 66.1767 63.7375C66.1863 63.7375 66.1959 63.7375 66.2055 63.7375C66.215 63.7375 66.2246 63.7375 66.2341 63.7375C66.2437 63.7375 66.2532 63.7375 66.2628 63.7375C66.2723 63.7375 66.2818 63.7375 66.2913 63.7375C66.3008 63.7375 66.3103 63.7375 66.3198 63.7375C66.3293 63.7375 66.3388 63.7375 66.3483 63.7375C66.3577 63.7375 66.3672 63.7375 66.3766 63.7375C66.3861 63.7375 66.3955 63.7375 66.4049 63.7375C66.4144 63.7375 66.4238 63.7375 66.4332 63.7375C66.4426 63.7375 66.452 63.7375 66.4614 63.7375C66.4708 63.7375 66.4801 63.7375 66.4895 63.7375C66.4989 63.7375 66.5082 63.7375 66.5176 63.7375C66.5269 63.7375 66.5363 63.7375 66.5456 63.7375C66.5549 63.7375 66.5642 63.7375 66.5735 63.7375C66.5828 63.7375 66.5921 63.7375 66.6014 63.7375C66.6107 63.7375 66.6199 63.7375 66.6292 63.7375C66.6384 63.7375 66.6477 63.7375 66.6569 63.7375C66.6662 63.7375 66.6754 63.7375 66.6846 63.7375C66.6938 63.7375 66.703 63.7375 66.7122 63.7375C66.7214 63.7375 66.7306 63.7375 66.7397 63.7375C66.7489 63.7375 66.7581 63.7375 66.7672 63.7375C66.7764 63.7375 66.7855 63.7375 66.7946 63.7375C66.8038 63.7375 66.8129 63.7375 66.822 63.7375C66.8311 63.7375 66.8402 63.7375 66.8492 63.7375C66.8583 63.7375 66.8674 63.7375 66.8764 63.7375C66.8855 63.7375 66.8945 63.7375 66.9036 63.7375C66.9126 63.7375 66.9216 63.7375 66.9306 63.7375C66.9396 63.7375 66.9486 63.7375 66.9576 63.7375C66.9666 63.7375 66.9756 63.7375 66.9845 63.7375C66.9935 63.7375 67.0025 63.7375 67.0114 63.7375C67.0203 63.7375 67.0293 63.7375 67.0382 63.7375C67.0471 63.7375 67.056 63.7375 67.0649 63.7375C67.0738 63.7375 67.0827 63.7375 67.0915 63.7375C67.1004 63.7375 67.1092 63.7375 67.1181 63.7375C67.1269 63.7375 67.1358 63.7375 67.1446 63.7375C67.1534 63.7375 67.1622 63.7375 67.171 63.7375C67.1798 63.7375 67.1886 63.7375 67.1973 63.7375C67.2061 63.7375 67.2149 63.7375 67.2236 63.7375C67.2323 63.7375 67.2411 63.7375 67.2498 63.7375C67.2585 63.7375 67.2672 63.7375 67.2759 63.7375C67.2846 63.7375 67.2933 63.7375 67.302 63.7375C67.3106 63.7375 67.3193 63.7375 67.3279 63.7375C67.3366 63.7375 67.3452 63.7375 67.3538 63.7375C67.3624 63.7375 67.371 63.7375 67.3796 63.7375C67.3882 63.7375 67.3968 63.7375 67.4054 63.7375C67.4139 63.7375 67.4225 63.7375 67.431 63.7375C67.4396 63.7375 67.4481 63.7375 67.4566 63.7375C67.4651 63.7375 67.4736 63.7375 67.4821 63.7375C67.4906 63.7375 67.4991 63.7375 67.5076 63.7375C67.516 63.7375 67.5245 63.7375 67.5329 63.7375C67.5413 63.7375 67.5498 63.7375 67.5582 63.7375C67.5666 63.7375 67.575 63.7375 67.5834 63.7375C67.5917 63.7375 67.6001 63.7375 67.6085 63.7375C67.6168 63.7375 67.6252 63.7375 67.6335 63.7375C67.6418 63.7375 67.6501 63.7375 67.6584 63.7375C67.6667 63.7375 67.675 63.7375 67.6833 63.7375C67.6916 63.7375 67.6998 63.7375 67.7081 63.7375C67.7163 63.7375 67.7246 63.7375 67.7328 63.7375C67.741 63.7375 67.7492 63.7375 67.7574 63.7375C67.7656 63.7375 67.7738 63.7375 67.7819 63.7375C67.7901 63.7375 67.7982 63.7375 67.8064 63.7375C67.8145 63.7375 67.8226 63.7375 67.8307 63.7375C67.8389 63.7375 67.8469 63.7375 67.855 63.7375C67.8631 63.7375 67.8712 63.7375 67.8792 63.7375C67.8873 63.7375 67.8953 63.7375 67.9033 63.7375C67.9114 63.7375 67.9194 63.7375 67.9274 63.7375C67.9354 63.7375 67.9433 63.7375 67.9513 63.7375C67.9593 63.7375 67.9672 63.7375 67.9752 63.7375C67.9831 63.7375 67.991 63.7375 67.9989 63.7375C68.0068 63.7375 68.0147 63.7375 68.0226 63.7375C68.0305 63.7375 68.0383 63.7375 68.0462 63.7375C68.054 63.7375 68.0619 63.7375 68.0697 63.7375C68.0775 63.7375 68.0853 63.7375 68.0931 63.7375C68.1009 63.7375 68.1087 63.7375 68.1164 63.7375C68.1242 63.7375 68.1319 63.7375 68.1397 63.7375C68.1474 63.7375 68.1551 63.7375 68.1628 63.7375C68.1705 63.7375 68.1782 63.7375 68.1859 63.7375C68.1935 63.7375 68.2012 63.7375 68.2088 63.7375C68.2165 63.7375 68.2241 63.7375 68.2317 63.7375C68.2393 63.7375 68.2469 63.7375 68.2545 63.7375C68.2621 63.7375 68.2696 63.7375 68.2772 63.7375C68.2847 63.7375 68.2923 63.7375 68.2998 63.7375C68.3073 63.7375 68.3148 63.7375 68.3223 63.7375C68.3298 63.7375 68.3372 63.7375 68.3447 63.7375C68.3521 63.7375 68.3596 63.7375 68.367 63.7375C68.3744 63.7375 68.3818 63.7375 68.3892 63.7375C68.3966 63.7375 68.404 63.7375 68.4114 63.7375C68.4187 63.7375 68.4261 63.7375 68.4334 63.7375C68.4407 63.7375 68.448 63.7375 68.4553 63.7375C68.4626 63.7375 68.4699 63.7375 68.4772 63.7375C68.4844 63.7375 68.4917 63.7375 68.4989 63.7375C68.5062 63.7375 68.5134 63.7375 68.5206 63.7375C68.5278 63.7375 68.535 63.7375 68.5421 63.7375C68.5493 63.7375 68.5565 63.7375 68.5636 63.7375C68.5707 63.7375 68.5778 63.7375 68.585 63.7375C68.5921 63.7375 68.5991 63.7375 68.6062 63.7375C68.6133 63.7375 68.6203 63.7375 68.6274 63.7375C68.6344 63.7375 68.6414 63.7375 68.6484 63.7375C68.6554 63.7375 68.6624 63.7375 68.6694 63.7375C68.6764 63.7375 68.6833 63.7375 68.6903 63.7375C68.6972 63.7375 68.7041 63.7375 68.711 63.7375C68.7179 63.7375 68.7248 63.7375 68.7317 63.7375C68.7386 63.7375 68.7454 63.7375 68.7523 63.7375C68.7591 63.7375 68.7659 63.7375 68.7727 63.7375C68.7795 63.7375 68.7863 63.7375 68.7931 63.7375C68.7999 63.7375 68.8066 63.7375 68.8133 63.7375C68.8201 63.7375 68.8268 63.7375 68.8335 63.7375C68.8402 63.7375 68.8469 63.7375 68.8536 63.7375C68.8602 63.7375 68.8669 63.7375 68.8735 63.7375C68.8801 63.7375 68.8867 63.7375 68.8933 63.7375C68.8999 63.7375 68.9065 63.7375 68.9131 63.7375C68.9196 63.7375 68.9262 63.7375 68.9327 63.7375C68.9392 63.7375 68.9458 63.7375 68.9523 63.7375C68.9587 63.7375 68.9652 63.7375 68.9717 63.7375C68.9781 63.7375 68.9846 63.7375 68.991 63.7375C68.9974 63.7375 69.0038 63.7375 69.0102 63.7375C69.0166 63.7375 69.023 63.7375 69.0293 63.7375C69.0357 63.7375 69.042 63.7375 69.0483 63.7375C69.0546 63.7375 69.0609 63.7375 69.0672 63.7375C69.0735 63.7375 69.0797 63.7375 69.086 63.7375C69.0922 63.7375 69.0985 63.7375 69.1047 63.7375C69.1109 63.7375 69.1171 63.7375 69.1232 63.7375C69.1294 63.7375 69.1356 63.7375 69.1417 63.7375C69.1478 63.7375 69.1539 63.7375 69.16 63.7375C69.1661 63.7375 69.1722 63.7375 69.1783 63.7375C69.1843 63.7375 69.1904 63.7375 69.1964 63.7375C69.2024 63.7375 69.2084 63.7375 69.2144 63.7375C69.2204 63.7375 69.2264 63.7375 69.2323 63.7375C69.2383 63.7375 69.2442 63.7375 69.2501 63.7375C69.256 63.7375 69.2619 63.7375 69.2678 63.7375C69.2737 63.7375 69.2795 63.7375 69.2854 63.7375C69.2912 63.7375 69.297 63.7375 69.3028 63.7375C69.3086 63.7375 69.3144 63.7375 69.3202 63.7375C69.3259 63.7375 69.3317 63.7375 69.3374 63.7375C69.3431 63.7375 69.3488 63.7375 69.3545 63.7375C69.3602 63.7375 69.3658 63.7375 69.3715 63.7375C69.3771 63.7375 69.3828 63.7375 69.3884 63.7375C69.394 63.7375 69.3996 63.7375 69.4051 63.7375C69.4107 63.7375 69.4163 63.7375 69.4218 63.7375C69.4273 63.7375 69.4328 63.7375 69.4383 63.7375C69.4438 63.7375 69.4493 63.7375 69.4548 63.7375C69.4602 63.7375 69.4656 63.7375 69.4711 63.7375C69.4765 63.7375 69.4819 63.7375 69.4872 63.7375C69.4926 63.7375 69.498 63.7375 69.5033 63.7375C69.5086 63.7375 69.514 63.7375 69.5193 63.7375C69.5246 63.7375 69.5298 63.7375 69.5351 63.7375C69.5403 63.7375 69.5456 63.7375 69.5508 63.7375C69.556 63.7375 69.5612 63.7375 69.5664 63.7375C69.5716 63.7375 69.5767 63.7375 69.5819 63.7375C69.587 63.7375 69.5921 63.7375 69.5972 63.7375C69.6023 63.7375 69.6074 63.7375 69.6124 63.7375C69.6175 63.7375 69.6225 63.7375 69.6276 63.7375C69.6326 63.7375 69.6376 63.7375 69.6425 63.7375C69.6475 63.7375 69.6525 63.7375 69.6574 63.7375C69.6623 63.7375 69.6673 63.7375 69.6722 63.7375C69.677 63.7375 69.6819 63.7375 69.6868 63.7375C69.6916 63.7375 69.6965 63.7375 69.7013 63.7375C69.7061 63.7375 69.7109 63.7375 69.7156 63.7375C69.7204 63.7375 69.7252 63.7375 69.7299 63.7375C69.7346 63.7375 69.7393 63.7375 69.744 63.7375C69.7487 63.7375 69.7534 63.7375 69.758 63.7375C69.7627 63.7375 69.7673 63.7375 69.7719 63.7375C69.7765 63.7375 69.7811 63.7375 69.7856 63.7375C69.7902 63.7375 69.7947 63.7375 69.7993 63.7375C69.8038 63.7375 69.8083 63.7375 69.8128 63.7375C69.8172 63.7375 69.8217 63.7375 69.8261 63.7375C69.8306 63.7375 69.835 63.7375 69.8394 63.7375C69.8438 63.7375 69.8481 63.7375 69.8525 63.7375C69.8568 63.7375 69.8612 63.7375 69.8655 63.7375C69.8698 63.7375 69.8741 63.7375 69.8783 63.7375C69.8826 63.7375 69.8868 63.7375 69.891 63.7375C69.8953 63.7375 69.8995 63.7375 69.9036 63.7375C69.9078 63.7375 69.912 63.7375 69.9161 63.7375C69.9202 63.7375 69.9244 63.7375 69.9284 63.7375C69.9325 63.7375 69.9366 63.7375 69.9407 63.7375C69.9447 63.7375 69.9487 63.7375 69.9527 63.7375C69.9567 63.7375 69.9607 63.7375 69.9647 63.7375C69.9686 63.7375 69.9726 63.7375 69.9765 63.7375C69.9804 63.7375 69.9843 63.7375 69.9882 63.7375C69.992 63.7375 69.9959 63.7375 69.9997 63.7375C70.0035 63.7375 70.0073 63.7375 70.0111 63.7375C70.0149 63.7375 70.0187 63.7375 70.0224 63.7375C70.0261 63.7375 70.0299 63.7375 70.0336 63.7375C70.0372 63.7375 70.0409 63.7375 70.0446 63.7375C70.0482 63.7375 70.0518 63.7375 70.0554 63.7375C70.059 63.7375 70.0626 63.7375 70.0662 63.7375C70.0697 63.7375 70.0733 63.7375 70.0768 63.7375C70.0803 63.7375 70.0838 63.7375 70.0873 63.7375C70.0907 63.7375 70.0942 63.7375 70.0976 63.7375C70.101 63.7375 70.1044 63.7375 70.1078 63.7375C70.1112 63.7375 70.1145 63.7375 70.1178 63.7375C70.1212 63.7375 70.1245 63.7375 70.1278 63.7375C70.131 63.7375 70.1343 63.7375 70.1375 63.7375C70.1408 63.7375 70.144 63.7375 70.1472 63.7375C70.1504 63.7375 70.1536 63.7375 70.1567 63.7375C70.1598 63.7375 70.163 63.7375 70.1661 63.7375C70.1692 63.7375 70.1722 63.7375 70.1753 63.7375C70.1783 63.7375 70.1814 63.7375 70.1844 63.7375C70.1874 63.7375 70.1904 63.7375 70.1933 63.7375C70.1963 63.7375 70.1992 63.7375 70.2021 63.7375C70.205 63.7375 70.2079 63.7375 70.2108 63.7375C70.2137 63.7375 70.2165 63.7375 70.2193 63.7375C70.2221 63.7375 70.2249 63.7375 70.2277 63.7375C70.2305 63.7375 70.2332 63.7375 70.2359 63.7375C70.2386 63.7375 70.2413 63.7375 70.244 63.7375C70.2467 63.7375 70.2493 63.7375 70.252 63.7375C70.2546 63.7375 70.2572 63.7375 70.2598 63.7375C70.2624 63.7375 70.2649 63.7375 70.2674 63.7375C70.27 63.7375 70.2725 63.7375 70.275 63.7375C70.2774 63.7375 70.2799 63.7375 70.2823 63.7375C70.2848 63.7375 70.2872 63.7375 70.2895 63.7375C70.2919 63.7375 70.2943 63.7375 70.2966 63.7375C70.299 63.7375 70.3013 63.7375 70.3036 63.7375C70.3058 63.7375 70.3081 63.7375 70.3103 63.7375C70.3126 63.7375 70.3148 63.7375 70.317 63.7375C70.3192 63.7375 70.3213 63.7375 70.3235 63.7375C70.3256 63.7375 70.3277 63.7375 70.3298 63.7375C70.3319 63.7375 70.334 63.7375 70.336 63.7375C70.3381 63.7375 70.3401 63.7375 70.3421 63.7375C70.3441 63.7375 70.346 63.7375 70.348 63.7375C70.3499 63.7375 70.3518 63.7375 70.3537 63.7375C70.3556 63.7375 70.3575 63.7375 70.3593 63.7375C70.3611 63.7375 70.363 63.7375 70.3648 63.7375C70.3665 63.7375 70.3683 63.7375 70.37 63.7375C70.3718 63.7375 70.3735 63.7375 70.3752 63.7375C70.3769 63.7375 70.3785 63.7375 70.3802 63.7375C70.3818 63.7375 70.3834 63.7375 70.385 63.7375C70.3866 63.7375 70.3882 63.7375 70.3897 63.7375C70.3912 63.7375 70.3928 63.7375 70.3942 63.7375C70.3957 63.7375 70.3972 63.7375 70.3986 63.7375C70.4001 63.7375 70.4015 63.7375 70.4029 63.7375C70.4042 63.7375 70.4056 63.7375 70.4069 63.7375C70.4083 63.7375 70.4096 63.7375 70.4108 63.7375C70.4121 63.7375 70.4134 63.7375 70.4146 63.7375C70.4158 63.7375 70.417 63.7375 70.4182 63.7375C70.4194 63.7375 70.4205 63.7375 70.4217 63.7375C70.4228 63.7375 70.4239 63.7375 70.425 63.7375C70.426 63.7375 70.4271 63.7375 70.4281 63.7375C70.4291 63.7375 70.4301 63.7375 70.4311 63.7375C70.4321 63.7375 70.433 63.7375 70.4339 63.7375C70.4348 63.7375 70.4357 63.7375 70.4366 63.7375C70.4374 63.7375 70.4383 63.7375 70.4391 63.7375C70.4399 63.7375 70.4407 63.7375 70.4414 63.7375C70.4422 63.7375 70.4429 63.7375 70.4436 63.7375C70.4443 63.7375 70.445 63.7375 70.4457 63.7375C70.4463 63.7375 70.4469 63.7375 70.4475 63.7375C70.4481 63.7375 70.4487 63.7375 70.4492 63.7375C70.4498 63.7375 70.4503 63.7375 70.4508 63.7375C70.4513 63.7375 70.4517 63.7375 70.4522 63.7375C70.4526 63.7375 70.453 63.7375 70.4534 63.7375C70.4538 63.7375 70.4541 63.7375 70.4545 63.7375C70.4548 63.7375 70.4551 63.7375 70.4554 63.7375C70.4556 63.7375 70.4559 63.7375 70.4561 63.7375C70.4563 63.7375 70.4565 63.7375 70.4567 63.7375C70.4568 63.7375 70.457 63.7375 70.4571 63.7375C70.4572 63.7375 70.4573 63.7375 70.4573 63.7375C70.4574 63.7375 70.4574 63.7375 70.4574 61.4848C70.4574 59.2321 70.4574 59.2321 70.4573 59.2321C70.4573 59.2321 70.4572 59.2321 70.4571 59.2321C70.457 59.2321 70.4568 59.2321 70.4567 59.2321C70.4565 59.2321 70.4563 59.2321 70.4561 59.2321C70.4559 59.2321 70.4556 59.2321 70.4554 59.2321C70.4551 59.2321 70.4548 59.2321 70.4545 59.2321C70.4541 59.2321 70.4538 59.2321 70.4534 59.2321C70.453 59.2321 70.4526 59.2321 70.4522 59.2321C70.4517 59.2321 70.4513 59.2321 70.4508 59.2321C70.4503 59.2321 70.4498 59.2321 70.4492 59.2321C70.4487 59.2321 70.4481 59.2321 70.4475 59.2321C70.4469 59.2321 70.4463 59.2321 70.4457 59.2321C70.445 59.2321 70.4443 59.2321 70.4436 59.2321C70.4429 59.2321 70.4422 59.2321 70.4414 59.2321C70.4407 59.2321 70.4399 59.2321 70.4391 59.2321C70.4383 59.2321 70.4374 59.2321 70.4366 59.2321C70.4357 59.2321 70.4348 59.2321 70.4339 59.2321C70.433 59.2321 70.4321 59.2321 70.4311 59.2321C70.4301 59.2321 70.4291 59.2321 70.4281 59.2321C70.4271 59.2321 70.426 59.2321 70.425 59.2321C70.4239 59.2321 70.4228 59.2321 70.4217 59.2321C70.4205 59.2321 70.4194 59.2321 70.4182 59.2321C70.417 59.2321 70.4158 59.2321 70.4146 59.2321C70.4134 59.2321 70.4121 59.2321 70.4108 59.2321C70.4096 59.2321 70.4083 59.2321 70.4069 59.2321C70.4056 59.2321 70.4042 59.2321 70.4029 59.2321C70.4015 59.2321 70.4001 59.2321 70.3986 59.2321C70.3972 59.2321 70.3957 59.2321 70.3942 59.2321C70.3928 59.2321 70.3912 59.2321 70.3897 59.2321C70.3882 59.2321 70.3866 59.2321 70.385 59.2321C70.3834 59.2321 70.3818 59.2321 70.3802 59.2321C70.3785 59.2321 70.3769 59.2321 70.3752 59.2321C70.3735 59.2321 70.3718 59.2321 70.37 59.2321C70.3683 59.2321 70.3665 59.2321 70.3648 59.2321C70.363 59.2321 70.3611 59.2321 70.3593 59.2321C70.3575 59.2321 70.3556 59.2321 70.3537 59.2321C70.3518 59.2321 70.3499 59.2321 70.348 59.2321C70.346 59.2321 70.3441 59.2321 70.3421 59.2321C70.3401 59.2321 70.3381 59.2321 70.336 59.2321C70.334 59.2321 70.3319 59.2321 70.3298 59.2321C70.3277 59.2321 70.3256 59.2321 70.3235 59.2321C70.3213 59.2321 70.3192 59.2321 70.317 59.2321C70.3148 59.2321 70.3126 59.2321 70.3103 59.2321C70.3081 59.2321 70.3058 59.2321 70.3036 59.2321C70.3013 59.2321 70.299 59.2321 70.2966 59.2321C70.2943 59.2321 70.2919 59.2321 70.2895 59.2321C70.2872 59.2321 70.2848 59.2321 70.2823 59.2321C70.2799 59.2321 70.2774 59.2321 70.275 59.2321C70.2725 59.2321 70.27 59.2321 70.2674 59.2321C70.2649 59.2321 70.2624 59.2321 70.2598 59.2321C70.2572 59.2321 70.2546 59.2321 70.252 59.2321C70.2493 59.2321 70.2467 59.2321 70.244 59.2321C70.2413 59.2321 70.2386 59.2321 70.2359 59.2321C70.2332 59.2321 70.2305 59.2321 70.2277 59.2321C70.2249 59.2321 70.2221 59.2321 70.2193 59.2321C70.2165 59.2321 70.2137 59.2321 70.2108 59.2321C70.2079 59.2321 70.205 59.2321 70.2021 59.2321C70.1992 59.2321 70.1963 59.2321 70.1933 59.2321C70.1904 59.2321 70.1874 59.2321 70.1844 59.2321C70.1814 59.2321 70.1783 59.2321 70.1753 59.2321C70.1722 59.2321 70.1692 59.2321 70.1661 59.2321C70.163 59.2321 70.1598 59.2321 70.1567 59.2321C70.1536 59.2321 70.1504 59.2321 70.1472 59.2321C70.144 59.2321 70.1408 59.2321 70.1375 59.2321C70.1343 59.2321 70.131 59.2321 70.1278 59.2321C70.1245 59.2321 70.1212 59.2321 70.1178 59.2321C70.1145 59.2321 70.1112 59.2321 70.1078 59.2321C70.1044 59.2321 70.101 59.2321 70.0976 59.2321C70.0942 59.2321 70.0907 59.2321 70.0873 59.2321C70.0838 59.2321 70.0803 59.2321 70.0768 59.2321C70.0733 59.2321 70.0697 59.2321 70.0662 59.2321C70.0626 59.2321 70.059 59.2321 70.0554 59.2321C70.0518 59.2321 70.0482 59.2321 70.0446 59.2321C70.0409 59.2321 70.0372 59.2321 70.0336 59.2321C70.0299 59.2321 70.0261 59.2321 70.0224 59.2321C70.0187 59.2321 70.0149 59.2321 70.0111 59.2321C70.0073 59.2321 70.0035 59.2321 69.9997 59.2321C69.9959 59.2321 69.992 59.2321 69.9882 59.2321C69.9843 59.2321 69.9804 59.2321 69.9765 59.2321C69.9726 59.2321 69.9686 59.2321 69.9647 59.2321C69.9607 59.2321 69.9567 59.2321 69.9527 59.2321C69.9487 59.2321 69.9447 59.2321 69.9407 59.2321C69.9366 59.2321 69.9325 59.2321 69.9284 59.2321C69.9244 59.2321 69.9202 59.2321 69.9161 59.2321C69.912 59.2321 69.9078 59.2321 69.9036 59.2321C69.8995 59.2321 69.8953 59.2321 69.891 59.2321C69.8868 59.2321 69.8826 59.2321 69.8783 59.2321C69.8741 59.2321 69.8698 59.2321 69.8655 59.2321C69.8612 59.2321 69.8568 59.2321 69.8525 59.2321C69.8481 59.2321 69.8438 59.2321 69.8394 59.2321C69.835 59.2321 69.8306 59.2321 69.8261 59.2321C69.8217 59.2321 69.8172 59.2321 69.8128 59.2321C69.8083 59.2321 69.8038 59.2321 69.7993 59.2321C69.7947 59.2321 69.7902 59.2321 69.7856 59.2321C69.7811 59.2321 69.7765 59.2321 69.7719 59.2321C69.7673 59.2321 69.7627 59.2321 69.758 59.2321C69.7534 59.2321 69.7487 59.2321 69.744 59.2321C69.7393 59.2321 69.7346 59.2321 69.7299 59.2321C69.7252 59.2321 69.7204 59.2321 69.7156 59.2321C69.7109 59.2321 69.7061 59.2321 69.7013 59.2321C69.6965 59.2321 69.6916 59.2321 69.6868 59.2321C69.6819 59.2321 69.677 59.2321 69.6722 59.2321C69.6673 59.2321 69.6623 59.2321 69.6574 59.2321C69.6525 59.2321 69.6475 59.2321 69.6425 59.2321C69.6376 59.2321 69.6326 59.2321 69.6276 59.2321C69.6225 59.2321 69.6175 59.2321 69.6124 59.2321C69.6074 59.2321 69.6023 59.2321 69.5972 59.2321C69.5921 59.2321 69.587 59.2321 69.5819 59.2321C69.5767 59.2321 69.5716 59.2321 69.5664 59.2321C69.5612 59.2321 69.556 59.2321 69.5508 59.2321C69.5456 59.2321 69.5403 59.2321 69.5351 59.2321C69.5298 59.2321 69.5246 59.2321 69.5193 59.2321C69.514 59.2321 69.5086 59.2321 69.5033 59.2321C69.498 59.2321 69.4926 59.2321 69.4872 59.2321C69.4819 59.2321 69.4765 59.2321 69.4711 59.2321C69.4656 59.2321 69.4602 59.2321 69.4548 59.2321C69.4493 59.2321 69.4438 59.2321 69.4383 59.2321C69.4328 59.2321 69.4273 59.2321 69.4218 59.2321C69.4163 59.2321 69.4107 59.2321 69.4051 59.2321C69.3996 59.2321 69.394 59.2321 69.3884 59.2321C69.3828 59.2321 69.3771 59.2321 69.3715 59.2321C69.3658 59.2321 69.3602 59.2321 69.3545 59.2321C69.3488 59.2321 69.3431 59.2321 69.3374 59.2321C69.3317 59.2321 69.3259 59.2321 69.3202 59.2321C69.3144 59.2321 69.3086 59.2321 69.3028 59.2321C69.297 59.2321 69.2912 59.2321 69.2854 59.2321C69.2795 59.2321 69.2737 59.2321 69.2678 59.2321C69.2619 59.2321 69.256 59.2321 69.2501 59.2321C69.2442 59.2321 69.2383 59.2321 69.2323 59.2321C69.2264 59.2321 69.2204 59.2321 69.2144 59.2321C69.2084 59.2321 69.2024 59.2321 69.1964 59.2321C69.1904 59.2321 69.1843 59.2321 69.1783 59.2321C69.1722 59.2321 69.1661 59.2321 69.16 59.2321C69.1539 59.2321 69.1478 59.2321 69.1417 59.2321C69.1356 59.2321 69.1294 59.2321 69.1232 59.2321C69.1171 59.2321 69.1109 59.2321 69.1047 59.2321C69.0985 59.2321 69.0922 59.2321 69.086 59.2321C69.0797 59.2321 69.0735 59.2321 69.0672 59.2321C69.0609 59.2321 69.0546 59.2321 69.0483 59.2321C69.042 59.2321 69.0357 59.2321 69.0293 59.2321C69.023 59.2321 69.0166 59.2321 69.0102 59.2321C69.0038 59.2321 68.9974 59.2321 68.991 59.2321C68.9846 59.2321 68.9781 59.2321 68.9717 59.2321C68.9652 59.2321 68.9587 59.2321 68.9523 59.2321C68.9458 59.2321 68.9392 59.2321 68.9327 59.2321C68.9262 59.2321 68.9196 59.2321 68.9131 59.2321C68.9065 59.2321 68.8999 59.2321 68.8933 59.2321C68.8867 59.2321 68.8801 59.2321 68.8735 59.2321C68.8669 59.2321 68.8602 59.2321 68.8536 59.2321C68.8469 59.2321 68.8402 59.2321 68.8335 59.2321C68.8268 59.2321 68.8201 59.2321 68.8133 59.2321C68.8066 59.2321 68.7999 59.2321 68.7931 59.2321C68.7863 59.2321 68.7795 59.2321 68.7727 59.2321C68.7659 59.2321 68.7591 59.2321 68.7523 59.2321C68.7454 59.2321 68.7386 59.2321 68.7317 59.2321C68.7248 59.2321 68.7179 59.2321 68.711 59.2321C68.7041 59.2321 68.6972 59.2321 68.6903 59.2321C68.6833 59.2321 68.6764 59.2321 68.6694 59.2321C68.6624 59.2321 68.6554 59.2321 68.6484 59.2321C68.6414 59.2321 68.6344 59.2321 68.6274 59.2321C68.6203 59.2321 68.6133 59.2321 68.6062 59.2321C68.5991 59.2321 68.5921 59.2321 68.585 59.2321C68.5778 59.2321 68.5707 59.2321 68.5636 59.2321C68.5565 59.2321 68.5493 59.2321 68.5421 59.2321C68.535 59.2321 68.5278 59.2321 68.5206 59.2321C68.5134 59.2321 68.5062 59.2321 68.4989 59.2321C68.4917 59.2321 68.4844 59.2321 68.4772 59.2321C68.4699 59.2321 68.4626 59.2321 68.4553 59.2321C68.448 59.2321 68.4407 59.2321 68.4334 59.2321C68.4261 59.2321 68.4187 59.2321 68.4114 59.2321C68.404 59.2321 68.3966 59.2321 68.3892 59.2321C68.3818 59.2321 68.3744 59.2321 68.367 59.2321C68.3596 59.2321 68.3521 59.2321 68.3447 59.2321C68.3372 59.2321 68.3298 59.2321 68.3223 59.2321C68.3148 59.2321 68.3073 59.2321 68.2998 59.2321C68.2923 59.2321 68.2847 59.2321 68.2772 59.2321C68.2696 59.2321 68.2621 59.2321 68.2545 59.2321C68.2469 59.2321 68.2393 59.2321 68.2317 59.2321C68.2241 59.2321 68.2165 59.2321 68.2088 59.2321C68.2012 59.2321 68.1935 59.2321 68.1859 59.2321C68.1782 59.2321 68.1705 59.2321 68.1628 59.2321C68.1551 59.2321 68.1474 59.2321 68.1397 59.2321C68.1319 59.2321 68.1242 59.2321 68.1164 59.2321C68.1087 59.2321 68.1009 59.2321 68.0931 59.2321C68.0853 59.2321 68.0775 59.2321 68.0697 59.2321C68.0619 59.2321 68.054 59.2321 68.0462 59.2321C68.0383 59.2321 68.0305 59.2321 68.0226 59.2321C68.0147 59.2321 68.0068 59.2321 67.9989 59.2321C67.991 59.2321 67.9831 59.2321 67.9752 59.2321C67.9672 59.2321 67.9593 59.2321 67.9513 59.2321C67.9433 59.2321 67.9354 59.2321 67.9274 59.2321C67.9194 59.2321 67.9114 59.2321 67.9033 59.2321C67.8953 59.2321 67.8873 59.2321 67.8792 59.2321C67.8712 59.2321 67.8631 59.2321 67.855 59.2321C67.8469 59.2321 67.8389 59.2321 67.8307 59.2321C67.8226 59.2321 67.8145 59.2321 67.8064 59.2321C67.7982 59.2321 67.7901 59.2321 67.7819 59.2321C67.7738 59.2321 67.7656 59.2321 67.7574 59.2321C67.7492 59.2321 67.741 59.2321 67.7328 59.2321C67.7246 59.2321 67.7163 59.2321 67.7081 59.2321C67.6998 59.2321 67.6916 59.2321 67.6833 59.2321C67.675 59.2321 67.6667 59.2321 67.6584 59.2321C67.6501 59.2321 67.6418 59.2321 67.6335 59.2321C67.6252 59.2321 67.6168 59.2321 67.6085 59.2321C67.6001 59.2321 67.5917 59.2321 67.5834 59.2321C67.575 59.2321 67.5666 59.2321 67.5582 59.2321C67.5498 59.2321 67.5413 59.2321 67.5329 59.2321C67.5245 59.2321 67.516 59.2321 67.5076 59.2321C67.4991 59.2321 67.4906 59.2321 67.4821 59.2321C67.4736 59.2321 67.4651 59.2321 67.4566 59.2321C67.4481 59.2321 67.4396 59.2321 67.431 59.2321C67.4225 59.2321 67.4139 59.2321 67.4054 59.2321C67.3968 59.2321 67.3882 59.2321 67.3796 59.2321C67.371 59.2321 67.3624 59.2321 67.3538 59.2321C67.3452 59.2321 67.3366 59.2321 67.3279 59.2321C67.3193 59.2321 67.3106 59.2321 67.302 59.2321C67.2933 59.2321 67.2846 59.2321 67.2759 59.2321C67.2672 59.2321 67.2585 59.2321 67.2498 59.2321C67.2411 59.2321 67.2323 59.2321 67.2236 59.2321C67.2149 59.2321 67.2061 59.2321 67.1973 59.2321C67.1886 59.2321 67.1798 59.2321 67.171 59.2321C67.1622 59.2321 67.1534 59.2321 67.1446 59.2321C67.1358 59.2321 67.1269 59.2321 67.1181 59.2321C67.1092 59.2321 67.1004 59.2321 67.0915 59.2321C67.0827 59.2321 67.0738 59.2321 67.0649 59.2321C67.056 59.2321 67.0471 59.2321 67.0382 59.2321C67.0293 59.2321 67.0203 59.2321 67.0114 59.2321C67.0025 59.2321 66.9935 59.2321 66.9845 59.2321C66.9756 59.2321 66.9666 59.2321 66.9576 59.2321C66.9486 59.2321 66.9396 59.2321 66.9306 59.2321C66.9216 59.2321 66.9126 59.2321 66.9036 59.2321C66.8945 59.2321 66.8855 59.2321 66.8764 59.2321C66.8674 59.2321 66.8583 59.2321 66.8492 59.2321C66.8402 59.2321 66.8311 59.2321 66.822 59.2321C66.8129 59.2321 66.8038 59.2321 66.7946 59.2321C66.7855 59.2321 66.7764 59.2321 66.7672 59.2321C66.7581 59.2321 66.7489 59.2321 66.7397 59.2321C66.7306 59.2321 66.7214 59.2321 66.7122 59.2321C66.703 59.2321 66.6938 59.2321 66.6846 59.2321C66.6754 59.2321 66.6662 59.2321 66.6569 59.2321C66.6477 59.2321 66.6384 59.2321 66.6292 59.2321C66.6199 59.2321 66.6107 59.2321 66.6014 59.2321C66.5921 59.2321 66.5828 59.2321 66.5735 59.2321C66.5642 59.2321 66.5549 59.2321 66.5456 59.2321C66.5363 59.2321 66.5269 59.2321 66.5176 59.2321C66.5082 59.2321 66.4989 59.2321 66.4895 59.2321C66.4801 59.2321 66.4708 59.2321 66.4614 59.2321C66.452 59.2321 66.4426 59.2321 66.4332 59.2321C66.4238 59.2321 66.4144 59.2321 66.4049 59.2321C66.3955 59.2321 66.3861 59.2321 66.3766 59.2321C66.3672 59.2321 66.3577 59.2321 66.3483 59.2321C66.3388 59.2321 66.3293 59.2321 66.3198 59.2321C66.3103 59.2321 66.3008 59.2321 66.2913 59.2321C66.2818 59.2321 66.2723 59.2321 66.2628 59.2321C66.2532 59.2321 66.2437 59.2321 66.2341 59.2321C66.2246 59.2321 66.215 59.2321 66.2055 59.2321C66.1959 59.2321 66.1863 59.2321 66.1767 59.2321C66.1671 59.2321 66.1575 59.2321 66.1479 59.2321C66.1383 59.2321 66.1287 59.2321 66.1191 59.2321C66.1094 59.2321 66.0998 59.2321 66.0902 59.2321C66.0805 59.2321 66.0708 59.2321 66.0612 59.2321C66.0515 59.2321 66.0418 59.2321 66.0322 59.2321C66.0225 59.2321 66.0128 59.2321 66.0031 59.2321C65.9934 59.2321 65.9837 59.2321 65.9739 59.2321C65.9642 59.2321 65.9545 59.2321 65.9447 59.2321C65.935 59.2321 65.9252 59.2321 65.9155 59.2321C65.9057 59.2321 65.8959 59.2321 65.8862 59.2321C65.8764 59.2321 65.8666 59.2321 65.8568 59.2321C65.847 59.2321 65.8372 59.2321 65.8274 59.2321C65.8176 59.2321 65.8077 59.2321 65.7979 59.2321C65.7881 59.2321 65.7782 59.2321 65.7684 59.2321C65.7585 59.2321 65.7487 59.2321 65.7388 59.2321C65.7289 59.2321 65.7191 59.2321 65.7092 59.2321C65.6993 59.2321 65.6894 59.2321 65.6795 59.2321C65.6696 59.2321 65.6597 59.2321 65.6498 59.2321C65.6398 59.2321 65.6299 59.2321 65.62 59.2321C65.61 59.2321 65.6001 59.2321 65.5901 59.2321C65.5802 59.2321 65.5702 59.2321 65.5603 59.2321C65.5503 59.2321 65.5403 59.2321 65.5303 59.2321C65.5203 59.2321 65.5103 59.2321 65.5003 59.2321C65.4903 59.2321 65.4803 59.2321 65.4703 59.2321C65.4603 59.2321 65.4502 59.2321 65.4402 59.2321C65.4302 59.2321 65.4201 59.2321 65.4101 59.2321C65.4 59.2321 65.39 59.2321 65.3799 59.2321C65.3698 59.2321 65.3597 59.2321 65.3497 59.2321C65.3396 59.2321 65.3295 59.2321 65.3194 59.2321C65.3093 59.2321 65.2992 59.2321 65.2891 59.2321C65.2789 59.2321 65.2688 59.2321 65.2587 59.2321C65.2485 59.2321 65.2384 59.2321 65.2283 59.2321C65.2181 59.2321 65.208 59.2321 65.1978 59.2321C65.1876 59.2321 65.1775 59.2321 65.1673 59.2321C65.1571 59.2321 65.1469 59.2321 65.1367 59.2321C65.1265 59.2321 65.1163 59.2321 65.1061 59.2321C65.0959 59.2321 65.0857 59.2321 65.0755 59.2321C65.0653 59.2321 65.055 59.2321 65.0448 59.2321C65.0346 59.2321 65.0243 59.2321 65.0141 59.2321C65.0038 59.2321 64.9936 59.2321 64.9833 59.2321C64.973 59.2321 64.9628 59.2321 64.9525 59.2321C64.9422 59.2321 64.9319 59.2321 64.9216 59.2321C64.9114 59.2321 64.9011 59.2321 64.8907 59.2321C64.8804 59.2321 64.8701 59.2321 64.8598 59.2321C64.8495 59.2321 64.8392 59.2321 64.8288 59.2321C64.8185 59.2321 64.8082 59.2321 64.7978 59.2321C64.7875 59.2321 64.7771 59.2321 64.7667 59.2321C64.7564 59.2321 64.746 59.2321 64.7357 59.2321C64.7253 59.2321 64.7149 59.2321 64.7045 59.2321C64.6941 59.2321 64.6837 59.2321 64.6733 59.2321C64.6629 59.2321 64.6525 59.2321 64.6421 59.2321C64.6317 59.2321 64.6213 59.2321 64.6109 59.2321C64.6004 59.2321 64.59 59.2321 64.5796 59.2321C64.5691 59.2321 64.5587 59.2321 64.5483 59.2321C64.5378 59.2321 64.5273 59.2321 64.5169 59.2321C64.5064 59.2321 64.496 59.2321 64.4855 59.2321C64.475 59.2321 64.4645 59.2321 64.4541 59.2321C64.4436 59.2321 64.4331 59.2321 64.4226 59.2321C64.4121 59.2321 64.4016 59.2321 64.3911 59.2321C64.3806 59.2321 64.3701 59.2321 64.3595 59.2321C64.349 59.2321 64.3385 59.2321 64.328 59.2321C64.3174 59.2321 64.3069 59.2321 64.2964 59.2321C64.2858 59.2321 64.2753 59.2321 64.2647 59.2321C64.2542 59.2321 64.2436 59.2321 64.233 59.2321C64.2225 59.2321 64.2119 59.2321 64.2013 59.2321C64.1908 59.2321 64.1802 59.2321 64.1696 59.2321C64.159 59.2321 64.1484 59.2321 64.1378 59.2321C64.1272 59.2321 64.1166 59.2321 64.106 59.2321C64.0954 59.2321 64.0848 59.2321 64.0742 59.2321C64.0636 59.2321 64.053 59.2321 64.0423 59.2321C64.0317 59.2321 64.0211 59.2321 64.0104 59.2321C63.9998 59.2321 63.9892 59.2321 63.9785 59.2321C63.9679 59.2321 63.9572 59.2321 63.9466 59.2321C63.9359 59.2321 63.9252 59.2321 63.9146 59.2321C63.9039 59.2321 63.8932 59.2321 63.8826 59.2321C63.8719 59.2321 63.8612 59.2321 63.8505 59.2321C63.8399 59.2321 63.8292 59.2321 63.8185 59.2321C63.8078 59.2321 63.7971 59.2321 63.7864 59.2321C63.7757 59.2321 63.765 59.2321 63.7543 59.2321C63.7436 59.2321 63.7328 59.2321 63.7221 59.2321C63.7114 59.2321 63.7007 59.2321 63.6899 59.2321C63.6792 59.2321 63.6685 59.2321 63.6578 59.2321C63.647 59.2321 63.6363 59.2321 63.6255 59.2321C63.6148 59.2321 63.604 59.2321 63.5933 59.2321C63.5825 59.2321 63.5718 59.2321 63.561 59.2321C63.5503 59.2321 63.5395 59.2321 63.5287 59.2321C63.518 59.2321 63.5072 59.2321 63.4964 59.2321C63.4856 59.2321 63.4749 59.2321 63.4641 59.2321C63.4533 59.2321 63.4425 59.2321 63.4317 59.2321C63.4209 59.2321 63.4101 59.2321 63.3993 59.2321C63.3885 59.2321 63.3777 59.2321 63.3669 59.2321C63.3561 59.2321 63.3453 59.2321 63.3345 59.2321C63.3237 59.2321 63.3129 59.2321 63.302 59.2321C63.2912 59.2321 63.2804 59.2321 63.2696 59.2321C63.2588 59.2321 63.2479 59.2321 63.2371 59.2321C63.2263 59.2321 63.2154 59.2321 63.2046 59.2321C63.1937 59.2321 63.1829 59.2321 63.1721 59.2321C63.1612 59.2321 63.1504 59.2321 63.1395 59.2321C63.1287 59.2321 63.1178 59.2321 63.1069 59.2321C63.0961 59.2321 63.0852 59.2321 63.0744 59.2321C63.0635 59.2321 63.0526 59.2321 63.0418 59.2321C63.0309 59.2321 63.02 59.2321 63.0091 59.2321C62.9983 59.2321 62.9874 59.2321 62.9765 59.2321C62.9656 59.2321 62.9547 59.2321 62.9439 59.2321C62.933 59.2321 62.9221 59.2321 62.9112 59.2321C62.9003 59.2321 62.8894 59.2321 62.8785 59.2321C62.8676 59.2321 62.8567 59.2321 62.8458 59.2321C62.8349 59.2321 62.824 59.2321 62.8131 59.2321C62.8022 59.2321 62.7913 59.2321 62.7804 59.2321C62.7695 59.2321 62.7586 59.2321 62.7476 59.2321C62.7367 59.2321 62.7258 59.2321 62.7149 59.2321C62.704 59.2321 62.693 59.2321 62.6821 59.2321C62.6712 59.2321 62.6603 59.2321 62.6493 59.2321C62.6384 59.2321 62.6275 59.2321 62.6165 59.2321C62.6056 59.2321 62.5947 59.2321 62.5837 59.2321C62.5728 59.2321 62.5619 59.2321 62.5509 59.2321C62.54 59.2321 62.529 59.2321 62.5181 59.2321C62.5072 59.2321 62.4962 59.2321 62.4853 59.2321C62.4743 59.2321 62.4634 59.2321 62.4524 59.2321C62.4415 59.2321 62.4305 59.2321 62.4196 59.2321C62.4086 59.2321 62.3977 59.2321 62.3867 59.2321C62.3757 59.2321 62.3648 59.2321 62.3538 59.2321C62.3429 59.2321 62.3319 59.2321 62.3209 59.2321C62.31 59.2321 62.299 59.2321 62.2881 59.2321C62.2771 59.2321 62.2661 59.2321 62.2552 59.2321C62.2442 59.2321 62.2332 59.2321 62.2222 59.2321C62.2113 59.2321 62.2003 59.2321 62.1893 59.2321C62.1784 59.2321 62.1674 59.2321 62.1564 59.2321C62.1454 59.2321 62.1345 59.2321 62.1235 59.2321C62.1125 59.2321 62.1015 59.2321 62.0906 59.2321C62.0796 59.2321 62.0686 59.2321 62.0576 59.2321C62.0466 59.2321 62.0357 59.2321 62.0247 59.2321C62.0137 59.2321 62.0027 59.2321 61.9917 59.2321C61.9808 59.2321 61.9698 59.2321 61.9588 59.2321C61.9478 59.2321 61.9368 59.2321 61.9258 59.2321C61.9149 59.2321 61.9039 59.2321 61.8929 59.2321C61.8819 59.2321 61.8709 59.2321 61.8599 59.2321C61.8489 59.2321 61.838 59.2321 61.827 59.2321C61.816 59.2321 61.805 59.2321 61.794 59.2321C61.783 59.2321 61.772 59.2321 61.761 59.2321C61.75 59.2321 61.7391 59.2321 61.7281 59.2321C61.7171 59.2321 61.7061 59.2321 61.6951 59.2321C61.6841 59.2321 61.6731 59.2321 61.6621 59.2321C61.6512 59.2321 61.6402 59.2321 61.6292 59.2321C61.6182 59.2321 61.6072 59.2321 61.5962 59.2321C61.5852 59.2321 61.5742 59.2321 61.5632 59.2321C61.5523 59.2321 61.5413 59.2321 61.5303 59.2321C61.5193 59.2321 61.5083 59.2321 61.4973 59.2321C61.4863 59.2321 61.4753 59.2321 61.4644 59.2321C61.4534 59.2321 61.4424 59.2321 61.4314 59.2321C61.4204 59.2321 61.4094 59.2321 61.3985 59.2321C61.3875 59.2321 61.3765 59.2321 61.3655 59.2321C61.3545 59.2321 61.3435 59.2321 61.3326 59.2321C61.3216 59.2321 61.3106 59.2321 61.2996 59.2321C61.2886 59.2321 61.2777 59.2321 61.2667 59.2321C61.2557 59.2321 61.2447 59.2321 61.2337 59.2321C61.2228 59.2321 61.2118 59.2321 61.2008 59.2321C61.1898 59.2321 61.1789 59.2321 61.1679 59.2321C61.1569 59.2321 61.146 59.2321 61.135 59.2321C61.124 59.2321 61.113 59.2321 61.1021 59.2321C61.0911 59.2321 61.0801 59.2321 61.0692 59.2321C61.0582 59.2321 61.0472 59.2321 61.0363 59.2321C61.0253 59.2321 61.0144 59.2321 61.0034 59.2321C60.9924 59.2321 60.9815 59.2321 60.9705 59.2321C60.9596 59.2321 60.9486 59.2321 60.9377 59.2321C60.9267 59.2321 60.9157 59.2321 60.9048 59.2321C60.8938 59.2321 60.8829 59.2321 60.872 59.2321C60.861 59.2321 60.8501 59.2321 60.8391 59.2321C60.8282 59.2321 60.8172 59.2321 60.8063 59.2321C60.7953 59.2321 60.7844 59.2321 60.7735 59.2321C60.7625 59.2321 60.7516 59.2321 60.7407 59.2321C60.7297 59.2321 60.7188 59.2321 60.7079 59.2321C60.6969 59.2321 60.686 59.2321 60.6751 59.2321C60.6642 59.2321 60.6532 59.2321 60.6423 59.2321C60.6314 59.2321 60.6205 59.2321 60.6096 59.2321C60.5986 59.2321 60.5877 59.2321 60.5768 59.2321C60.5659 59.2321 60.555 59.2321 60.5441 59.2321C60.5332 59.2321 60.5223 59.2321 60.5114 59.2321C60.5005 59.2321 60.4896 59.2321 60.4787 59.2321C60.4678 59.2321 60.4569 59.2321 60.446 59.2321C60.4351 59.2321 60.4242 59.2321 60.4133 59.2321C60.4024 59.2321 60.3915 59.2321 60.3807 59.2321C60.3698 59.2321 60.3589 59.2321 60.348 59.2321C60.3372 59.2321 60.3263 59.2321 60.3154 59.2321C60.3045 59.2321 60.2937 59.2321 60.2828 59.2321C60.2719 59.2321 60.2611 59.2321 60.2502 59.2321C60.2394 59.2321 60.2285 59.2321 60.2176 59.2321C60.2068 59.2321 60.1959 59.2321 60.1851 59.2321C60.1743 59.2321 60.1634 59.2321 60.1526 59.2321C60.1417 59.2321 60.1309 59.2321 60.1201 59.2321C60.1092 59.2321 60.0984 59.2321 60.0876 59.2321C60.0767 59.2321 60.0659 59.2321 60.0551 59.2321C60.0443 59.2321 60.0335 59.2321 60.0226 59.2321C60.0118 59.2321 60.001 59.2321 59.9902 59.2321C59.9794 59.2321 59.9686 59.2321 59.9578 59.2321C59.947 59.2321 59.9362 59.2321 59.9254 59.2321C59.9146 59.2321 59.9038 59.2321 59.893 59.2321C59.8823 59.2321 59.8715 59.2321 59.8607 59.2321C59.8499 59.2321 59.8391 59.2321 59.8284 59.2321C59.8176 59.2321 59.8068 59.2321 59.7961 59.2321C59.7853 59.2321 59.7746 59.2321 59.7638 59.2321C59.753 59.2321 59.7423 59.2321 59.7316 59.2321C59.7208 59.2321 59.7101 59.2321 59.6993 59.2321C59.6886 59.2321 59.6779 59.2321 59.6671 59.2321C59.6564 59.2321 59.6457 59.2321 59.635 59.2321C59.6242 59.2321 59.6135 59.2321 59.6028 59.2321C59.5921 59.2321 59.5814 59.2321 59.5707 59.2321C59.56 59.2321 59.5493 59.2321 59.5386 59.2321C59.5279 59.2321 59.5172 59.2321 59.5065 59.2321C59.4958 59.2321 59.4851 59.2321 59.4745 59.2321C59.4638 59.2321 59.4531 59.2321 59.4425 59.2321C59.4318 59.2321 59.4211 59.2321 59.4105 59.2321C59.3998 59.2321 59.3892 59.2321 59.3785 59.2321C59.3679 59.2321 59.3572 59.2321 59.3466 59.2321C59.3359 59.2321 59.3253 59.2321 59.3147 59.2321C59.3041 59.2321 59.2934 59.2321 59.2828 59.2321C59.2722 59.2321 59.2616 59.2321 59.251 59.2321C59.2404 59.2321 59.2298 59.2321 59.2192 59.2321C59.2086 59.2321 59.198 59.2321 59.1874 59.2321C59.1768 59.2321 59.1662 59.2321 59.1556 59.2321C59.1451 59.2321 59.1345 59.2321 59.1239 59.2321C59.1134 59.2321 59.1028 59.2321 59.0922 59.2321C59.0817 59.2321 59.0711 59.2321 59.0606 59.2321C59.0501 59.2321 59.0395 59.2321 59.029 59.2321C59.0185 59.2321 59.0079 59.2321 58.9974 59.2321C58.9869 59.2321 58.9764 59.2321 58.9659 59.2321C58.9553 59.2321 58.9448 59.2321 58.9343 59.2321C58.9238 59.2321 58.9134 59.2321 58.9029 59.2321C58.8924 59.2321 58.8819 59.2321 58.8714 59.2321C58.8609 59.2321 58.8505 59.2321 58.84 59.2321C58.8296 59.2321 58.8191 59.2321 58.8086 59.2321C58.7982 59.2321 58.7877 59.2321 58.7773 59.2321C58.7669 59.2321 58.7564 59.2321 58.746 59.2321C58.7356 59.2321 58.7252 59.2321 58.7147 59.2321C58.7043 59.2321 58.6939 59.2321 58.6835 59.2321C58.6731 59.2321 58.6627 59.2321 58.6523 59.2321C58.642 59.2321 58.6316 59.2321 58.6212 59.2321C58.6108 59.2321 58.6004 59.2321 58.5901 59.2321C58.5797 59.2321 58.5694 59.2321 58.559 59.2321C58.5487 59.2321 58.5383 59.2321 58.528 59.2321C58.5177 59.2321 58.5073 59.2321 58.497 59.2321C58.4867 59.2321 58.4764 59.2321 58.4661 59.2321C58.4557 59.2321 58.4454 59.2321 58.4352 59.2321C58.4249 59.2321 58.4146 59.2321 58.4043 59.2321C58.394 59.2321 58.3837 59.2321 58.3735 59.2321C58.3632 59.2321 58.3529 59.2321 58.3427 59.2321C58.3324 59.2321 58.3222 59.2321 58.3119 59.2321C58.3017 59.2321 58.2915 59.2321 58.2812 59.2321C58.271 59.2321 58.2608 59.2321 58.2506 59.2321C58.2404 59.2321 58.2302 59.2321 58.22 59.2321C58.2098 59.2321 58.1996 59.2321 58.1894 59.2321C58.1792 59.2321 58.1691 59.2321 58.1589 59.2321C58.1487 59.2321 58.1386 59.2321 58.1284 59.2321C58.1183 59.2321 58.1081 59.2321 58.098 59.2321C58.0879 59.2321 58.0777 59.2321 58.0676 59.2321V63.7375ZM67.8668 41.8864C67.8668 43.6166 67.6663 44.401 67.079 45.3115C66.3504 46.4412 65.0081 47.7873 62.2627 50.3882L65.3613 53.6589C67.9661 51.1912 69.7776 49.4398 70.8652 47.7536C72.0941 45.8483 72.3722 44.0984 72.3722 41.8864H67.8668ZM62.2627 50.3882C59.5507 52.9574 57.8991 54.8741 56.9555 56.6054C55.935 58.4778 55.8149 60.0022 55.8149 61.4848L60.3203 61.4848C60.3203 60.3768 60.3973 59.7049 60.9115 58.7614C61.5026 57.6769 62.7232 56.1581 65.3613 53.6589L62.2627 50.3882Z" fill="#EF473E"/>
<path fill-rule="evenodd" clip-rule="evenodd" d="M12 104V108C12 112.418 15.5817 116 20 116H108C112.418 116 116 112.418 116 108V104C116 108.418 112.418 112 108 112H20C15.5817 112 12 108.418 12 104Z" fill="url(#paint0_linear)"/>
</g>
<defs>
<linearGradient id="paint0_linear" x1="12" y1="105" x2="116" y2="105" gradientUnits="userSpaceOnUse">
<stop stop-color="#ED362B"/>
<stop offset="0.046875" stop-color="#F7A6A1"/>
<stop offset="0.0989583" stop-color="#E71E13"/>
<stop offset="0.916667" stop-color="#E71E13"/>
<stop offset="0.958333" stop-color="#F7A6A1"/>
<stop offset="1" stop-color="#ED362B"/>
</linearGradient>
</defs>
</svg>
