<svg width="128" height="128" viewBox="0 0 128 128" fill="none" xmlns="http://www.w3.org/2000/svg">
<path d="M119 88.834V42.1841C119 36.8744 116.229 31.9619 111.729 29.3071L72.2706 5.99115C67.7706 3.33628 62.2294 3.33628 57.7294 5.99115L18.2706 29.3071C13.7706 31.9619 11 36.8744 11 42.1841V88.8159C11 94.1257 13.7706 99.0381 18.2706 101.693L57.7294 125.009C62.2294 127.664 67.7706 127.664 72.2706 125.009L111.729 101.693C116.229 99.0561 119 94.1437 119 88.834Z" fill="url(#paint0_linear)"/>
<path d="M119 84.834V38.1841C119 32.8744 116.229 27.9619 111.729 25.3071L72.2706 1.99115C67.7706 -0.663718 62.2294 -0.663718 57.7294 1.99115L18.2706 25.3071C13.7706 27.9619 11 32.8744 11 38.1841V84.8159C11 90.1257 13.7706 95.0381 18.2706 97.6929L57.7294 121.009C62.2294 123.664 67.7706 123.664 72.2706 121.009L111.729 97.6929C116.229 95.0561 119 90.1437 119 84.834Z" fill="#F8E45C"/>
<path d="M64.7483 96.114C64.7839 95.5856 64.8195 95.0573 64.8551 94.529C65.1401 91.1405 67.0281 88.9907 70.0027 87.7519C72.4963 86.7135 75.1323 86.1669 77.8219 86.003C81.206 85.8026 84.5902 85.7297 87.9744 85.5475C89.5596 85.4746 91.1092 85.1285 92.6054 84.5273C95.0277 83.5253 96.2389 81.6306 96.3636 79.0255C96.4348 77.732 96.3279 76.4203 96.417 75.1268C96.4704 74.2706 96.132 73.9609 95.3661 73.724C84.4477 70.4812 73.5293 67.202 62.6287 63.941C51.7459 60.6799 40.881 57.4189 29.9982 54.1761C29.2857 53.9575 28.9829 53.6478 29.0007 52.8462C29.0542 49.986 29.0364 47.144 29.0186 44.2837C28.9651 37.3427 31.7793 33.7173 38.4052 32.2416C40.8988 31.6769 43.428 31.5858 45.975 31.5494C49.3592 31.4947 52.7612 31.4583 56.0563 30.5109C59.387 29.5636 61.9519 27.76 62.8068 24.0982C62.9849 23.333 63.074 22.5314 63.1096 21.7481C63.1274 21.1833 63.3234 20.9829 63.8755 21.0011C64.7839 21.0376 65.7101 21.0193 66.6363 21.0011C67.0816 21.0011 67.3844 21.1104 67.4022 21.6388C67.4734 27.6871 71.9085 30.0737 76.5216 30.9482C79.9058 31.5858 83.3434 31.4583 86.7632 31.6222C89.7377 31.768 92.641 32.2234 95.3661 33.5898C98.875 35.3387 100.514 38.3447 100.905 42.1887C101.19 45.0489 100.745 47.8727 100.692 50.7329C100.692 51.1701 100.549 51.4252 100.068 51.3888C99.9971 51.3888 99.9259 51.3888 99.8546 51.3888C98.7681 51.3523 97.3788 51.8442 96.6664 51.2066C95.9361 50.5507 96.4704 49.0933 96.4348 48.0002C96.3992 46.816 96.4348 45.6137 96.417 44.4295C96.3992 40.0207 94.6537 37.8346 90.4146 36.8508C87.7428 36.2314 85.0355 36.2132 82.3103 36.2132C78.8371 36.2132 75.3995 35.9399 72.0688 34.9015C70.6439 34.4642 69.2902 33.863 68.0968 32.9339C66.1554 31.4218 65.4073 29.3085 65.2826 26.8855C65.2648 26.5394 65.3539 26.175 65.0689 25.756C64.7305 26.2661 64.7661 26.8127 64.7483 27.3046C64.5524 30.8206 62.6465 33.0068 59.583 34.2821C55.8604 35.8306 51.9241 36.1585 47.9699 36.1949C45.031 36.2132 42.11 36.1949 39.2423 36.869C36.6597 37.4884 34.4867 38.6908 33.9167 41.6057C33.4358 44.138 33.7386 46.725 33.7386 49.2755C33.7386 49.9313 34.3976 49.8584 34.7895 49.9678C42.4306 52.245 50.0717 54.4858 57.7306 56.7266C71.6947 60.8439 85.6767 64.9612 99.6409 69.0602C100.425 69.2788 100.727 69.5886 100.692 70.4448C100.585 73.5054 100.834 76.5843 100.549 79.6449C100.033 85.0921 97.4857 88.0798 92.2491 89.5008C89.0787 90.3571 85.837 90.3935 82.5953 90.4299C79.603 90.4664 76.5929 90.6121 73.6896 91.4866C69.967 92.6161 66.7966 94.7658 66.6007 100.14C66.5829 100.796 66.3513 101.033 65.7279 100.996C64.8552 100.96 63.9646 100.978 63.074 100.996C62.6287 100.996 62.3259 100.924 62.3259 100.359C62.2547 94.4379 57.8374 91.8692 53.2065 91.0311C50.1963 90.4846 47.1684 90.4846 44.1405 90.3935C41.1659 90.2842 38.2449 89.9198 35.4663 88.7357C31.7971 87.1871 29.8023 84.3633 29.2857 80.3918C28.8939 77.4041 29.1789 74.3981 29.0898 71.4103C29.072 70.7727 29.3392 70.6088 29.9091 70.627C30.7641 70.6634 31.6012 70.6816 32.4562 70.627C33.1864 70.5723 33.3467 70.9185 33.3289 71.5925C33.2933 73.6147 33.3824 75.6369 33.3111 77.6591C33.1508 82.5051 35.7335 84.2905 39.2779 85.1467C41.825 85.7661 44.4433 85.7844 47.0615 85.8026C50.5526 85.8208 54.0436 86.0941 57.4278 87.0961C58.8171 87.5151 60.1529 88.0798 61.3463 88.9361C63.1631 90.2478 64.1249 92.0514 64.303 94.3104C64.3564 94.9298 64.4455 95.5492 64.5167 96.1868C64.5345 96.1322 64.6414 96.1322 64.7483 96.114Z" fill="black"/>
<defs>
<linearGradient id="paint0_linear" x1="11" y1="113" x2="119" y2="113" gradientUnits="userSpaceOnUse">
<stop stop-color="#FFE27E"/>
<stop offset="0.0572917" stop-color="#F5C211"/>
<stop offset="0.40625" stop-color="#F5C211"/>
<stop offset="0.494792" stop-color="#FFEBA6"/>
<stop offset="0.588542" stop-color="#F5C211"/>
<stop offset="0.9375" stop-color="#F5C211"/>
<stop offset="1" stop-color="#FFE27E"/>
</linearGradient>
</defs>
</svg>
