<svg width="128" height="128" viewBox="0 0 128 128" fill="none" xmlns="http://www.w3.org/2000/svg">
<path d="M8 20V108H16V100H24V108H104V100H112V108H120V20H112V28H104V20H24V28H16V20H8ZM16 36H24V44H16V36ZM104 36H112V44H104V36ZM16 52H24V60H16V52ZM104 52H112V60H104V52ZM16 68H24V76H16V68ZM104 68H112V76H104V68ZM16 84H24V92H16V84ZM104 84H112V92H104V84Z" fill="url(#paint0_radial)"/>
<path d="M8 20V108H16V100H24V108H104V100H112V108H120V20H112V28H104V20H24V28H16V20H8ZM16 36H24V44H16V36ZM104 36H112V44H104V36ZM16 52H24V60H16V52ZM104 52H112V60H104V52ZM16 68H24V76H16V68ZM104 68H112V76H104V68ZM16 84H24V92H16V84ZM104 84H112V92H104V84Z" fill="url(#paint1_radial)"/>
<path opacity="0.15" d="M64 38C58.6957 38 53.6086 40.1071 49.8579 43.8579C46.1071 47.6086 44 52.6957 44 58C44 63.3043 46.1071 68.3914 49.8579 72.1421C53.6086 75.8929 58.6957 78 64 78C69.3043 78 74.3914 75.8929 78.1421 72.1421C81.8929 68.3914 84 63.3043 84 58C84 52.6957 81.8929 47.6086 78.1421 43.8579C74.3914 40.1071 69.3043 38 64 38V38ZM56.0938 48H57.9062H58.0938C58.4436 47.997 58.7893 48.0774 59.0938 48.25L73.0938 56.25C73.7151 56.5938 74.0312 57.2969 74.0312 58C74.0312 58.7031 73.7151 59.4062 73.0938 59.75L59.0938 67.75C58.7893 67.9224 58.4436 68.002 58.0938 68H57.9062H56.0938V48Z" fill="black"/>
<path d="M64 36C58.6957 36 53.6086 38.1071 49.8579 41.8579C46.1071 45.6086 44 50.6957 44 56C44 61.3043 46.1071 66.3914 49.8579 70.1421C53.6086 73.8929 58.6957 76 64 76C69.3043 76 74.3914 73.8929 78.1421 70.1421C81.8929 66.3914 84 61.3043 84 56C84 50.6957 81.8929 45.6086 78.1421 41.8579C74.3914 38.1071 69.3043 36 64 36ZM56.0938 46H57.9062H58.0938C58.4436 45.997 58.7893 46.0774 59.0938 46.25L73.0938 54.25C73.7151 54.5938 74.0312 55.2969 74.0312 56C74.0312 56.7031 73.7151 57.4062 73.0938 57.75L59.0938 65.75C58.7893 65.9224 58.4436 66.002 58.0938 66H57.9062H56.0938V46Z" fill="white"/>
<g opacity="0.15">
<path d="M94 90H34C32.8954 90 32 90.8954 32 92C32 93.1046 32.8954 94 34 94H94C95.1046 94 96 93.1046 96 92C96 90.8954 95.1046 90 94 90Z" fill="black"/>
<path d="M52 92C52 88.6863 49.3137 86 46 86C42.6863 86 40 88.6863 40 92C40 95.3137 42.6863 98 46 98C49.3137 98 52 95.3137 52 92Z" fill="black"/>
</g>
<path d="M94 88H34C32.8954 88 32 88.8954 32 90C32 91.1046 32.8954 92 34 92H94C95.1046 92 96 91.1046 96 90C96 88.8954 95.1046 88 94 88Z" fill="white"/>
<path d="M52 90C52 86.6863 49.3137 84 46 84C42.6863 84 40 86.6863 40 90C40 93.3137 42.6863 96 46 96C49.3137 96 52 93.3137 52 90Z" fill="white"/>
<path opacity="0.25" d="M16 33V36H24V33H16ZM104 33V36H112V33H104ZM16 49V52H24V49H16ZM104 49V52H112V49H104ZM16 65V68H24V65H16ZM104 65V68H112V65H104ZM16 81V84H24V81H16ZM104 81V84H112V81H104ZM16 97V100H24V97H16ZM104 97V100H112V97H104ZM8 105V108H16V105H8ZM24 105V108H104V105H24ZM112 105V108H120V105H112Z" fill="black"/>
<defs>
<radialGradient id="paint0_radial" cx="0" cy="0" r="1" gradientUnits="userSpaceOnUse" gradientTransform="translate(30.5725 24.8284) scale(62.9184 43.126)">
<stop stop-color="#62A0EA"/>
<stop offset="1" stop-color="#1A5FB4"/>
</radialGradient>
<radialGradient id="paint1_radial" cx="0" cy="0" r="1" gradientUnits="userSpaceOnUse" gradientTransform="translate(80 104) scale(136 80.1436)">
<stop stop-color="#ED333B"/>
<stop offset="1" stop-color="#1A5FB4" stop-opacity="0"/>
</radialGradient>
</defs>
</svg>
