<svg width="128" height="128" viewBox="0 0 128 128" fill="none" xmlns="http://www.w3.org/2000/svg">
<path d="M64.4746 7.87097C79.6632 7.87097 94.5353 13.8344 105.294 24.8195C116.052 35.4908 122.065 49.9285 122.065 65.3078C122.065 97.0078 96.1174 123.058 64.1582 123.058C54.6654 123.058 45.1725 120.861 36.629 116.153L5.93549 124V120.5L14.1626 94.1831C9.41619 85.3949 6.56834 75.6652 6.56834 65.6216C6.25191 33.9215 32.199 7.87097 64.4746 7.87097Z" fill="url(#paint0_linear)"/>
<path d="M64.4746 4C79.6632 4 94.5353 9.96338 105.294 20.9486C116.052 31.6199 122.065 46.0575 122.065 61.4368C122.065 93.1369 96.1174 119.187 64.1582 119.187C54.6654 119.187 45.1725 116.99 36.629 112.282L5.93549 120.129L14.1626 90.3121C9.41619 81.524 6.56834 71.7943 6.56834 61.7507C6.25191 30.0506 32.199 4 64.4746 4Z" fill="white"/>
<path d="M64.4746 110.458C55.9311 110.458 47.3875 108.261 40.1097 103.867L38.2111 102.925L19.8583 107.633L24.6047 89.7428L23.339 87.8596C9.41618 65.5754 16.0612 36.0724 38.844 22.2624C61.6268 8.45249 91.0546 15.0436 104.977 37.6417C118.9 60.2398 112.255 89.4289 89.4724 103.239C82.1946 107.947 73.3346 110.458 64.4746 110.458Z" fill="#33D17A"/>
<g filter="url(#filter0_d)">
<path d="M92.3203 75.619L88.8396 74.0497C88.8396 74.0497 83.7767 71.8527 80.6125 70.2834C80.296 70.2834 79.9796 69.9695 79.6632 69.9695C78.7139 69.9695 78.081 70.2834 77.4482 70.5972C77.4482 70.5972 77.1318 70.9111 72.7018 75.9329C72.3853 76.5606 71.7525 76.8745 71.1196 76.8745H70.8032C70.4868 76.8745 69.8539 76.5606 69.5375 76.2467L67.9554 75.619C64.4746 74.0497 61.3104 72.1665 58.7789 69.6556C58.1461 69.0279 57.1968 68.4002 56.564 67.7725C54.349 65.5754 52.134 63.0645 50.5518 60.2398L50.2354 59.612C49.919 59.2982 49.919 58.9843 49.6025 58.3566C49.6025 57.7289 49.6025 57.1011 49.919 56.7873C49.919 56.7873 51.1847 55.218 52.134 54.2764C52.7668 53.6487 53.0832 52.7071 53.7161 52.0793C54.349 51.1378 54.6654 49.8823 54.349 48.9407C54.0325 47.3714 50.2354 38.8971 49.2861 37.014C48.6533 36.0724 48.0204 35.7585 47.0711 35.4446H46.1218C45.489 35.4446 44.5397 35.4446 43.5904 35.4446C42.9576 35.4446 42.3247 35.7585 41.6918 35.7585L41.3754 36.0724C40.7426 36.3862 40.1097 37.014 39.4769 37.3278C38.844 37.9555 38.5276 38.5833 37.8947 39.211C35.6797 42.0358 34.414 45.4882 34.414 48.9407C34.414 51.4516 35.0469 53.9625 35.9961 56.1596L36.3126 57.1011C39.1604 63.0645 42.9576 68.4002 48.0204 73.1081L49.2861 74.3636C50.2354 75.3052 51.1847 75.9329 51.8175 76.8745C58.4625 82.524 66.0568 86.6042 74.6003 88.8012C75.5496 89.1151 76.8153 89.1151 77.7646 89.429C78.7139 89.429 79.9796 89.429 80.9289 89.429C82.511 89.429 84.4096 88.8012 85.6753 88.1735C86.6246 87.5458 87.2575 87.5458 87.8903 86.9181L88.5232 86.2903C89.156 85.6626 89.7889 85.3488 90.4217 84.721C91.0546 84.0933 91.6874 83.4656 92.0039 82.8378C92.6367 81.5824 92.9532 80.0131 93.2696 78.4438C93.2696 77.8161 93.2696 76.8745 93.2696 76.2467C93.2696 76.2467 92.9531 75.9329 92.3203 75.619Z" fill="white"/>
</g>
<defs>
<filter id="filter0_d" x="34.414" y="35.4446" width="58.8556" height="55.9843" filterUnits="userSpaceOnUse" color-interpolation-filters="sRGB">
<feFlood flood-opacity="0" result="BackgroundImageFix"/>
<feColorMatrix in="SourceAlpha" type="matrix" values="0 0 0 0 0 0 0 0 0 0 0 0 0 0 0 0 0 0 127 0"/>
<feOffset dy="2"/>
<feColorMatrix type="matrix" values="0 0 0 0 0 0 0 0 0 0 0 0 0 0 0 0 0 0 0.16 0"/>
<feBlend mode="normal" in2="BackgroundImageFix" result="effect1_dropShadow"/>
<feBlend mode="normal" in="SourceGraphic" in2="effect1_dropShadow" result="shape"/>
</filter>
<linearGradient id="paint0_linear" x1="122.065" y1="109.484" x2="5.93548" y2="108.483" gradientUnits="userSpaceOnUse">
<stop stop-color="#E6E6E6"/>
<stop offset="0.498351" stop-color="white"/>
<stop offset="1" stop-color="#E6E6E6"/>
</linearGradient>
</defs>
</svg>
