<svg width="128" height="128" viewBox="0 0 128 128" fill="none" xmlns="http://www.w3.org/2000/svg">
<rect x="20" y="84" width="88" height="36" rx="8" fill="url(#paint0_linear)"/>
<path opacity="0.5" fill-rule="evenodd" clip-rule="evenodd" d="M20 108V110C20 114.418 23.5817 118 28 118H100C104.418 118 108 114.418 108 110V108C108 112.418 104.418 116 100 116H28C23.5817 116 20 112.418 20 108Z" fill="url(#paint1_linear)"/>
<path d="M20 16C20 11.5817 23.5817 8 28 8H100C104.418 8 108 11.5817 108 16V106C108 110.418 104.418 114 100 114H74C73.4477 114 73 114.448 73 115V115C73 115.552 72.5523 116 72 116H28C23.5817 116 20 112.418 20 108V16Z" fill="#F8E45C"/>
<g filter="url(#filter0_d)">
<path d="M61 107C64.2 115 70.6363 114 77 114V103C72.5 103 59 102 61 107Z" fill="#F8E45C"/>
</g>
<g opacity="0.27" filter="url(#filter1_f)">
<path d="M63 101C63 107.5 66.5 114.5 66.5 114.5L21.5 67.5C34.0383 71.1401 50.8298 71.8357 65.7875 71.4393C69.9468 71.3291 72.427 75.9002 70.1521 79.384C66.3143 85.2611 63 92.0258 63 101Z" fill="black"/>
</g>
<path d="M60 95C60.8 86.2 64.5 80 66 77C67.059 74.882 67.9891 73.2348 67.5 71.5C67.1586 70.2891 66.0277 69.3222 65 68.5L60.5 73.5C60 84.3333 59.2 103.8 60 95Z" fill="#D9C750"/>
<g filter="url(#filter2_di)">
<path d="M64.5 114C57.1015 105.296 58.7944 87.879 65.6222 73.2899C66.9472 70.4585 64.9815 67 61.8555 67H26.5C24 67 21 65.5 20 62C20 66 21.1378 68.6378 23.5 71C25.8622 73.3622 64.5 114 64.5 114Z" fill="url(#paint2_linear)"/>
</g>
<rect x="75" y="29" width="18" height="4" rx="2" fill="#5E5C64"/>
<rect x="36" y="29" width="31" height="4" rx="2" fill="#5E5C64"/>
<rect x="36" y="39" width="21" height="4" rx="2" fill="#5E5C64"/>
<rect x="54" y="49" width="21" height="4" rx="2" fill="#5E5C64"/>
<rect x="65" y="39" width="12" height="4" rx="2" fill="#5E5C64"/>
<rect x="79" y="49" width="11" height="4" rx="2" fill="#5E5C64"/>
<rect x="36" y="49" width="10" height="4" rx="2" fill="#5E5C64"/>
<defs>
<filter id="filter0_d" x="60.7993" y="102.918" width="16.2007" height="13.1216" filterUnits="userSpaceOnUse" color-interpolation-filters="sRGB">
<feFlood flood-opacity="0" result="BackgroundImageFix"/>
<feColorMatrix in="SourceAlpha" type="matrix" values="0 0 0 0 0 0 0 0 0 0 0 0 0 0 0 0 0 0 127 0" result="hardAlpha"/>
<feOffset dy="2"/>
<feComposite in2="hardAlpha" operator="out"/>
<feColorMatrix type="matrix" values="0 0 0 0 0.85098 0 0 0 0 0.780392 0 0 0 0 0.313726 0 0 0 1 0"/>
<feBlend mode="normal" in2="BackgroundImageFix" result="effect1_dropShadow"/>
<feBlend mode="normal" in="SourceGraphic" in2="effect1_dropShadow" result="shape"/>
</filter>
<filter id="filter1_f" x="18.5" y="64.5" width="55.5163" height="53" filterUnits="userSpaceOnUse" color-interpolation-filters="sRGB">
<feFlood flood-opacity="0" result="BackgroundImageFix"/>
<feBlend mode="normal" in="SourceGraphic" in2="BackgroundImageFix" result="shape"/>
<feGaussianBlur stdDeviation="1.5" result="effect1_foregroundBlur"/>
</filter>
<filter id="filter2_di" x="18" y="54" width="58.0417" height="64" filterUnits="userSpaceOnUse" color-interpolation-filters="sRGB">
<feFlood flood-opacity="0" result="BackgroundImageFix"/>
<feColorMatrix in="SourceAlpha" type="matrix" values="0 0 0 0 0 0 0 0 0 0 0 0 0 0 0 0 0 0 127 0" result="hardAlpha"/>
<feOffset dx="4" dy="-2"/>
<feGaussianBlur stdDeviation="3"/>
<feComposite in2="hardAlpha" operator="out"/>
<feColorMatrix type="matrix" values="0 0 0 0 0 0 0 0 0 0 0 0 0 0 0 0 0 0 0.09 0"/>
<feBlend mode="normal" in2="BackgroundImageFix" result="effect1_dropShadow"/>
<feBlend mode="normal" in="SourceGraphic" in2="effect1_dropShadow" result="shape"/>
<feColorMatrix in="SourceAlpha" type="matrix" values="0 0 0 0 0 0 0 0 0 0 0 0 0 0 0 0 0 0 127 0" result="hardAlpha"/>
<feOffset dx="2" dy="-2"/>
<feGaussianBlur stdDeviation="2"/>
<feComposite in2="hardAlpha" operator="arithmetic" k2="-1" k3="1"/>
<feColorMatrix type="matrix" values="0 0 0 0 0 0 0 0 0 0 0 0 0 0 0 0 0 0 0.12 0"/>
<feBlend mode="normal" in2="shape" result="effect2_innerShadow"/>
</filter>
<linearGradient id="paint0_linear" x1="20" y1="97.7143" x2="108" y2="97.7143" gradientUnits="userSpaceOnUse">
<stop stop-color="#D9C750"/>
<stop offset="0.0415667" stop-color="#FFF087"/>
<stop offset="0.0832333" stop-color="#D9C750"/>
<stop offset="0.916667" stop-color="#D9C750"/>
<stop offset="0.958333" stop-color="#FFF087"/>
<stop offset="1" stop-color="#D9C750"/>
</linearGradient>
<linearGradient id="paint1_linear" x1="51" y1="112" x2="99.5" y2="115" gradientUnits="userSpaceOnUse">
<stop stop-color="#FFE954" stop-opacity="0"/>
<stop offset="1" stop-color="#FFEB62"/>
</linearGradient>
<linearGradient id="paint2_linear" x1="62" y1="68" x2="50.5" y2="83.5" gradientUnits="userSpaceOnUse">
<stop offset="0.00731366" stop-color="#FFF3A2"/>
<stop offset="1" stop-color="#F8E45C"/>
</linearGradient>
</defs>
</svg>
