<svg width="128" height="128" viewBox="0 0 128 128" fill="none" xmlns="http://www.w3.org/2000/svg">
<g clip-path="url(#clip0)">
<path d="M86.1213 51H115.051C117.784 51 120 53.2117 120 55.94V82.2442C120 92.2714 111.857 100.4 101.812 100.4H101.726C91.6806 100.401 83.5363 92.2739 83.5349 82.2468C83.5349 82.2459 83.5349 82.245 83.5349 82.2441V53.5818C83.5349 52.1559 84.6929 51 86.1213 51Z" fill="#5059C9"/>
<path d="M105.674 45.8C112.148 45.8 117.395 40.5617 117.395 34.1C117.395 27.6382 112.148 22.4 105.674 22.4C99.2011 22.4 93.9535 27.6382 93.9535 34.1C93.9535 40.5617 99.2011 45.8 105.674 45.8Z" fill="#5059C9"/>
<path d="M69.2093 45.8C78.5596 45.8 86.1396 38.2336 86.1396 28.9C86.1396 19.5664 78.5596 12 69.2093 12C59.859 12 52.2791 19.5664 52.2791 28.9C52.2791 38.2336 59.859 45.8 69.2093 45.8Z" fill="#7B83EB"/>
<path d="M91.7838 51H44.0301C41.3295 51.0667 39.1932 53.3039 39.2558 55.9998V86.0012C38.8787 102.179 51.7007 115.604 67.907 116C84.1133 115.604 96.9353 102.179 96.5582 86.0012V55.9998C96.6207 53.3039 94.4844 51.0667 91.7838 51Z" fill="#7B83EB"/>
<path opacity="0.1" d="M70.5116 51V93.042C70.4987 94.9699 69.3283 96.7019 67.5423 97.436C66.9737 97.6761 66.3626 97.7999 65.7451 97.8H41.5479C41.2093 96.942 40.8967 96.084 40.6363 95.2C39.7245 92.2166 39.2593 89.1152 39.2558 85.996V55.992C39.1932 53.3004 41.326 51.0667 44.0223 51H70.5116Z" fill="black"/>
<path opacity="0.2" d="M67.9071 51V95.642C67.907 96.2583 67.783 96.8684 67.5425 97.436C66.8071 99.2188 65.072 100.387 63.1406 100.4H42.7721C42.3293 99.542 41.9126 98.684 41.5479 97.8C41.1832 96.916 40.8968 96.084 40.6363 95.2C39.7245 92.2167 39.2593 89.1152 39.2558 85.996V55.992C39.1932 53.3004 41.326 51.0667 44.0223 51H67.9071Z" fill="black"/>
<path opacity="0.2" d="M67.9071 51V90.442C67.8873 93.0616 65.7648 95.1802 63.1406 95.2H40.6363C39.7246 92.2167 39.2593 89.1152 39.2558 85.996V55.992C39.1932 53.3004 41.326 51.0667 44.0223 51H67.9071Z" fill="black"/>
<path opacity="0.2" d="M65.3023 51V90.442C65.2825 93.0616 63.16 95.1802 60.5358 95.2H40.6363C39.7246 92.2167 39.2593 89.1152 39.2558 85.996V55.992C39.1932 53.3004 41.326 51.0667 44.0223 51H65.3023Z" fill="black"/>
<path opacity="0.1" d="M70.5116 37.558V45.748C70.0688 45.774 69.6521 45.8 69.2093 45.8C68.7665 45.8 68.3498 45.774 67.907 45.748C67.0278 45.6898 66.1558 45.5505 65.3023 45.332C60.0279 44.0852 55.6704 40.3927 53.5814 35.4C53.2219 34.5616 52.9429 33.691 52.7479 32.8H65.7451C68.3734 32.81 70.5016 34.9343 70.5116 37.558Z" fill="black"/>
<path opacity="0.2" d="M67.9071 40.158V45.748C67.0279 45.6898 66.156 45.5505 65.3025 45.332C60.028 44.0852 55.6704 40.3927 53.5814 35.4H63.1406C65.7689 35.41 67.8971 37.5344 67.9071 40.158Z" fill="black"/>
<path opacity="0.2" d="M67.9071 40.158V45.748C67.0279 45.6898 66.156 45.5505 65.3025 45.332C60.028 44.0852 55.6704 40.3927 53.5814 35.4H63.1406C65.7689 35.41 67.8971 37.5344 67.9071 40.158Z" fill="black"/>
<path opacity="0.2" d="M65.3023 40.158V45.332C60.0279 44.0852 55.6704 40.3927 53.5814 35.4H60.5358C63.1642 35.41 65.2923 37.5344 65.3023 40.158Z" fill="black"/>
<path d="M12.7743 35.4H60.528C63.1648 35.4 65.3023 37.5338 65.3023 40.1658V87.8342C65.3023 90.4663 63.1647 92.6 60.528 92.6H12.7743C10.1375 92.6 8 90.4662 8 87.8342V40.1658C8 37.5338 10.1376 35.4 12.7743 35.4Z" fill="url(#paint0_linear)"/>
<path d="M49.216 53.5427H39.6699V79.4908H33.5881V53.5427H24.0863V48.5092H49.216V53.5427Z" fill="white"/>
</g>
<defs>
<linearGradient id="paint0_linear" x1="17.9546" y1="31.6761" x2="55.2476" y2="96.3817" gradientUnits="userSpaceOnUse">
<stop stop-color="#5A62C3"/>
<stop offset="0.5" stop-color="#4D55BD"/>
<stop offset="1" stop-color="#3940AB"/>
</linearGradient>
<clipPath id="clip0">
<rect width="112" height="104" fill="white" transform="translate(8 12)"/>
</clipPath>
</defs>
</svg>
