<svg width="128" height="128" viewBox="0 0 128 128" fill="none" xmlns="http://www.w3.org/2000/svg">
<g filter="url(#filter0_i)">
<circle cx="64" cy="64" r="60" fill="#D02236"/>
</g>
<g filter="url(#filter1_d)">
<path d="M41.2776 42H35.5921C34.7128 42 34 42.7128 34 43.5921V84.4079C34 85.2872 34.7128 86 35.5921 86H43.4731C44.3524 86 45.0652 85.2872 45.0652 84.4079V60.8437L61.1108 76.6923C62.7386 78.3002 65.3568 78.3002 66.9846 76.6923L83.0302 60.8437V84.4079C83.0302 85.2872 83.743 86 84.6223 86H92.4079C93.2872 86 94 85.2872 94 84.4079V43.5921C94 42.7128 93.2872 42 92.4079 42H86.8178C85.9801 42 85.1761 42.3301 84.5801 42.9188L64.6071 62.6466C64.297 62.9529 63.7984 62.9529 63.4883 62.6466L43.5152 42.9188C42.9193 42.3301 42.1153 42 41.2776 42Z" fill="white"/>
</g>
<defs>
<filter id="filter0_i" x="4" y="4" width="120" height="120" filterUnits="userSpaceOnUse" color-interpolation-filters="sRGB">
<feFlood flood-opacity="0" result="BackgroundImageFix"/>
<feBlend mode="normal" in="SourceGraphic" in2="BackgroundImageFix" result="shape"/>
<feColorMatrix in="SourceAlpha" type="matrix" values="0 0 0 0 0 0 0 0 0 0 0 0 0 0 0 0 0 0 127 0" result="hardAlpha"/>
<feOffset dy="-4"/>
<feComposite in2="hardAlpha" operator="arithmetic" k2="-1" k3="1"/>
<feColorMatrix type="matrix" values="0 0 0 0 0 0 0 0 0 0 0 0 0 0 0 0 0 0 0.16 0"/>
<feBlend mode="normal" in2="shape" result="effect1_innerShadow"/>
</filter>
<filter id="filter1_d" x="34" y="42" width="60" height="46" filterUnits="userSpaceOnUse" color-interpolation-filters="sRGB">
<feFlood flood-opacity="0" result="BackgroundImageFix"/>
<feColorMatrix in="SourceAlpha" type="matrix" values="0 0 0 0 0 0 0 0 0 0 0 0 0 0 0 0 0 0 127 0"/>
<feOffset dy="2"/>
<feColorMatrix type="matrix" values="0 0 0 0 0 0 0 0 0 0 0 0 0 0 0 0 0 0 0.16 0"/>
<feBlend mode="normal" in2="BackgroundImageFix" result="effect1_dropShadow"/>
<feBlend mode="normal" in="SourceGraphic" in2="effect1_dropShadow" result="shape"/>
</filter>
</defs>
</svg>
